<svg width="319" height="175" viewBox="0 0 319 175" fill="none" xmlns="http://www.w3.org/2000/svg">
<rect width="319" height="175" fill="#A7A7A7"/>
<rect y="-11" width="319" height="208" fill="#7343BE"/>
<rect y="84" width="319" height="113" fill="white"/>
<path d="M185.754 32.9911C182.642 33.1265 176.799 35.804 176.712 34.582C176.625 33.36 182.568 27.0479 185.679 26.9126C188.791 26.7773 194.463 33.2004 194.55 34.4224C194.637 35.6444 188.865 32.8558 185.754 32.9911Z" fill="#CD4E5E"/>
<rect x="128" y="30.9048" width="20" height="4.54365" fill="#F19723"/>
<path d="M102.384 66V39.816H108.216L108.84 49.68L108.504 47.688C108.696 46.248 109.072 44.888 109.632 43.608C110.192 42.312 111.032 41.264 112.152 40.464C113.288 39.664 114.784 39.264 116.64 39.264C119.072 39.264 120.992 40.04 122.4 41.592C123.808 43.128 124.512 45.48 124.512 48.648V66H117.888V51.048C117.888 49.464 117.736 48.232 117.432 47.352C117.144 46.456 116.704 45.824 116.112 45.456C115.536 45.088 114.8 44.904 113.904 44.904C112.816 44.904 111.832 45.24 110.952 45.912C110.088 46.584 109.448 47.36 109.032 48.24V66H102.384ZM134.649 66.288C133.113 66.288 131.729 66 130.497 65.424C129.281 64.848 128.321 64.016 127.617 62.928C126.929 61.84 126.585 60.552 126.585 59.064C126.585 57.496 126.889 56.208 127.497 55.2C128.105 54.176 128.953 53.368 130.041 52.776C131.129 52.168 132.385 51.72 133.809 51.432C134.801 51.224 135.825 51.056 136.881 50.928C137.953 50.784 138.953 50.672 139.881 50.592C140.809 50.512 141.561 50.448 142.137 50.4V49.512C142.137 47.8 141.825 46.56 141.201 45.792C140.577 45.008 139.505 44.616 137.985 44.616C137.009 44.616 136.185 44.744 135.513 45C134.857 45.256 134.361 45.72 134.025 46.392C133.689 47.064 133.521 48.032 133.521 49.296H127.329C127.153 47.008 127.497 45.128 128.361 43.656C129.241 42.184 130.529 41.096 132.225 40.392C133.937 39.672 135.945 39.312 138.249 39.312C139.609 39.312 140.905 39.464 142.137 39.768C143.385 40.056 144.489 40.56 145.449 41.28C146.425 41.984 147.193 42.952 147.753 44.184C148.329 45.416 148.617 46.976 148.617 48.864V66H142.089L142.137 60C141.849 61.76 141.113 63.248 139.929 64.464C138.745 65.68 136.985 66.288 134.649 66.288ZM136.665 61.656C137.481 61.656 138.273 61.512 139.041 61.224C139.825 60.92 140.497 60.504 141.057 59.976C141.633 59.448 141.993 58.84 142.137 58.152V53.712C141.497 53.808 140.801 53.92 140.049 54.048C139.297 54.176 138.641 54.304 138.081 54.432C136.385 54.784 135.193 55.272 134.505 55.896C133.833 56.504 133.497 57.36 133.497 58.464C133.497 59.12 133.625 59.688 133.881 60.168C134.153 60.648 134.529 61.016 135.009 61.272C135.505 61.528 136.057 61.656 136.665 61.656ZM160.715 66.312C158.571 66.312 156.747 65.744 155.243 64.608C153.755 63.456 152.627 61.864 151.859 59.832C151.091 57.8 150.707 55.448 150.707 52.776C150.707 49.88 151.171 47.432 152.099 45.432C153.027 43.432 154.275 41.912 155.843 40.872C157.411 39.832 159.155 39.312 161.075 39.312C162.579 39.312 163.819 39.568 164.795 40.08C165.771 40.576 166.523 41.208 167.051 41.976C167.579 42.744 167.923 43.504 168.083 44.256L169.331 45.648L167.771 47.52C167.627 47.008 167.363 46.552 166.979 46.152C166.611 45.736 166.107 45.408 165.467 45.168C164.843 44.928 164.059 44.808 163.115 44.808C161.371 44.808 159.979 45.456 158.939 46.752C157.899 48.048 157.379 50.096 157.379 52.896C157.379 55.488 157.867 57.472 158.843 58.848C159.819 60.208 161.163 60.888 162.875 60.888C163.851 60.888 164.683 60.736 165.371 60.432C166.075 60.112 166.627 59.744 167.027 59.328C167.443 58.896 167.691 58.512 167.771 58.176L168.059 58.728L167.771 59.976C167.627 60.712 167.395 61.456 167.075 62.208C166.755 62.96 166.323 63.648 165.779 64.272C165.235 64.88 164.547 65.376 163.715 65.76C162.899 66.128 161.899 66.312 160.715 66.312ZM167.795 66L167.771 28.656H174.371V66H167.795ZM178.119 66V39.816H183.951L184.575 49.992L184.095 48.504C184.239 47.272 184.479 46.104 184.815 45C185.167 43.896 185.639 42.912 186.231 42.048C186.839 41.184 187.583 40.504 188.463 40.008C189.359 39.512 190.407 39.264 191.607 39.264C191.927 39.264 192.247 39.28 192.567 39.312C192.903 39.344 193.199 39.4 193.455 39.48V46.44C192.911 46.28 192.359 46.176 191.799 46.128C191.255 46.064 190.727 46.032 190.215 46.032C189.463 46.032 188.727 46.136 188.007 46.344C187.287 46.536 186.647 46.84 186.087 47.256C185.527 47.656 185.087 48.16 184.767 48.768V66H178.119ZM201.196 66.288C199.66 66.288 198.276 66 197.044 65.424C195.828 64.848 194.868 64.016 194.164 62.928C193.476 61.84 193.132 60.552 193.132 59.064C193.132 57.496 193.436 56.208 194.044 55.2C194.652 54.176 195.5 53.368 196.588 52.776C197.676 52.168 198.932 51.72 200.356 51.432C201.348 51.224 202.372 51.056 203.428 50.928C204.5 50.784 205.5 50.672 206.428 50.592C207.356 50.512 208.108 50.448 208.684 50.4V49.512C208.684 47.8 208.372 46.56 207.748 45.792C207.124 45.008 206.052 44.616 204.532 44.616C203.556 44.616 202.732 44.744 202.06 45C201.404 45.256 200.908 45.72 200.572 46.392C200.236 47.064 200.068 48.032 200.068 49.296H193.876C193.7 47.008 194.044 45.128 194.908 43.656C195.788 42.184 197.076 41.096 198.772 40.392C200.484 39.672 202.492 39.312 204.796 39.312C206.156 39.312 207.452 39.464 208.684 39.768C209.932 40.056 211.036 40.56 211.996 41.28C212.972 41.984 213.74 42.952 214.3 44.184C214.876 45.416 215.164 46.976 215.164 48.864V66H208.636L208.684 60C208.396 61.76 207.66 63.248 206.476 64.464C205.292 65.68 203.532 66.288 201.196 66.288ZM203.212 61.656C204.028 61.656 204.82 61.512 205.588 61.224C206.372 60.92 207.044 60.504 207.604 59.976C208.18 59.448 208.54 58.84 208.684 58.152V53.712C208.044 53.808 207.348 53.92 206.596 54.048C205.844 54.176 205.188 54.304 204.628 54.432C202.932 54.784 201.74 55.272 201.052 55.896C200.38 56.504 200.044 57.36 200.044 58.464C200.044 59.12 200.172 59.688 200.428 60.168C200.7 60.648 201.076 61.016 201.556 61.272C202.052 61.528 202.604 61.656 203.212 61.656Z" fill="white"/>
<path d="M73.8783 130.568C73.5269 130.568 73.1756 130.443 72.8243 130.194C72.4729 129.945 72.2916 129.582 72.2803 129.106L71.1413 127.933L72.3313 126.981H76.6663C77.6636 126.981 78.4909 126.817 79.1483 126.488C79.8169 126.148 80.3156 125.632 80.6443 124.941C80.9843 124.25 81.1543 123.371 81.1543 122.306C81.1543 120.617 80.7293 119.473 79.8793 118.872C79.0406 118.26 77.8789 117.954 76.3943 117.954H72.2293L70.7673 114.282C71.2886 114.282 71.9063 114.282 72.6203 114.282C73.3456 114.282 74.0369 114.282 74.6943 114.282C75.3516 114.282 75.8446 114.282 76.1733 114.282C79.1993 114.282 81.4659 114.905 82.9733 116.152C84.4806 117.387 85.2343 119.405 85.2343 122.204C85.2343 123.269 85.0813 124.301 84.7753 125.298C84.4806 126.284 83.9933 127.174 83.3133 127.967C82.6333 128.76 81.7153 129.395 80.5593 129.871C79.4033 130.336 77.9753 130.568 76.2753 130.568H73.8783ZM68.3193 139V114.282H72.3313V139H68.3193ZM86.3802 139V120.453H89.8142L90.2562 127.593L89.8992 126.607C89.9785 125.859 90.1258 125.1 90.3412 124.329C90.5678 123.558 90.8852 122.85 91.2932 122.204C91.7125 121.558 92.2452 121.042 92.8912 120.657C93.5485 120.26 94.3475 120.062 95.2882 120.062C95.5148 120.062 95.7415 120.073 95.9682 120.096C96.1948 120.119 96.4045 120.158 96.5972 120.215V124.499C96.2118 124.374 95.7982 124.295 95.3562 124.261C94.9255 124.216 94.5288 124.193 94.1662 124.193C93.7242 124.193 93.2482 124.284 92.7382 124.465C92.2282 124.635 91.7578 124.896 91.3272 125.247C90.8965 125.598 90.5848 126.035 90.3922 126.556V139H86.3802ZM97.5558 139V120.453H101.619L101.568 139H97.5558ZM99.6128 117.699C98.8762 117.699 98.2528 117.444 97.7428 116.934C97.2328 116.413 96.9778 115.75 96.9778 114.945C96.9778 114.152 97.2328 113.506 97.7428 113.007C98.2528 112.508 98.8762 112.259 99.6128 112.259C100.327 112.259 100.939 112.508 101.449 113.007C101.97 113.506 102.231 114.152 102.231 114.945C102.231 115.75 101.97 116.413 101.449 116.934C100.939 117.444 100.327 117.699 99.6128 117.699ZM108.935 139L102.475 120.453H107.031L109.411 129.055L111.026 135.056H111.179L112.794 129.072L115.174 120.453H119.73L113.27 139H108.935ZM125.042 139.204C123.909 139.204 122.906 138.994 122.033 138.575C121.16 138.144 120.475 137.549 119.976 136.79C119.489 136.031 119.245 135.152 119.245 134.155C119.245 133.056 119.443 132.149 119.84 131.435C120.237 130.721 120.809 130.154 121.557 129.735C122.316 129.304 123.206 128.976 124.226 128.749C124.951 128.59 125.716 128.46 126.521 128.358C127.337 128.256 128.091 128.177 128.782 128.12C129.473 128.052 130.006 128.007 130.38 127.984V127.236C130.38 125.978 130.125 125.037 129.615 124.414C129.116 123.779 128.266 123.462 127.065 123.462C126.294 123.462 125.648 123.558 125.127 123.751C124.606 123.932 124.209 124.284 123.937 124.805C123.676 125.315 123.535 126.063 123.512 127.049H119.857C119.732 125.451 119.959 124.142 120.537 123.122C121.126 122.091 121.999 121.331 123.155 120.844C124.322 120.345 125.699 120.096 127.286 120.096C128.227 120.096 129.111 120.204 129.938 120.419C130.777 120.623 131.519 120.98 132.165 121.49C132.811 121.989 133.321 122.674 133.695 123.547C134.069 124.42 134.256 125.525 134.256 126.862V139H130.329L130.38 134.835C130.165 136.093 129.621 137.136 128.748 137.963C127.875 138.79 126.64 139.204 125.042 139.204ZM126.113 136.178C126.702 136.178 127.297 136.076 127.898 135.872C128.51 135.668 129.043 135.373 129.496 134.988C129.961 134.603 130.255 134.149 130.38 133.628V130.228C129.927 130.273 129.388 130.353 128.765 130.466C128.153 130.579 127.626 130.681 127.184 130.772C125.915 131.033 124.997 131.378 124.43 131.809C123.875 132.228 123.597 132.874 123.597 133.747C123.597 134.246 123.71 134.682 123.937 135.056C124.175 135.419 124.487 135.696 124.872 135.889C125.257 136.082 125.671 136.178 126.113 136.178ZM144.687 139.323C142.851 139.323 141.275 138.921 139.961 138.116C138.646 137.3 137.637 136.167 136.935 134.716C136.243 133.265 135.898 131.582 135.898 129.667C135.898 127.65 136.255 125.927 136.969 124.499C137.683 123.071 138.674 121.983 139.944 121.235C141.213 120.476 142.675 120.096 144.33 120.096C145.973 120.096 147.35 120.402 148.461 121.014C149.583 121.615 150.421 122.425 150.977 123.445C151.532 124.454 151.787 125.581 151.742 126.828H147.883C147.871 126.329 147.792 125.876 147.645 125.468C147.497 125.049 147.276 124.697 146.982 124.414C146.698 124.119 146.336 123.893 145.894 123.734C145.452 123.575 144.936 123.496 144.347 123.496C142.76 123.485 141.632 124.029 140.964 125.128C140.306 126.227 139.978 127.712 139.978 129.582C139.978 131.713 140.374 133.305 141.168 134.359C141.972 135.402 143.225 135.929 144.925 135.94C145.321 135.94 145.752 135.827 146.217 135.6C146.693 135.362 147.095 135.028 147.424 134.597C147.764 134.155 147.928 133.628 147.917 133.016H151.742C151.787 134.319 151.475 135.441 150.807 136.382C150.149 137.323 149.277 138.048 148.189 138.558C147.101 139.068 145.933 139.323 144.687 139.323ZM153.073 146.327V142.587H154.535C155.351 142.587 155.98 142.513 156.422 142.366C156.875 142.219 157.21 141.998 157.425 141.703C157.652 141.408 157.816 141.051 157.918 140.632C158.043 140.133 158.179 139.759 158.326 139.51C158.485 139.272 158.672 139.102 158.887 139H157.561L151.509 120.453H155.963L158.088 128.919L159.805 135.056H159.958L161.505 128.936L163.63 120.453H168.05L162.083 139C161.72 140.122 161.329 141.136 160.91 142.043C160.491 142.95 160.003 143.72 159.448 144.355C158.893 144.99 158.213 145.477 157.408 145.817C156.615 146.157 155.657 146.327 154.535 146.327H153.073ZM178.816 130.568C178.465 130.568 178.113 130.443 177.762 130.194C177.411 129.945 177.229 129.582 177.218 129.106L176.079 127.933L177.269 126.981H181.604C182.601 126.981 183.429 126.817 184.086 126.488C184.755 126.148 185.253 125.632 185.582 124.941C185.922 124.25 186.092 123.371 186.092 122.306C186.092 120.617 185.667 119.473 184.817 118.872C183.978 118.26 182.817 117.954 181.332 117.954H177.167L175.705 114.282C176.226 114.282 176.844 114.282 177.558 114.282C178.283 114.282 178.975 114.282 179.632 114.282C180.289 114.282 180.782 114.282 181.111 114.282C184.137 114.282 186.404 114.905 187.911 116.152C189.418 117.387 190.172 119.405 190.172 122.204C190.172 123.269 190.019 124.301 189.713 125.298C189.418 126.284 188.931 127.174 188.251 127.967C187.571 128.76 186.653 129.395 185.497 129.871C184.341 130.336 182.913 130.568 181.213 130.568H178.816ZM173.257 139V114.282H177.269V139H173.257ZM198.576 139.255C196.865 139.255 195.375 138.887 194.105 138.15C192.836 137.413 191.85 136.331 191.147 134.903C190.445 133.464 190.093 131.701 190.093 129.616C190.093 127.644 190.462 125.944 191.198 124.516C191.946 123.088 192.966 121.994 194.258 121.235C195.55 120.464 197.012 120.079 198.644 120.079C200.412 120.079 201.925 120.464 203.183 121.235C204.453 121.994 205.427 123.088 206.107 124.516C206.787 125.944 207.127 127.644 207.127 129.616C207.127 131.701 206.748 133.464 205.988 134.903C205.24 136.331 204.22 137.413 202.928 138.15C201.636 138.887 200.186 139.255 198.576 139.255ZM198.644 135.838C199.948 135.838 201.013 135.351 201.84 134.376C202.668 133.401 203.081 131.815 203.081 129.616C203.081 127.576 202.679 126.046 201.874 125.026C201.07 124.006 199.97 123.496 198.576 123.496C197.273 123.496 196.208 124 195.38 125.009C194.564 126.018 194.156 127.553 194.156 129.616C194.156 131.713 194.57 133.277 195.397 134.308C196.236 135.328 197.318 135.838 198.644 135.838ZM208.902 139V112.548H212.914V139H208.902ZM215.959 139V120.453H220.022L219.971 139H215.959ZM218.016 117.699C217.28 117.699 216.656 117.444 216.146 116.934C215.636 116.413 215.381 115.75 215.381 114.945C215.381 114.152 215.636 113.506 216.146 113.007C216.656 112.508 217.28 112.259 218.016 112.259C218.73 112.259 219.342 112.508 219.852 113.007C220.374 113.506 220.634 114.152 220.634 114.945C220.634 115.75 220.374 116.413 219.852 116.934C219.342 117.444 218.73 117.699 218.016 117.699ZM230.581 139.323C228.745 139.323 227.169 138.921 225.855 138.116C224.54 137.3 223.531 136.167 222.829 134.716C222.137 133.265 221.792 131.582 221.792 129.667C221.792 127.65 222.149 125.927 222.863 124.499C223.577 123.071 224.568 121.983 225.838 121.235C227.107 120.476 228.569 120.096 230.224 120.096C231.867 120.096 233.244 120.402 234.355 121.014C235.477 121.615 236.315 122.425 236.871 123.445C237.426 124.454 237.681 125.581 237.636 126.828H233.777C233.765 126.329 233.686 125.876 233.539 125.468C233.391 125.049 233.17 124.697 232.876 124.414C232.592 124.119 232.23 123.893 231.788 123.734C231.346 123.575 230.83 123.496 230.241 123.496C228.654 123.485 227.526 124.029 226.858 125.128C226.2 126.227 225.872 127.712 225.872 129.582C225.872 131.713 226.268 133.305 227.062 134.359C227.866 135.402 229.119 135.929 230.819 135.94C231.215 135.94 231.646 135.827 232.111 135.6C232.587 135.362 232.989 135.028 233.318 134.597C233.658 134.155 233.822 133.628 233.811 133.016H237.636C237.681 134.319 237.369 135.441 236.701 136.382C236.043 137.323 235.171 138.048 234.083 138.558C232.995 139.068 231.827 139.323 230.581 139.323ZM238.967 146.327V142.587H240.429C241.245 142.587 241.874 142.513 242.316 142.366C242.769 142.219 243.104 141.998 243.319 141.703C243.546 141.408 243.71 141.051 243.812 140.632C243.937 140.133 244.073 139.759 244.22 139.51C244.379 139.272 244.566 139.102 244.781 139H243.455L237.403 120.453H241.857L243.982 128.919L245.699 135.056H245.852L247.399 128.936L249.524 120.453H253.944L247.977 139C247.614 140.122 247.223 141.136 246.804 142.043C246.385 142.95 245.897 143.72 245.342 144.355C244.787 144.99 244.107 145.477 243.302 145.817C242.509 146.157 241.551 146.327 240.429 146.327H238.967Z" fill="#7343BE"/>
</svg>
