<svg width="319" height="175" viewBox="0 0 319 175" fill="none" xmlns="http://www.w3.org/2000/svg">
<rect width="319" height="175" fill="#A7A7A7"/>
<rect y="-11" width="319" height="208" fill="#302828"/>
<rect y="84" width="319" height="113" fill="white"/>
<path d="M185.754 32.9911C182.642 33.1265 176.799 35.804 176.712 34.582C176.625 33.36 182.568 27.0479 185.679 26.9126C188.791 26.7773 194.463 33.2004 194.55 34.4224C194.637 35.6444 188.865 32.8558 185.754 32.9911Z" fill="#CD4E5E"/>
<rect x="128" y="30.9048" width="20" height="4.54365" fill="#F19723"/>
<path d="M102.384 66V39.816H108.216L108.84 49.68L108.504 47.688C108.696 46.248 109.072 44.888 109.632 43.608C110.192 42.312 111.032 41.264 112.152 40.464C113.288 39.664 114.784 39.264 116.64 39.264C119.072 39.264 120.992 40.04 122.4 41.592C123.808 43.128 124.512 45.48 124.512 48.648V66H117.888V51.048C117.888 49.464 117.736 48.232 117.432 47.352C117.144 46.456 116.704 45.824 116.112 45.456C115.536 45.088 114.8 44.904 113.904 44.904C112.816 44.904 111.832 45.24 110.952 45.912C110.088 46.584 109.448 47.36 109.032 48.24V66H102.384ZM134.649 66.288C133.113 66.288 131.729 66 130.497 65.424C129.281 64.848 128.321 64.016 127.617 62.928C126.929 61.84 126.585 60.552 126.585 59.064C126.585 57.496 126.889 56.208 127.497 55.2C128.105 54.176 128.953 53.368 130.041 52.776C131.129 52.168 132.385 51.72 133.809 51.432C134.801 51.224 135.825 51.056 136.881 50.928C137.953 50.784 138.953 50.672 139.881 50.592C140.809 50.512 141.561 50.448 142.137 50.4V49.512C142.137 47.8 141.825 46.56 141.201 45.792C140.577 45.008 139.505 44.616 137.985 44.616C137.009 44.616 136.185 44.744 135.513 45C134.857 45.256 134.361 45.72 134.025 46.392C133.689 47.064 133.521 48.032 133.521 49.296H127.329C127.153 47.008 127.497 45.128 128.361 43.656C129.241 42.184 130.529 41.096 132.225 40.392C133.937 39.672 135.945 39.312 138.249 39.312C139.609 39.312 140.905 39.464 142.137 39.768C143.385 40.056 144.489 40.56 145.449 41.28C146.425 41.984 147.193 42.952 147.753 44.184C148.329 45.416 148.617 46.976 148.617 48.864V66H142.089L142.137 60C141.849 61.76 141.113 63.248 139.929 64.464C138.745 65.68 136.985 66.288 134.649 66.288ZM136.665 61.656C137.481 61.656 138.273 61.512 139.041 61.224C139.825 60.92 140.497 60.504 141.057 59.976C141.633 59.448 141.993 58.84 142.137 58.152V53.712C141.497 53.808 140.801 53.92 140.049 54.048C139.297 54.176 138.641 54.304 138.081 54.432C136.385 54.784 135.193 55.272 134.505 55.896C133.833 56.504 133.497 57.36 133.497 58.464C133.497 59.12 133.625 59.688 133.881 60.168C134.153 60.648 134.529 61.016 135.009 61.272C135.505 61.528 136.057 61.656 136.665 61.656ZM160.715 66.312C158.571 66.312 156.747 65.744 155.243 64.608C153.755 63.456 152.627 61.864 151.859 59.832C151.091 57.8 150.707 55.448 150.707 52.776C150.707 49.88 151.171 47.432 152.099 45.432C153.027 43.432 154.275 41.912 155.843 40.872C157.411 39.832 159.155 39.312 161.075 39.312C162.579 39.312 163.819 39.568 164.795 40.08C165.771 40.576 166.523 41.208 167.051 41.976C167.579 42.744 167.923 43.504 168.083 44.256L169.331 45.648L167.771 47.52C167.627 47.008 167.363 46.552 166.979 46.152C166.611 45.736 166.107 45.408 165.467 45.168C164.843 44.928 164.059 44.808 163.115 44.808C161.371 44.808 159.979 45.456 158.939 46.752C157.899 48.048 157.379 50.096 157.379 52.896C157.379 55.488 157.867 57.472 158.843 58.848C159.819 60.208 161.163 60.888 162.875 60.888C163.851 60.888 164.683 60.736 165.371 60.432C166.075 60.112 166.627 59.744 167.027 59.328C167.443 58.896 167.691 58.512 167.771 58.176L168.059 58.728L167.771 59.976C167.627 60.712 167.395 61.456 167.075 62.208C166.755 62.96 166.323 63.648 165.779 64.272C165.235 64.88 164.547 65.376 163.715 65.76C162.899 66.128 161.899 66.312 160.715 66.312ZM167.795 66L167.771 28.656H174.371V66H167.795ZM178.119 66V39.816H183.951L184.575 49.992L184.095 48.504C184.239 47.272 184.479 46.104 184.815 45C185.167 43.896 185.639 42.912 186.231 42.048C186.839 41.184 187.583 40.504 188.463 40.008C189.359 39.512 190.407 39.264 191.607 39.264C191.927 39.264 192.247 39.28 192.567 39.312C192.903 39.344 193.199 39.4 193.455 39.48V46.44C192.911 46.28 192.359 46.176 191.799 46.128C191.255 46.064 190.727 46.032 190.215 46.032C189.463 46.032 188.727 46.136 188.007 46.344C187.287 46.536 186.647 46.84 186.087 47.256C185.527 47.656 185.087 48.16 184.767 48.768V66H178.119ZM201.196 66.288C199.66 66.288 198.276 66 197.044 65.424C195.828 64.848 194.868 64.016 194.164 62.928C193.476 61.84 193.132 60.552 193.132 59.064C193.132 57.496 193.436 56.208 194.044 55.2C194.652 54.176 195.5 53.368 196.588 52.776C197.676 52.168 198.932 51.72 200.356 51.432C201.348 51.224 202.372 51.056 203.428 50.928C204.5 50.784 205.5 50.672 206.428 50.592C207.356 50.512 208.108 50.448 208.684 50.4V49.512C208.684 47.8 208.372 46.56 207.748 45.792C207.124 45.008 206.052 44.616 204.532 44.616C203.556 44.616 202.732 44.744 202.06 45C201.404 45.256 200.908 45.72 200.572 46.392C200.236 47.064 200.068 48.032 200.068 49.296H193.876C193.7 47.008 194.044 45.128 194.908 43.656C195.788 42.184 197.076 41.096 198.772 40.392C200.484 39.672 202.492 39.312 204.796 39.312C206.156 39.312 207.452 39.464 208.684 39.768C209.932 40.056 211.036 40.56 211.996 41.28C212.972 41.984 213.74 42.952 214.3 44.184C214.876 45.416 215.164 46.976 215.164 48.864V66H208.636L208.684 60C208.396 61.76 207.66 63.248 206.476 64.464C205.292 65.68 203.532 66.288 201.196 66.288ZM203.212 61.656C204.028 61.656 204.82 61.512 205.588 61.224C206.372 60.92 207.044 60.504 207.604 59.976C208.18 59.448 208.54 58.84 208.684 58.152V53.712C208.044 53.808 207.348 53.92 206.596 54.048C205.844 54.176 205.188 54.304 204.628 54.432C202.932 54.784 201.74 55.272 201.052 55.896C200.38 56.504 200.044 57.36 200.044 58.464C200.044 59.12 200.172 59.688 200.428 60.168C200.7 60.648 201.076 61.016 201.556 61.272C202.052 61.528 202.604 61.656 203.212 61.656Z" fill="white"/>
<path d="M79.3725 139V119.518C79.3725 119.11 79.4518 118.781 79.6105 118.532C79.7805 118.283 80.0185 118.113 80.3245 118.022H73.0655V114.282H89.7425V118.022H83.4525V139H79.3725ZM95.3365 139.255C93.5459 139.255 91.9932 138.892 90.6785 138.167C89.3752 137.43 88.3722 136.348 87.6695 134.92C86.9669 133.492 86.6155 131.741 86.6155 129.667C86.6155 127.65 86.9839 125.927 87.7205 124.499C88.4685 123.06 89.4942 121.966 90.7975 121.218C92.1009 120.459 93.5969 120.079 95.2855 120.079C96.9515 120.079 98.3739 120.408 99.5525 121.065C100.743 121.722 101.649 122.697 102.273 123.989C102.896 125.27 103.208 126.845 103.208 128.715C103.208 129.078 103.196 129.378 103.174 129.616C103.162 129.854 103.145 130.137 103.123 130.466H90.6105C90.7125 132.359 91.1772 133.753 92.0045 134.648C92.8319 135.532 93.8462 135.974 95.0475 135.974C96.1695 135.974 97.0252 135.736 97.6145 135.26C98.2152 134.773 98.6005 134.229 98.7705 133.628H102.647C102.545 134.818 102.171 135.838 101.525 136.688C100.879 137.527 100.023 138.167 98.9575 138.609C97.9035 139.04 96.6965 139.255 95.3365 139.255ZM92.4465 127.729H99.2125C99.1785 126.369 98.8499 125.321 98.2265 124.584C97.6032 123.836 96.5775 123.462 95.1495 123.462C93.6649 123.462 92.5599 123.961 91.8345 124.958C91.1092 125.944 90.7012 127.31 90.6105 129.055C90.7012 128.545 90.8939 128.199 91.1885 128.018C91.4832 127.825 91.9025 127.729 92.4465 127.729ZM104.779 139V120.453H108.213L108.655 127.593L108.298 126.607C108.377 125.859 108.524 125.1 108.74 124.329C108.966 123.558 109.284 122.85 109.692 122.204C110.111 121.558 110.644 121.042 111.29 120.657C111.947 120.26 112.746 120.062 113.687 120.062C113.913 120.062 114.14 120.073 114.367 120.096C114.593 120.119 114.803 120.158 114.996 120.215V124.499C114.61 124.374 114.197 124.295 113.755 124.261C113.324 124.216 112.927 124.193 112.565 124.193C112.123 124.193 111.647 124.284 111.137 124.465C110.627 124.635 110.156 124.896 109.726 125.247C109.295 125.598 108.983 126.035 108.791 126.556V139H104.779ZM115.954 139V120.453H119.405L119.847 127.44L119.558 126.029C119.694 125.009 119.96 124.046 120.357 123.139C120.753 122.221 121.354 121.479 122.159 120.912C122.963 120.345 124.034 120.062 125.372 120.062C126.856 120.062 128.052 120.487 128.959 121.337C129.877 122.176 130.443 123.468 130.659 125.213L130.744 125.485V139H126.715V128.103C126.715 127.038 126.613 126.182 126.409 125.536C126.205 124.89 125.882 124.425 125.44 124.142C125.009 123.847 124.437 123.7 123.723 123.7C122.884 123.7 122.125 123.949 121.445 124.448C120.765 124.935 120.277 125.491 119.983 126.114V139H115.954ZM137.476 139V128.103C137.476 127.038 137.374 126.182 137.17 125.536C136.966 124.89 136.643 124.425 136.201 124.142C135.77 123.847 135.198 123.7 134.484 123.7C133.645 123.7 132.886 123.949 132.206 124.448C131.526 124.935 131.038 125.491 130.744 126.114L130.71 127.44L130.438 126.335C130.551 125.326 130.795 124.346 131.169 123.394C131.554 122.431 132.143 121.637 132.937 121.014C133.73 120.379 134.795 120.062 136.133 120.062C137.81 120.062 139.125 120.612 140.077 121.711C141.029 122.799 141.505 124.465 141.505 126.709V139H137.476ZM150.434 139.289C149.04 139.289 147.793 139.085 146.694 138.677C145.606 138.269 144.739 137.64 144.093 136.79C143.458 135.929 143.107 134.829 143.039 133.492H146.915C147.062 134.444 147.442 135.118 148.054 135.515C148.677 135.912 149.442 136.11 150.349 136.11C151.006 136.11 151.59 136.048 152.1 135.923C152.621 135.787 153.029 135.566 153.324 135.26C153.63 134.943 153.783 134.518 153.783 133.985C153.783 133.611 153.698 133.305 153.528 133.067C153.369 132.818 153.12 132.602 152.78 132.421C152.451 132.24 152.032 132.07 151.522 131.911C151.023 131.752 150.445 131.577 149.788 131.384C148.609 131.044 147.538 130.642 146.575 130.177C145.611 129.712 144.846 129.106 144.28 128.358C143.713 127.599 143.43 126.613 143.43 125.4C143.43 123.745 144.042 122.453 145.266 121.524C146.49 120.583 148.065 120.113 149.992 120.113C151.238 120.113 152.36 120.294 153.358 120.657C154.366 121.008 155.194 121.598 155.84 122.425C156.486 123.241 156.905 124.352 157.098 125.757L153.222 125.74C153.052 125.083 152.802 124.578 152.474 124.227C152.145 123.864 151.765 123.615 151.335 123.479C150.915 123.332 150.456 123.258 149.958 123.258C149.414 123.258 148.943 123.343 148.547 123.513C148.15 123.683 147.844 123.921 147.629 124.227C147.413 124.533 147.306 124.901 147.306 125.332C147.306 125.831 147.447 126.25 147.731 126.59C148.025 126.919 148.462 127.208 149.04 127.457C149.629 127.695 150.36 127.944 151.233 128.205C151.935 128.409 152.661 128.636 153.409 128.885C154.157 129.123 154.854 129.429 155.5 129.803C156.146 130.177 156.667 130.676 157.064 131.299C157.46 131.911 157.659 132.71 157.659 133.696C157.659 135.453 156.996 136.824 155.67 137.81C154.355 138.796 152.61 139.289 150.434 139.289ZM170.881 139.255C169.169 139.255 167.679 138.887 166.41 138.15C165.14 137.413 164.154 136.331 163.452 134.903C162.749 133.464 162.398 131.701 162.398 129.616C162.398 127.644 162.766 125.944 163.503 124.516C164.251 123.088 165.271 121.994 166.563 121.235C167.855 120.464 169.317 120.079 170.949 120.079C172.717 120.079 174.23 120.464 175.488 121.235C176.757 121.994 177.732 123.088 178.412 124.516C179.092 125.944 179.432 127.644 179.432 129.616C179.432 131.701 179.052 133.464 178.293 134.903C177.545 136.331 176.525 137.413 175.233 138.15C173.941 138.887 172.49 139.255 170.881 139.255ZM170.949 135.838C172.252 135.838 173.317 135.351 174.145 134.376C174.972 133.401 175.386 131.815 175.386 129.616C175.386 127.576 174.983 126.046 174.179 125.026C173.374 124.006 172.275 123.496 170.881 123.496C169.577 123.496 168.512 124 167.685 125.009C166.869 126.018 166.461 127.553 166.461 129.616C166.461 131.713 166.874 133.277 167.702 134.308C168.54 135.328 169.623 135.838 170.949 135.838ZM182.132 139V125.553C182.132 125.156 182.212 124.811 182.37 124.516C182.529 124.221 182.75 124.029 183.033 123.938L182.132 121.201V118.243C182.132 116.792 182.421 115.591 182.999 114.639C183.577 113.676 184.348 112.962 185.311 112.497C186.286 112.021 187.357 111.783 188.524 111.783C189.102 111.783 189.578 111.8 189.952 111.834C190.326 111.868 190.661 111.902 190.955 111.936L190.938 115.727C190.689 115.636 190.383 115.557 190.02 115.489C189.669 115.421 189.233 115.387 188.711 115.387C188.122 115.387 187.629 115.483 187.232 115.676C186.847 115.869 186.558 116.209 186.365 116.696C186.184 117.183 186.093 117.869 186.093 118.753V139H182.132ZM179.378 123.938V120.453H190.275V123.938H179.378ZM204.678 139.34C202.854 139.34 201.25 138.977 199.867 138.252C198.496 137.515 197.431 136.41 196.671 134.937C195.912 133.464 195.532 131.616 195.532 129.395V114.282H199.646V129.344C199.646 130.523 199.765 131.514 200.003 132.319C200.253 133.124 200.598 133.775 201.04 134.274C201.494 134.761 202.026 135.113 202.638 135.328C203.262 135.543 203.947 135.651 204.695 135.651C205.387 135.651 206.021 135.543 206.599 135.328C207.189 135.113 207.699 134.761 208.129 134.274C208.571 133.787 208.911 133.141 209.149 132.336C209.399 131.52 209.523 130.523 209.523 129.344V114.282H213.62V129.395C213.62 131.616 213.235 133.464 212.464 134.937C211.705 136.41 210.651 137.515 209.302 138.252C207.954 138.977 206.412 139.34 204.678 139.34ZM222.696 139.289C221.302 139.289 220.055 139.085 218.956 138.677C217.868 138.269 217.001 137.64 216.355 136.79C215.72 135.929 215.369 134.829 215.301 133.492H219.177C219.324 134.444 219.704 135.118 220.316 135.515C220.939 135.912 221.704 136.11 222.611 136.11C223.268 136.11 223.852 136.048 224.362 135.923C224.883 135.787 225.291 135.566 225.586 135.26C225.892 134.943 226.045 134.518 226.045 133.985C226.045 133.611 225.96 133.305 225.79 133.067C225.631 132.818 225.382 132.602 225.042 132.421C224.713 132.24 224.294 132.07 223.784 131.911C223.285 131.752 222.707 131.577 222.05 131.384C220.871 131.044 219.8 130.642 218.837 130.177C217.873 129.712 217.108 129.106 216.542 128.358C215.975 127.599 215.692 126.613 215.692 125.4C215.692 123.745 216.304 122.453 217.528 121.524C218.752 120.583 220.327 120.113 222.254 120.113C223.5 120.113 224.622 120.294 225.62 120.657C226.628 121.008 227.456 121.598 228.102 122.425C228.748 123.241 229.167 124.352 229.36 125.757L225.484 125.74C225.314 125.083 225.064 124.578 224.736 124.227C224.407 123.864 224.027 123.615 223.597 123.479C223.177 123.332 222.718 123.258 222.22 123.258C221.676 123.258 221.205 123.343 220.809 123.513C220.412 123.683 220.106 123.921 219.891 124.227C219.675 124.533 219.568 124.901 219.568 125.332C219.568 125.831 219.709 126.25 219.993 126.59C220.287 126.919 220.724 127.208 221.302 127.457C221.891 127.695 222.622 127.944 223.495 128.205C224.197 128.409 224.923 128.636 225.671 128.885C226.419 129.123 227.116 129.429 227.762 129.803C228.408 130.177 228.929 130.676 229.326 131.299C229.722 131.911 229.921 132.71 229.921 133.696C229.921 135.453 229.258 136.824 227.932 137.81C226.617 138.796 224.872 139.289 222.696 139.289ZM239.226 139.255C237.435 139.255 235.882 138.892 234.568 138.167C233.264 137.43 232.261 136.348 231.559 134.92C230.856 133.492 230.505 131.741 230.505 129.667C230.505 127.65 230.873 125.927 231.61 124.499C232.358 123.06 233.383 121.966 234.687 121.218C235.99 120.459 237.486 120.079 239.175 120.079C240.841 120.079 242.263 120.408 243.442 121.065C244.632 121.722 245.538 122.697 246.162 123.989C246.785 125.27 247.097 126.845 247.097 128.715C247.097 129.078 247.085 129.378 247.063 129.616C247.051 129.854 247.034 130.137 247.012 130.466H234.5C234.602 132.359 235.066 133.753 235.894 134.648C236.721 135.532 237.735 135.974 238.937 135.974C240.059 135.974 240.914 135.736 241.504 135.26C242.104 134.773 242.49 134.229 242.66 133.628H246.536C246.434 134.818 246.06 135.838 245.414 136.688C244.768 137.527 243.912 138.167 242.847 138.609C241.793 139.04 240.586 139.255 239.226 139.255ZM236.336 127.729H243.102C243.068 126.369 242.739 125.321 242.116 124.584C241.492 123.836 240.467 123.462 239.039 123.462C237.554 123.462 236.449 123.961 235.724 124.958C234.998 125.944 234.59 127.31 234.5 129.055C234.59 128.545 234.783 128.199 235.078 128.018C235.372 127.825 235.792 127.729 236.336 127.729Z" fill="#302828"/>
</svg>
