<svg width="319" height="163" viewBox="0 0 319 163" fill="none" xmlns="http://www.w3.org/2000/svg">
<rect width="319" height="163" fill="#A7A7A7"/>
<rect y="-11" width="319" height="208" fill="#302828"/>
<rect y="84" width="319" height="113" fill="white"/>
<path d="M185.754 32.9911C182.642 33.1265 176.799 35.804 176.712 34.582C176.625 33.36 182.568 27.0479 185.679 26.9126C188.791 26.7773 194.463 33.2004 194.55 34.4224C194.637 35.6444 188.865 32.8558 185.754 32.9911Z" fill="#CD4E5E"/>
<rect x="128" y="30.9048" width="20" height="4.54365" fill="#F19723"/>
<path d="M102.384 66V39.816H108.216L108.84 49.68L108.504 47.688C108.696 46.248 109.072 44.888 109.632 43.608C110.192 42.312 111.032 41.264 112.152 40.464C113.288 39.664 114.784 39.264 116.64 39.264C119.072 39.264 120.992 40.04 122.4 41.592C123.808 43.128 124.512 45.48 124.512 48.648V66H117.888V51.048C117.888 49.464 117.736 48.232 117.432 47.352C117.144 46.456 116.704 45.824 116.112 45.456C115.536 45.088 114.8 44.904 113.904 44.904C112.816 44.904 111.832 45.24 110.952 45.912C110.088 46.584 109.448 47.36 109.032 48.24V66H102.384ZM134.649 66.288C133.113 66.288 131.729 66 130.497 65.424C129.281 64.848 128.321 64.016 127.617 62.928C126.929 61.84 126.585 60.552 126.585 59.064C126.585 57.496 126.889 56.208 127.497 55.2C128.105 54.176 128.953 53.368 130.041 52.776C131.129 52.168 132.385 51.72 133.809 51.432C134.801 51.224 135.825 51.056 136.881 50.928C137.953 50.784 138.953 50.672 139.881 50.592C140.809 50.512 141.561 50.448 142.137 50.4V49.512C142.137 47.8 141.825 46.56 141.201 45.792C140.577 45.008 139.505 44.616 137.985 44.616C137.009 44.616 136.185 44.744 135.513 45C134.857 45.256 134.361 45.72 134.025 46.392C133.689 47.064 133.521 48.032 133.521 49.296H127.329C127.153 47.008 127.497 45.128 128.361 43.656C129.241 42.184 130.529 41.096 132.225 40.392C133.937 39.672 135.945 39.312 138.249 39.312C139.609 39.312 140.905 39.464 142.137 39.768C143.385 40.056 144.489 40.56 145.449 41.28C146.425 41.984 147.193 42.952 147.753 44.184C148.329 45.416 148.617 46.976 148.617 48.864V66H142.089L142.137 60C141.849 61.76 141.113 63.248 139.929 64.464C138.745 65.68 136.985 66.288 134.649 66.288ZM136.665 61.656C137.481 61.656 138.273 61.512 139.041 61.224C139.825 60.92 140.497 60.504 141.057 59.976C141.633 59.448 141.993 58.84 142.137 58.152V53.712C141.497 53.808 140.801 53.92 140.049 54.048C139.297 54.176 138.641 54.304 138.081 54.432C136.385 54.784 135.193 55.272 134.505 55.896C133.833 56.504 133.497 57.36 133.497 58.464C133.497 59.12 133.625 59.688 133.881 60.168C134.153 60.648 134.529 61.016 135.009 61.272C135.505 61.528 136.057 61.656 136.665 61.656ZM160.715 66.312C158.571 66.312 156.747 65.744 155.243 64.608C153.755 63.456 152.627 61.864 151.859 59.832C151.091 57.8 150.707 55.448 150.707 52.776C150.707 49.88 151.171 47.432 152.099 45.432C153.027 43.432 154.275 41.912 155.843 40.872C157.411 39.832 159.155 39.312 161.075 39.312C162.579 39.312 163.819 39.568 164.795 40.08C165.771 40.576 166.523 41.208 167.051 41.976C167.579 42.744 167.923 43.504 168.083 44.256L169.331 45.648L167.771 47.52C167.627 47.008 167.363 46.552 166.979 46.152C166.611 45.736 166.107 45.408 165.467 45.168C164.843 44.928 164.059 44.808 163.115 44.808C161.371 44.808 159.979 45.456 158.939 46.752C157.899 48.048 157.379 50.096 157.379 52.896C157.379 55.488 157.867 57.472 158.843 58.848C159.819 60.208 161.163 60.888 162.875 60.888C163.851 60.888 164.683 60.736 165.371 60.432C166.075 60.112 166.627 59.744 167.027 59.328C167.443 58.896 167.691 58.512 167.771 58.176L168.059 58.728L167.771 59.976C167.627 60.712 167.395 61.456 167.075 62.208C166.755 62.96 166.323 63.648 165.779 64.272C165.235 64.88 164.547 65.376 163.715 65.76C162.899 66.128 161.899 66.312 160.715 66.312ZM167.795 66L167.771 28.656H174.371V66H167.795ZM178.119 66V39.816H183.951L184.575 49.992L184.095 48.504C184.239 47.272 184.479 46.104 184.815 45C185.167 43.896 185.639 42.912 186.231 42.048C186.839 41.184 187.583 40.504 188.463 40.008C189.359 39.512 190.407 39.264 191.607 39.264C191.927 39.264 192.247 39.28 192.567 39.312C192.903 39.344 193.199 39.4 193.455 39.48V46.44C192.911 46.28 192.359 46.176 191.799 46.128C191.255 46.064 190.727 46.032 190.215 46.032C189.463 46.032 188.727 46.136 188.007 46.344C187.287 46.536 186.647 46.84 186.087 47.256C185.527 47.656 185.087 48.16 184.767 48.768V66H178.119ZM201.196 66.288C199.66 66.288 198.276 66 197.044 65.424C195.828 64.848 194.868 64.016 194.164 62.928C193.476 61.84 193.132 60.552 193.132 59.064C193.132 57.496 193.436 56.208 194.044 55.2C194.652 54.176 195.5 53.368 196.588 52.776C197.676 52.168 198.932 51.72 200.356 51.432C201.348 51.224 202.372 51.056 203.428 50.928C204.5 50.784 205.5 50.672 206.428 50.592C207.356 50.512 208.108 50.448 208.684 50.4V49.512C208.684 47.8 208.372 46.56 207.748 45.792C207.124 45.008 206.052 44.616 204.532 44.616C203.556 44.616 202.732 44.744 202.06 45C201.404 45.256 200.908 45.72 200.572 46.392C200.236 47.064 200.068 48.032 200.068 49.296H193.876C193.7 47.008 194.044 45.128 194.908 43.656C195.788 42.184 197.076 41.096 198.772 40.392C200.484 39.672 202.492 39.312 204.796 39.312C206.156 39.312 207.452 39.464 208.684 39.768C209.932 40.056 211.036 40.56 211.996 41.28C212.972 41.984 213.74 42.952 214.3 44.184C214.876 45.416 215.164 46.976 215.164 48.864V66H208.636L208.684 60C208.396 61.76 207.66 63.248 206.476 64.464C205.292 65.68 203.532 66.288 201.196 66.288ZM203.212 61.656C204.028 61.656 204.82 61.512 205.588 61.224C206.372 60.92 207.044 60.504 207.604 59.976C208.18 59.448 208.54 58.84 208.684 58.152V53.712C208.044 53.808 207.348 53.92 206.596 54.048C205.844 54.176 205.188 54.304 204.628 54.432C202.932 54.784 201.74 55.272 201.052 55.896C200.38 56.504 200.044 57.36 200.044 58.464C200.044 59.12 200.172 59.688 200.428 60.168C200.7 60.648 201.076 61.016 201.556 61.272C202.052 61.528 202.604 61.656 203.212 61.656Z" fill="white"/>
<path d="M88.858 133V115.81C88.858 115.45 88.928 115.16 89.068 114.94C89.218 114.72 89.428 114.57 89.698 114.49H83.293V111.19H98.008V114.49H92.458V133H88.858ZM102.944 133.225C101.364 133.225 99.994 132.905 98.834 132.265C97.684 131.615 96.799 130.66 96.179 129.4C95.559 128.14 95.249 126.595 95.249 124.765C95.249 122.985 95.574 121.465 96.224 120.205C96.884 118.935 97.789 117.97 98.939 117.31C100.089 116.64 101.409 116.305 102.899 116.305C104.369 116.305 105.624 116.595 106.664 117.175C107.714 117.755 108.514 118.615 109.064 119.755C109.614 120.885 109.889 122.275 109.889 123.925C109.889 124.245 109.879 124.51 109.859 124.72C109.849 124.93 109.834 125.18 109.814 125.47H98.774C98.864 127.14 99.274 128.37 100.004 129.16C100.734 129.94 101.629 130.33 102.689 130.33C103.679 130.33 104.434 130.12 104.954 129.7C105.484 129.27 105.824 128.79 105.974 128.26H109.394C109.304 129.31 108.974 130.21 108.404 130.96C107.834 131.7 107.079 132.265 106.139 132.655C105.209 133.035 104.144 133.225 102.944 133.225ZM100.394 123.055H106.364C106.334 121.855 106.044 120.93 105.494 120.28C104.944 119.62 104.039 119.29 102.779 119.29C101.469 119.29 100.494 119.73 99.854 120.61C99.214 121.48 98.854 122.685 98.774 124.225C98.854 123.775 99.024 123.47 99.284 123.31C99.544 123.14 99.914 123.055 100.394 123.055ZM111.275 133V116.635H114.305L114.695 122.935L114.38 122.065C114.45 121.405 114.58 120.735 114.77 120.055C114.97 119.375 115.25 118.75 115.61 118.18C115.98 117.61 116.45 117.155 117.02 116.815C117.6 116.465 118.305 116.29 119.135 116.29C119.335 116.29 119.535 116.3 119.735 116.32C119.935 116.34 120.12 116.375 120.29 116.425V120.205C119.95 120.095 119.585 120.025 119.195 119.995C118.815 119.955 118.465 119.935 118.145 119.935C117.755 119.935 117.335 120.015 116.885 120.175C116.435 120.325 116.02 120.555 115.64 120.865C115.26 121.175 114.985 121.56 114.815 122.02V133H111.275ZM121.135 133V116.635H124.18L124.57 122.8L124.315 121.555C124.435 120.655 124.67 119.805 125.02 119.005C125.37 118.195 125.9 117.54 126.61 117.04C127.32 116.54 128.265 116.29 129.445 116.29C130.755 116.29 131.81 116.665 132.61 117.415C133.42 118.155 133.92 119.295 134.11 120.835L134.185 121.075V133H130.63V123.385C130.63 122.445 130.54 121.69 130.36 121.12C130.18 120.55 129.895 120.14 129.505 119.89C129.125 119.63 128.62 119.5 127.99 119.5C127.25 119.5 126.58 119.72 125.98 120.16C125.38 120.59 124.95 121.08 124.69 121.63V133H121.135ZM140.125 133V123.385C140.125 122.445 140.035 121.69 139.855 121.12C139.675 120.55 139.39 120.14 139 119.89C138.62 119.63 138.115 119.5 137.485 119.5C136.745 119.5 136.075 119.72 135.475 120.16C134.875 120.59 134.445 121.08 134.185 121.63L134.155 122.8L133.915 121.825C134.015 120.935 134.23 120.07 134.56 119.23C134.9 118.38 135.42 117.68 136.12 117.13C136.82 116.57 137.76 116.29 138.94 116.29C140.42 116.29 141.58 116.775 142.42 117.745C143.26 118.705 143.68 120.175 143.68 122.155V133H140.125ZM151.559 133.255C150.329 133.255 149.229 133.075 148.259 132.715C147.299 132.355 146.534 131.8 145.964 131.05C145.404 130.29 145.094 129.32 145.034 128.14H148.454C148.584 128.98 148.919 129.575 149.459 129.925C150.009 130.275 150.684 130.45 151.484 130.45C152.064 130.45 152.579 130.395 153.029 130.285C153.489 130.165 153.849 129.97 154.109 129.7C154.379 129.42 154.514 129.045 154.514 128.575C154.514 128.245 154.439 127.975 154.289 127.765C154.149 127.545 153.929 127.355 153.629 127.195C153.339 127.035 152.969 126.885 152.519 126.745C152.079 126.605 151.569 126.45 150.989 126.28C149.949 125.98 149.004 125.625 148.154 125.215C147.304 124.805 146.629 124.27 146.129 123.61C145.629 122.94 145.379 122.07 145.379 121C145.379 119.54 145.919 118.4 146.999 117.58C148.079 116.75 149.469 116.335 151.169 116.335C152.269 116.335 153.259 116.495 154.139 116.815C155.029 117.125 155.759 117.645 156.329 118.375C156.899 119.095 157.269 120.075 157.439 121.315L154.019 121.3C153.869 120.72 153.649 120.275 153.359 119.965C153.069 119.645 152.734 119.425 152.354 119.305C151.984 119.175 151.579 119.11 151.139 119.11C150.659 119.11 150.244 119.185 149.894 119.335C149.544 119.485 149.274 119.695 149.084 119.965C148.894 120.235 148.799 120.56 148.799 120.94C148.799 121.38 148.924 121.75 149.174 122.05C149.434 122.34 149.819 122.595 150.329 122.815C150.849 123.025 151.494 123.245 152.264 123.475C152.884 123.655 153.524 123.855 154.184 124.075C154.844 124.285 155.459 124.555 156.029 124.885C156.599 125.215 157.059 125.655 157.409 126.205C157.759 126.745 157.934 127.45 157.934 128.32C157.934 129.87 157.349 131.08 156.179 131.95C155.019 132.82 153.479 133.255 151.559 133.255ZM169.601 133.225C168.091 133.225 166.776 132.9 165.656 132.25C164.536 131.6 163.666 130.645 163.046 129.385C162.426 128.115 162.116 126.56 162.116 124.72C162.116 122.98 162.441 121.48 163.091 120.22C163.751 118.96 164.651 117.995 165.791 117.325C166.931 116.645 168.221 116.305 169.661 116.305C171.221 116.305 172.556 116.645 173.666 117.325C174.786 117.995 175.646 118.96 176.246 120.22C176.846 121.48 177.146 122.98 177.146 124.72C177.146 126.56 176.811 128.115 176.141 129.385C175.481 130.645 174.581 131.6 173.441 132.25C172.301 132.9 171.021 133.225 169.601 133.225ZM169.661 130.21C170.811 130.21 171.751 129.78 172.481 128.92C173.211 128.06 173.576 126.66 173.576 124.72C173.576 122.92 173.221 121.57 172.511 120.67C171.801 119.77 170.831 119.32 169.601 119.32C168.451 119.32 167.511 119.765 166.781 120.655C166.061 121.545 165.701 122.9 165.701 124.72C165.701 126.57 166.066 127.95 166.796 128.86C167.536 129.76 168.491 130.21 169.661 130.21ZM179.529 133V121.135C179.529 120.785 179.599 120.48 179.739 120.22C179.879 119.96 180.074 119.79 180.324 119.71L179.529 117.295V114.685C179.529 113.405 179.784 112.345 180.294 111.505C180.804 110.655 181.484 110.025 182.334 109.615C183.194 109.195 184.139 108.985 185.169 108.985C185.679 108.985 186.099 109 186.429 109.03C186.759 109.06 187.054 109.09 187.314 109.12L187.299 112.465C187.079 112.385 186.809 112.315 186.489 112.255C186.179 112.195 185.794 112.165 185.334 112.165C184.814 112.165 184.379 112.25 184.029 112.42C183.689 112.59 183.434 112.89 183.264 113.32C183.104 113.75 183.024 114.355 183.024 115.135V133H179.529ZM177.099 119.71V116.635H186.714V119.71H177.099ZM199.422 133.3C197.812 133.3 196.397 132.98 195.177 132.34C193.967 131.69 193.027 130.715 192.357 129.415C191.687 128.115 191.352 126.485 191.352 124.525V111.19H194.982V124.48C194.982 125.52 195.087 126.395 195.297 127.105C195.517 127.815 195.822 128.39 196.212 128.83C196.612 129.26 197.082 129.57 197.622 129.76C198.172 129.95 198.777 130.045 199.437 130.045C200.047 130.045 200.607 129.95 201.117 129.76C201.637 129.57 202.087 129.26 202.467 128.83C202.857 128.4 203.157 127.83 203.367 127.12C203.587 126.4 203.697 125.52 203.697 124.48V111.19H207.312V124.525C207.312 126.485 206.972 128.115 206.292 129.415C205.622 130.715 204.692 131.69 203.502 132.34C202.312 132.98 200.952 133.3 199.422 133.3ZM215.32 133.255C214.09 133.255 212.99 133.075 212.02 132.715C211.06 132.355 210.295 131.8 209.725 131.05C209.165 130.29 208.855 129.32 208.795 128.14H212.215C212.345 128.98 212.68 129.575 213.22 129.925C213.77 130.275 214.445 130.45 215.245 130.45C215.825 130.45 216.34 130.395 216.79 130.285C217.25 130.165 217.61 129.97 217.87 129.7C218.14 129.42 218.275 129.045 218.275 128.575C218.275 128.245 218.2 127.975 218.05 127.765C217.91 127.545 217.69 127.355 217.39 127.195C217.1 127.035 216.73 126.885 216.28 126.745C215.84 126.605 215.33 126.45 214.75 126.28C213.71 125.98 212.765 125.625 211.915 125.215C211.065 124.805 210.39 124.27 209.89 123.61C209.39 122.94 209.14 122.07 209.14 121C209.14 119.54 209.68 118.4 210.76 117.58C211.84 116.75 213.23 116.335 214.93 116.335C216.03 116.335 217.02 116.495 217.9 116.815C218.79 117.125 219.52 117.645 220.09 118.375C220.66 119.095 221.03 120.075 221.2 121.315L217.78 121.3C217.63 120.72 217.41 120.275 217.12 119.965C216.83 119.645 216.495 119.425 216.115 119.305C215.745 119.175 215.34 119.11 214.9 119.11C214.42 119.11 214.005 119.185 213.655 119.335C213.305 119.485 213.035 119.695 212.845 119.965C212.655 120.235 212.56 120.56 212.56 120.94C212.56 121.38 212.685 121.75 212.935 122.05C213.195 122.34 213.58 122.595 214.09 122.815C214.61 123.025 215.255 123.245 216.025 123.475C216.645 123.655 217.285 123.855 217.945 124.075C218.605 124.285 219.22 124.555 219.79 124.885C220.36 125.215 220.82 125.655 221.17 126.205C221.52 126.745 221.695 127.45 221.695 128.32C221.695 129.87 221.11 131.08 219.94 131.95C218.78 132.82 217.24 133.255 215.32 133.255ZM229.905 133.225C228.325 133.225 226.955 132.905 225.795 132.265C224.645 131.615 223.76 130.66 223.14 129.4C222.52 128.14 222.21 126.595 222.21 124.765C222.21 122.985 222.535 121.465 223.185 120.205C223.845 118.935 224.75 117.97 225.9 117.31C227.05 116.64 228.37 116.305 229.86 116.305C231.33 116.305 232.585 116.595 233.625 117.175C234.675 117.755 235.475 118.615 236.025 119.755C236.575 120.885 236.85 122.275 236.85 123.925C236.85 124.245 236.84 124.51 236.82 124.72C236.81 124.93 236.795 125.18 236.775 125.47H225.735C225.825 127.14 226.235 128.37 226.965 129.16C227.695 129.94 228.59 130.33 229.65 130.33C230.64 130.33 231.395 130.12 231.915 129.7C232.445 129.27 232.785 128.79 232.935 128.26H236.355C236.265 129.31 235.935 130.21 235.365 130.96C234.795 131.7 234.04 132.265 233.1 132.655C232.17 133.035 231.105 133.225 229.905 133.225ZM227.355 123.055H233.325C233.295 121.855 233.005 120.93 232.455 120.28C231.905 119.62 231 119.29 229.74 119.29C228.43 119.29 227.455 119.73 226.815 120.61C226.175 121.48 225.815 122.685 225.735 124.225C225.815 123.775 225.985 123.47 226.245 123.31C226.505 123.14 226.875 123.055 227.355 123.055Z" fill="#302828"/>
</svg>
