<svg width="263" height="161" viewBox="0 0 263 161" fill="none" xmlns="http://www.w3.org/2000/svg">
<g clip-path="url(#clip0_837_231)">
<rect width="309" height="229" transform="translate(-24 -62)" fill="#7343BE"/>
<path d="M150.754 39.9911C147.642 40.1265 141.799 42.804 141.712 41.582C141.625 40.36 147.568 34.0479 150.679 33.9126C153.791 33.7773 159.463 40.2004 159.55 41.4224C159.637 42.6444 153.865 39.8558 150.754 39.9911Z" fill="#CD4E5E"/>
<rect x="93" y="37.9048" width="20" height="4.54365" fill="#F19723"/>
<path d="M67.384 73V46.816H73.216L73.84 56.68L73.504 54.688C73.696 53.248 74.072 51.888 74.632 50.608C75.192 49.312 76.032 48.264 77.152 47.464C78.288 46.664 79.784 46.264 81.64 46.264C84.072 46.264 85.992 47.04 87.4 48.592C88.808 50.128 89.512 52.48 89.512 55.648V73H82.888V58.048C82.888 56.464 82.736 55.232 82.432 54.352C82.144 53.456 81.704 52.824 81.112 52.456C80.536 52.088 79.8 51.904 78.904 51.904C77.816 51.904 76.832 52.24 75.952 52.912C75.088 53.584 74.448 54.36 74.032 55.24V73H67.384ZM99.6486 73.288C98.1126 73.288 96.7286 73 95.4966 72.424C94.2806 71.848 93.3206 71.016 92.6166 69.928C91.9286 68.84 91.5846 67.552 91.5846 66.064C91.5846 64.496 91.8886 63.208 92.4966 62.2C93.1046 61.176 93.9526 60.368 95.0406 59.776C96.1286 59.168 97.3846 58.72 98.8086 58.432C99.8006 58.224 100.825 58.056 101.881 57.928C102.953 57.784 103.953 57.672 104.881 57.592C105.809 57.512 106.561 57.448 107.137 57.4V56.512C107.137 54.8 106.825 53.56 106.201 52.792C105.577 52.008 104.505 51.616 102.985 51.616C102.009 51.616 101.185 51.744 100.513 52C99.8566 52.256 99.3606 52.72 99.0246 53.392C98.6886 54.064 98.5206 55.032 98.5206 56.296H92.3286C92.1526 54.008 92.4966 52.128 93.3606 50.656C94.2406 49.184 95.5286 48.096 97.2246 47.392C98.9366 46.672 100.945 46.312 103.249 46.312C104.609 46.312 105.905 46.464 107.137 46.768C108.385 47.056 109.489 47.56 110.449 48.28C111.425 48.984 112.193 49.952 112.753 51.184C113.329 52.416 113.617 53.976 113.617 55.864V73H107.089L107.137 67C106.849 68.76 106.113 70.248 104.929 71.464C103.745 72.68 101.985 73.288 99.6486 73.288ZM101.665 68.656C102.481 68.656 103.273 68.512 104.041 68.224C104.825 67.92 105.497 67.504 106.057 66.976C106.633 66.448 106.993 65.84 107.137 65.152V60.712C106.497 60.808 105.801 60.92 105.049 61.048C104.297 61.176 103.641 61.304 103.081 61.432C101.385 61.784 100.193 62.272 99.5046 62.896C98.8326 63.504 98.4966 64.36 98.4966 65.464C98.4966 66.12 98.6246 66.688 98.8806 67.168C99.1526 67.648 99.5286 68.016 100.009 68.272C100.505 68.528 101.057 68.656 101.665 68.656ZM125.715 73.312C123.571 73.312 121.747 72.744 120.243 71.608C118.755 70.456 117.627 68.864 116.859 66.832C116.091 64.8 115.707 62.448 115.707 59.776C115.707 56.88 116.171 54.432 117.099 52.432C118.027 50.432 119.275 48.912 120.843 47.872C122.411 46.832 124.155 46.312 126.075 46.312C127.579 46.312 128.819 46.568 129.795 47.08C130.771 47.576 131.523 48.208 132.051 48.976C132.579 49.744 132.923 50.504 133.083 51.256L134.331 52.648L132.771 54.52C132.627 54.008 132.363 53.552 131.979 53.152C131.611 52.736 131.107 52.408 130.467 52.168C129.843 51.928 129.059 51.808 128.115 51.808C126.371 51.808 124.979 52.456 123.939 53.752C122.899 55.048 122.379 57.096 122.379 59.896C122.379 62.488 122.867 64.472 123.843 65.848C124.819 67.208 126.163 67.888 127.875 67.888C128.851 67.888 129.683 67.736 130.371 67.432C131.075 67.112 131.627 66.744 132.027 66.328C132.443 65.896 132.691 65.512 132.771 65.176L133.059 65.728L132.771 66.976C132.627 67.712 132.395 68.456 132.075 69.208C131.755 69.96 131.323 70.648 130.779 71.272C130.235 71.88 129.547 72.376 128.715 72.76C127.899 73.128 126.899 73.312 125.715 73.312ZM132.795 73L132.771 35.656H139.371V73H132.795ZM143.119 73V46.816H148.951L149.575 56.992L149.095 55.504C149.239 54.272 149.479 53.104 149.815 52C150.167 50.896 150.639 49.912 151.231 49.048C151.839 48.184 152.583 47.504 153.463 47.008C154.359 46.512 155.407 46.264 156.607 46.264C156.927 46.264 157.247 46.28 157.567 46.312C157.903 46.344 158.199 46.4 158.455 46.48V53.44C157.911 53.28 157.359 53.176 156.799 53.128C156.255 53.064 155.727 53.032 155.215 53.032C154.463 53.032 153.727 53.136 153.007 53.344C152.287 53.536 151.647 53.84 151.087 54.256C150.527 54.656 150.087 55.16 149.767 55.768V73H143.119ZM166.196 73.288C164.66 73.288 163.276 73 162.044 72.424C160.828 71.848 159.868 71.016 159.164 69.928C158.476 68.84 158.132 67.552 158.132 66.064C158.132 64.496 158.436 63.208 159.044 62.2C159.652 61.176 160.5 60.368 161.588 59.776C162.676 59.168 163.932 58.72 165.356 58.432C166.348 58.224 167.372 58.056 168.428 57.928C169.5 57.784 170.5 57.672 171.428 57.592C172.356 57.512 173.108 57.448 173.684 57.4V56.512C173.684 54.8 173.372 53.56 172.748 52.792C172.124 52.008 171.052 51.616 169.532 51.616C168.556 51.616 167.732 51.744 167.06 52C166.404 52.256 165.908 52.72 165.572 53.392C165.236 54.064 165.068 55.032 165.068 56.296H158.876C158.7 54.008 159.044 52.128 159.908 50.656C160.788 49.184 162.076 48.096 163.772 47.392C165.484 46.672 167.492 46.312 169.796 46.312C171.156 46.312 172.452 46.464 173.684 46.768C174.932 47.056 176.036 47.56 176.996 48.28C177.972 48.984 178.74 49.952 179.3 51.184C179.876 52.416 180.164 53.976 180.164 55.864V73H173.636L173.684 67C173.396 68.76 172.66 70.248 171.476 71.464C170.292 72.68 168.532 73.288 166.196 73.288ZM168.212 68.656C169.028 68.656 169.82 68.512 170.588 68.224C171.372 67.92 172.044 67.504 172.604 66.976C173.18 66.448 173.54 65.84 173.684 65.152V60.712C173.044 60.808 172.348 60.92 171.596 61.048C170.844 61.176 170.188 61.304 169.628 61.432C167.932 61.784 166.74 62.272 166.052 62.896C165.38 63.504 165.044 64.36 165.044 65.464C165.044 66.12 165.172 66.688 165.428 67.168C165.7 67.648 166.076 68.016 166.556 68.272C167.052 68.528 167.604 68.656 168.212 68.656Z" fill="white"/>
<rect x="-24" y="86" width="319" height="122" fill="white"/>
<path d="M39.8123 124.072C39.4403 124.072 39.0683 123.94 38.6963 123.676C38.3243 123.412 38.1323 123.028 38.1203 122.524L36.9143 121.282L38.1743 120.274H42.7643C43.8203 120.274 44.6963 120.1 45.3923 119.752C46.1003 119.392 46.6283 118.846 46.9763 118.114C47.3363 117.382 47.5163 116.452 47.5163 115.324C47.5163 113.536 47.0663 112.324 46.1663 111.688C45.2783 111.04 44.0483 110.716 42.4763 110.716H38.0663L36.5183 106.828C37.0703 106.828 37.7243 106.828 38.4803 106.828C39.2483 106.828 39.9803 106.828 40.6763 106.828C41.3723 106.828 41.8943 106.828 42.2423 106.828C45.4463 106.828 47.8463 107.488 49.4423 108.808C51.0383 110.116 51.8363 112.252 51.8363 115.216C51.8363 116.344 51.6743 117.436 51.3503 118.492C51.0383 119.536 50.5223 120.478 49.8023 121.318C49.0823 122.158 48.1103 122.83 46.8863 123.334C45.6623 123.826 44.1503 124.072 42.3503 124.072H39.8123ZM33.9263 133V106.828H38.1743V133H33.9263ZM53.0496 133V113.362H56.6856L57.1536 120.922L56.7756 119.878C56.8596 119.086 57.0156 118.282 57.2436 117.466C57.4836 116.65 57.8196 115.9 58.2516 115.216C58.6956 114.532 59.2596 113.986 59.9436 113.578C60.6396 113.158 61.4856 112.948 62.4816 112.948C62.7216 112.948 62.9616 112.96 63.2016 112.984C63.4416 113.008 63.6636 113.05 63.8676 113.11V117.646C63.4596 117.514 63.0216 117.43 62.5536 117.394C62.0976 117.346 61.6776 117.322 61.2936 117.322C60.8256 117.322 60.3216 117.418 59.7816 117.61C59.2416 117.79 58.7436 118.066 58.2876 118.438C57.8316 118.81 57.5016 119.272 57.2976 119.824V133H53.0496ZM64.8826 133V113.362H69.1846L69.1306 133H64.8826ZM67.0606 110.446C66.2806 110.446 65.6206 110.176 65.0806 109.636C64.5406 109.084 64.2706 108.382 64.2706 107.53C64.2706 106.69 64.5406 106.006 65.0806 105.478C65.6206 104.95 66.2806 104.686 67.0606 104.686C67.8166 104.686 68.4646 104.95 69.0046 105.478C69.5566 106.006 69.8326 106.69 69.8326 107.53C69.8326 108.382 69.5566 109.084 69.0046 109.636C68.4646 110.176 67.8166 110.446 67.0606 110.446ZM76.9317 133L70.0917 113.362H74.9157L77.4357 122.47L79.1457 128.824H79.3077L81.0177 122.488L83.5377 113.362H88.3617L81.5217 133H76.9317ZM93.9858 133.216C92.7858 133.216 91.7238 132.994 90.7998 132.55C89.8758 132.094 89.1498 131.464 88.6218 130.66C88.1058 129.856 87.8478 128.926 87.8478 127.87C87.8478 126.706 88.0578 125.746 88.4778 124.99C88.8978 124.234 89.5038 123.634 90.2958 123.19C91.0998 122.734 92.0418 122.386 93.1218 122.146C93.8898 121.978 94.6998 121.84 95.5518 121.732C96.4158 121.624 97.2138 121.54 97.9458 121.48C98.6778 121.408 99.2418 121.36 99.6378 121.336V120.544C99.6378 119.212 99.3678 118.216 98.8278 117.556C98.2998 116.884 97.3998 116.548 96.1278 116.548C95.3118 116.548 94.6278 116.65 94.0758 116.854C93.5238 117.046 93.1038 117.418 92.8158 117.97C92.5398 118.51 92.3898 119.302 92.3658 120.346H88.4958C88.3638 118.654 88.6038 117.268 89.2158 116.188C89.8398 115.096 90.7638 114.292 91.9878 113.776C93.2238 113.248 94.6818 112.984 96.3618 112.984C97.3578 112.984 98.2938 113.098 99.1698 113.326C100.058 113.542 100.844 113.92 101.528 114.46C102.212 114.988 102.752 115.714 103.148 116.638C103.544 117.562 103.742 118.732 103.742 120.148V133H99.5838L99.6378 128.59C99.4098 129.922 98.8338 131.026 97.9098 131.902C96.9858 132.778 95.6778 133.216 93.9858 133.216ZM95.1198 130.012C95.7438 130.012 96.3738 129.904 97.0098 129.688C97.6578 129.472 98.2218 129.16 98.7018 128.752C99.1938 128.344 99.5058 127.864 99.6378 127.312V123.712C99.1578 123.76 98.5878 123.844 97.9278 123.964C97.2798 124.084 96.7218 124.192 96.2538 124.288C94.9098 124.564 93.9378 124.93 93.3378 125.386C92.7498 125.83 92.4558 126.514 92.4558 127.438C92.4558 127.966 92.5758 128.428 92.8158 128.824C93.0678 129.208 93.3978 129.502 93.8058 129.706C94.2138 129.91 94.6518 130.012 95.1198 130.012ZM114.786 133.342C112.842 133.342 111.174 132.916 109.782 132.064C108.39 131.2 107.322 130 106.578 128.464C105.846 126.928 105.48 125.146 105.48 123.118C105.48 120.982 105.858 119.158 106.614 117.646C107.37 116.134 108.42 114.982 109.764 114.19C111.108 113.386 112.656 112.984 114.408 112.984C116.148 112.984 117.606 113.308 118.782 113.956C119.97 114.592 120.858 115.45 121.446 116.53C122.034 117.598 122.304 118.792 122.256 120.112H118.17C118.158 119.584 118.074 119.104 117.918 118.672C117.762 118.228 117.528 117.856 117.216 117.556C116.916 117.244 116.532 117.004 116.064 116.836C115.596 116.668 115.05 116.584 114.426 116.584C112.746 116.572 111.552 117.148 110.844 118.312C110.148 119.476 109.8 121.048 109.8 123.028C109.8 125.284 110.22 126.97 111.06 128.086C111.912 129.19 113.238 129.748 115.038 129.76C115.458 129.76 115.914 129.64 116.406 129.4C116.91 129.148 117.336 128.794 117.684 128.338C118.044 127.87 118.218 127.312 118.206 126.664H122.256C122.304 128.044 121.974 129.232 121.266 130.228C120.57 131.224 119.646 131.992 118.494 132.532C117.342 133.072 116.106 133.342 114.786 133.342ZM123.666 140.758V136.798H125.214C126.078 136.798 126.744 136.72 127.212 136.564C127.692 136.408 128.046 136.174 128.274 135.862C128.514 135.55 128.688 135.172 128.796 134.728C128.928 134.2 129.072 133.804 129.228 133.54C129.396 133.288 129.594 133.108 129.822 133H128.418L122.01 113.362H126.726L128.976 122.326L130.794 128.824H130.956L132.594 122.344L134.844 113.362H139.524L133.206 133C132.822 134.188 132.408 135.262 131.964 136.222C131.52 137.182 131.004 137.998 130.416 138.67C129.828 139.342 129.108 139.858 128.256 140.218C127.416 140.578 126.402 140.758 125.214 140.758H123.666ZM150.923 124.072C150.551 124.072 150.179 123.94 149.807 123.676C149.435 123.412 149.243 123.028 149.231 122.524L148.025 121.282L149.285 120.274H153.875C154.931 120.274 155.807 120.1 156.503 119.752C157.211 119.392 157.739 118.846 158.087 118.114C158.447 117.382 158.627 116.452 158.627 115.324C158.627 113.536 158.177 112.324 157.277 111.688C156.389 111.04 155.159 110.716 153.587 110.716H149.177L147.629 106.828C148.181 106.828 148.835 106.828 149.591 106.828C150.359 106.828 151.091 106.828 151.787 106.828C152.483 106.828 153.005 106.828 153.353 106.828C156.557 106.828 158.957 107.488 160.553 108.808C162.149 110.116 162.947 112.252 162.947 115.216C162.947 116.344 162.785 117.436 162.461 118.492C162.149 119.536 161.633 120.478 160.913 121.318C160.193 122.158 159.221 122.83 157.997 123.334C156.773 123.826 155.261 124.072 153.461 124.072H150.923ZM145.037 133V106.828H149.285V133H145.037ZM171.845 133.27C170.033 133.27 168.455 132.88 167.111 132.1C165.767 131.32 164.723 130.174 163.979 128.662C163.235 127.138 162.863 125.272 162.863 123.064C162.863 120.976 163.253 119.176 164.033 117.664C164.825 116.152 165.905 114.994 167.273 114.19C168.641 113.374 170.189 112.966 171.917 112.966C173.789 112.966 175.391 113.374 176.723 114.19C178.067 114.994 179.099 116.152 179.819 117.664C180.539 119.176 180.899 120.976 180.899 123.064C180.899 125.272 180.497 127.138 179.693 128.662C178.901 130.174 177.821 131.32 176.453 132.1C175.085 132.88 173.549 133.27 171.845 133.27ZM171.917 129.652C173.297 129.652 174.425 129.136 175.301 128.104C176.177 127.072 176.615 125.392 176.615 123.064C176.615 120.904 176.189 119.284 175.337 118.204C174.485 117.124 173.321 116.584 171.845 116.584C170.465 116.584 169.337 117.118 168.461 118.186C167.597 119.254 167.165 120.88 167.165 123.064C167.165 125.284 167.603 126.94 168.479 128.032C169.367 129.112 170.513 129.652 171.917 129.652ZM182.778 133V104.992H187.026V133H182.778ZM190.251 133V113.362H194.553L194.499 133H190.251ZM192.429 110.446C191.649 110.446 190.989 110.176 190.449 109.636C189.909 109.084 189.639 108.382 189.639 107.53C189.639 106.69 189.909 106.006 190.449 105.478C190.989 104.95 191.649 104.686 192.429 104.686C193.185 104.686 193.833 104.95 194.373 105.478C194.925 106.006 195.201 106.69 195.201 107.53C195.201 108.382 194.925 109.084 194.373 109.636C193.833 110.176 193.185 110.446 192.429 110.446ZM205.732 133.342C203.788 133.342 202.12 132.916 200.728 132.064C199.336 131.2 198.268 130 197.524 128.464C196.792 126.928 196.426 125.146 196.426 123.118C196.426 120.982 196.804 119.158 197.56 117.646C198.316 116.134 199.366 114.982 200.71 114.19C202.054 113.386 203.602 112.984 205.354 112.984C207.094 112.984 208.552 113.308 209.728 113.956C210.916 114.592 211.804 115.45 212.392 116.53C212.98 117.598 213.25 118.792 213.202 120.112H209.116C209.104 119.584 209.02 119.104 208.864 118.672C208.708 118.228 208.474 117.856 208.162 117.556C207.862 117.244 207.478 117.004 207.01 116.836C206.542 116.668 205.996 116.584 205.372 116.584C203.692 116.572 202.498 117.148 201.79 118.312C201.094 119.476 200.746 121.048 200.746 123.028C200.746 125.284 201.166 126.97 202.006 128.086C202.858 129.19 204.184 129.748 205.984 129.76C206.404 129.76 206.86 129.64 207.352 129.4C207.856 129.148 208.282 128.794 208.63 128.338C208.99 127.87 209.164 127.312 209.152 126.664H213.202C213.25 128.044 212.92 129.232 212.212 130.228C211.516 131.224 210.592 131.992 209.44 132.532C208.288 133.072 207.052 133.342 205.732 133.342ZM214.612 140.758V136.798H216.16C217.024 136.798 217.69 136.72 218.158 136.564C218.638 136.408 218.992 136.174 219.22 135.862C219.46 135.55 219.634 135.172 219.742 134.728C219.874 134.2 220.018 133.804 220.174 133.54C220.342 133.288 220.54 133.108 220.768 133H219.364L212.956 113.362H217.672L219.922 122.326L221.74 128.824H221.902L223.54 122.344L225.79 113.362H230.47L224.152 133C223.768 134.188 223.354 135.262 222.91 136.222C222.466 137.182 221.95 137.998 221.362 138.67C220.774 139.342 220.054 139.858 219.202 140.218C218.362 140.578 217.348 140.758 216.16 140.758H214.612Z" fill="#7343BE"/>
</g>
<defs>
<clipPath id="clip0_837_231">
<rect width="309" height="229" fill="white" transform="translate(-24 -62)"/>
</clipPath>
</defs>
</svg>
