<svg width="275" height="152" viewBox="0 0 275 152" fill="none" xmlns="http://www.w3.org/2000/svg">
<g clip-path="url(#clip0_837_231)">
<rect width="309" height="229" transform="translate(-17 -71)" fill="#553448"/>
<path d="M157.754 30.9911C154.642 31.1265 148.799 33.804 148.712 32.582C148.625 31.36 154.568 25.0479 157.679 24.9126C160.791 24.7773 166.463 31.2004 166.55 32.4224C166.637 33.6444 160.865 30.8558 157.754 30.9911Z" fill="#CD4E5E"/>
<rect x="100" y="28.9048" width="20" height="4.54365" fill="#F19723"/>
<path d="M74.384 64V37.816H80.216L80.84 47.68L80.504 45.688C80.696 44.248 81.072 42.888 81.632 41.608C82.192 40.312 83.032 39.264 84.152 38.464C85.288 37.664 86.784 37.264 88.64 37.264C91.072 37.264 92.992 38.04 94.4 39.592C95.808 41.128 96.512 43.48 96.512 46.648V64H89.888V49.048C89.888 47.464 89.736 46.232 89.432 45.352C89.144 44.456 88.704 43.824 88.112 43.456C87.536 43.088 86.8 42.904 85.904 42.904C84.816 42.904 83.832 43.24 82.952 43.912C82.088 44.584 81.448 45.36 81.032 46.24V64H74.384ZM106.649 64.288C105.113 64.288 103.729 64 102.497 63.424C101.281 62.848 100.321 62.016 99.6166 60.928C98.9286 59.84 98.5846 58.552 98.5846 57.064C98.5846 55.496 98.8886 54.208 99.4966 53.2C100.105 52.176 100.953 51.368 102.041 50.776C103.129 50.168 104.385 49.72 105.809 49.432C106.801 49.224 107.825 49.056 108.881 48.928C109.953 48.784 110.953 48.672 111.881 48.592C112.809 48.512 113.561 48.448 114.137 48.4V47.512C114.137 45.8 113.825 44.56 113.201 43.792C112.577 43.008 111.505 42.616 109.985 42.616C109.009 42.616 108.185 42.744 107.513 43C106.857 43.256 106.361 43.72 106.025 44.392C105.689 45.064 105.521 46.032 105.521 47.296H99.3286C99.1526 45.008 99.4966 43.128 100.361 41.656C101.241 40.184 102.529 39.096 104.225 38.392C105.937 37.672 107.945 37.312 110.249 37.312C111.609 37.312 112.905 37.464 114.137 37.768C115.385 38.056 116.489 38.56 117.449 39.28C118.425 39.984 119.193 40.952 119.753 42.184C120.329 43.416 120.617 44.976 120.617 46.864V64H114.089L114.137 58C113.849 59.76 113.113 61.248 111.929 62.464C110.745 63.68 108.985 64.288 106.649 64.288ZM108.665 59.656C109.481 59.656 110.273 59.512 111.041 59.224C111.825 58.92 112.497 58.504 113.057 57.976C113.633 57.448 113.993 56.84 114.137 56.152V51.712C113.497 51.808 112.801 51.92 112.049 52.048C111.297 52.176 110.641 52.304 110.081 52.432C108.385 52.784 107.193 53.272 106.505 53.896C105.833 54.504 105.497 55.36 105.497 56.464C105.497 57.12 105.625 57.688 105.881 58.168C106.153 58.648 106.529 59.016 107.009 59.272C107.505 59.528 108.057 59.656 108.665 59.656ZM132.715 64.312C130.571 64.312 128.747 63.744 127.243 62.608C125.755 61.456 124.627 59.864 123.859 57.832C123.091 55.8 122.707 53.448 122.707 50.776C122.707 47.88 123.171 45.432 124.099 43.432C125.027 41.432 126.275 39.912 127.843 38.872C129.411 37.832 131.155 37.312 133.075 37.312C134.579 37.312 135.819 37.568 136.795 38.08C137.771 38.576 138.523 39.208 139.051 39.976C139.579 40.744 139.923 41.504 140.083 42.256L141.331 43.648L139.771 45.52C139.627 45.008 139.363 44.552 138.979 44.152C138.611 43.736 138.107 43.408 137.467 43.168C136.843 42.928 136.059 42.808 135.115 42.808C133.371 42.808 131.979 43.456 130.939 44.752C129.899 46.048 129.379 48.096 129.379 50.896C129.379 53.488 129.867 55.472 130.843 56.848C131.819 58.208 133.163 58.888 134.875 58.888C135.851 58.888 136.683 58.736 137.371 58.432C138.075 58.112 138.627 57.744 139.027 57.328C139.443 56.896 139.691 56.512 139.771 56.176L140.059 56.728L139.771 57.976C139.627 58.712 139.395 59.456 139.075 60.208C138.755 60.96 138.323 61.648 137.779 62.272C137.235 62.88 136.547 63.376 135.715 63.76C134.899 64.128 133.899 64.312 132.715 64.312ZM139.795 64L139.771 26.656H146.371V64H139.795ZM150.119 64V37.816H155.951L156.575 47.992L156.095 46.504C156.239 45.272 156.479 44.104 156.815 43C157.167 41.896 157.639 40.912 158.231 40.048C158.839 39.184 159.583 38.504 160.463 38.008C161.359 37.512 162.407 37.264 163.607 37.264C163.927 37.264 164.247 37.28 164.567 37.312C164.903 37.344 165.199 37.4 165.455 37.48V44.44C164.911 44.28 164.359 44.176 163.799 44.128C163.255 44.064 162.727 44.032 162.215 44.032C161.463 44.032 160.727 44.136 160.007 44.344C159.287 44.536 158.647 44.84 158.087 45.256C157.527 45.656 157.087 46.16 156.767 46.768V64H150.119ZM173.196 64.288C171.66 64.288 170.276 64 169.044 63.424C167.828 62.848 166.868 62.016 166.164 60.928C165.476 59.84 165.132 58.552 165.132 57.064C165.132 55.496 165.436 54.208 166.044 53.2C166.652 52.176 167.5 51.368 168.588 50.776C169.676 50.168 170.932 49.72 172.356 49.432C173.348 49.224 174.372 49.056 175.428 48.928C176.5 48.784 177.5 48.672 178.428 48.592C179.356 48.512 180.108 48.448 180.684 48.4V47.512C180.684 45.8 180.372 44.56 179.748 43.792C179.124 43.008 178.052 42.616 176.532 42.616C175.556 42.616 174.732 42.744 174.06 43C173.404 43.256 172.908 43.72 172.572 44.392C172.236 45.064 172.068 46.032 172.068 47.296H165.876C165.7 45.008 166.044 43.128 166.908 41.656C167.788 40.184 169.076 39.096 170.772 38.392C172.484 37.672 174.492 37.312 176.796 37.312C178.156 37.312 179.452 37.464 180.684 37.768C181.932 38.056 183.036 38.56 183.996 39.28C184.972 39.984 185.74 40.952 186.3 42.184C186.876 43.416 187.164 44.976 187.164 46.864V64H180.636L180.684 58C180.396 59.76 179.66 61.248 178.476 62.464C177.292 63.68 175.532 64.288 173.196 64.288ZM175.212 59.656C176.028 59.656 176.82 59.512 177.588 59.224C178.372 58.92 179.044 58.504 179.604 57.976C180.18 57.448 180.54 56.84 180.684 56.152V51.712C180.044 51.808 179.348 51.92 178.596 52.048C177.844 52.176 177.188 52.304 176.628 52.432C174.932 52.784 173.74 53.272 173.052 53.896C172.38 54.504 172.044 55.36 172.044 56.464C172.044 57.12 172.172 57.688 172.428 58.168C172.7 58.648 173.076 59.016 173.556 59.272C174.052 59.528 174.604 59.656 175.212 59.656Z" fill="white"/>
<rect x="-17" y="77" width="319" height="122" fill="white"/>
<path d="M18.055 124V97.828H26.839C28.747 97.828 30.307 98.122 31.519 98.71C32.731 99.298 33.625 100.084 34.201 101.068C34.789 102.04 35.083 103.132 35.083 104.344C35.083 105.916 34.639 107.188 33.751 108.16C32.875 109.12 31.669 109.66 30.133 109.78C31.357 109.864 32.395 110.134 33.247 110.59C34.111 111.034 34.765 111.682 35.209 112.534C35.665 113.386 35.893 114.466 35.893 115.774C35.893 117.646 35.509 119.194 34.741 120.418C33.985 121.63 32.941 122.53 31.609 123.118C30.277 123.706 28.753 124 27.037 124H18.055ZM22.195 120.094H26.191C27.967 120.094 29.281 119.818 30.133 119.266C30.997 118.714 31.429 117.616 31.429 115.972C31.429 114.736 31.195 113.854 30.727 113.326C30.259 112.786 29.629 112.45 28.837 112.318C28.045 112.174 27.163 112.102 26.191 112.102H22.195V120.094ZM22.195 108.646H26.065C27.229 108.646 28.141 108.502 28.801 108.214C29.461 107.914 29.923 107.476 30.187 106.9C30.463 106.324 30.601 105.61 30.601 104.758C30.613 103.618 30.193 102.826 29.341 102.382C28.501 101.926 27.403 101.698 26.047 101.698H22.195V108.646ZM43.6347 124.396C41.9307 124.396 40.5627 123.802 39.5307 122.614C38.4987 121.426 37.9827 119.722 37.9827 117.502V104.344H42.2307V116.368C42.2307 117.328 42.3387 118.12 42.5547 118.744C42.7707 119.368 43.1127 119.824 43.5807 120.112C44.0487 120.4 44.6547 120.544 45.3987 120.544C46.2987 120.544 47.1087 120.286 47.8287 119.77C48.5607 119.242 49.0767 118.648 49.3767 117.988V104.344H53.6247V124H50.0067L49.5207 116.584L49.8447 118.078C49.7007 119.158 49.4127 120.178 48.9807 121.138C48.5607 122.098 47.9187 122.884 47.0547 123.496C46.2027 124.096 45.0627 124.396 43.6347 124.396ZM63.2454 124.306C61.7694 124.306 60.4494 124.09 59.2854 123.658C58.1334 123.226 57.2154 122.56 56.5314 121.66C55.8594 120.748 55.4874 119.584 55.4154 118.168H59.5194C59.6754 119.176 60.0774 119.89 60.7254 120.31C61.3854 120.73 62.1954 120.94 63.1554 120.94C63.8514 120.94 64.4694 120.874 65.0094 120.742C65.5614 120.598 65.9934 120.364 66.3054 120.04C66.6294 119.704 66.7914 119.254 66.7914 118.69C66.7914 118.294 66.7014 117.97 66.5214 117.718C66.3534 117.454 66.0894 117.226 65.7294 117.034C65.3814 116.842 64.9374 116.662 64.3974 116.494C63.8694 116.326 63.2574 116.14 62.5614 115.936C61.3134 115.576 60.1794 115.15 59.1594 114.658C58.1394 114.166 57.3294 113.524 56.7294 112.732C56.1294 111.928 55.8294 110.884 55.8294 109.6C55.8294 107.848 56.4774 106.48 57.7734 105.496C59.0694 104.5 60.7374 104.002 62.7774 104.002C64.0974 104.002 65.2854 104.194 66.3414 104.578C67.4094 104.95 68.2854 105.574 68.9694 106.45C69.6534 107.314 70.0974 108.49 70.3014 109.978L66.1974 109.96C66.0174 109.264 65.7534 108.73 65.4054 108.358C65.0574 107.974 64.6554 107.71 64.1994 107.566C63.7554 107.41 63.2694 107.332 62.7414 107.332C62.1654 107.332 61.6674 107.422 61.2474 107.602C60.8274 107.782 60.5034 108.034 60.2754 108.358C60.0474 108.682 59.9334 109.072 59.9334 109.528C59.9334 110.056 60.0834 110.5 60.3834 110.86C60.6954 111.208 61.1574 111.514 61.7694 111.778C62.3934 112.03 63.1674 112.294 64.0914 112.57C64.8354 112.786 65.6034 113.026 66.3954 113.29C67.1874 113.542 67.9254 113.866 68.6094 114.262C69.2934 114.658 69.8454 115.186 70.2654 115.846C70.6854 116.494 70.8954 117.34 70.8954 118.384C70.8954 120.244 70.1934 121.696 68.7894 122.74C67.3974 123.784 65.5494 124.306 63.2454 124.306ZM72.6912 124V104.362H76.9932L76.9392 124H72.6912ZM74.8692 101.446C74.0892 101.446 73.4292 101.176 72.8892 100.636C72.3492 100.084 72.0792 99.382 72.0792 98.53C72.0792 97.69 72.3492 97.006 72.8892 96.478C73.4292 95.95 74.0892 95.686 74.8692 95.686C75.6252 95.686 76.2732 95.95 76.8132 96.478C77.3652 97.006 77.6412 97.69 77.6412 98.53C77.6412 99.382 77.3652 100.084 76.8132 100.636C76.2732 101.176 75.6252 101.446 74.8692 101.446ZM80.1632 124V104.362H83.7992L84.2672 111.76L83.9612 110.266C84.1052 109.186 84.3872 108.166 84.8072 107.206C85.2392 106.234 85.8812 105.448 86.7332 104.848C87.5852 104.248 88.7252 103.948 90.1532 103.948C92.0132 103.948 93.4532 104.53 94.4732 105.694C95.4932 106.846 96.0032 108.61 96.0032 110.986V124H91.7552V112.462C91.7552 111.334 91.6412 110.428 91.4132 109.744C91.1972 109.06 90.8432 108.568 90.3512 108.268C89.8592 107.956 89.2052 107.8 88.3892 107.8C87.5012 107.8 86.6912 108.064 85.9592 108.592C85.2392 109.108 84.7232 109.696 84.4112 110.356V124H80.1632ZM107.014 124.27C105.118 124.27 103.474 123.886 102.082 123.118C100.702 122.338 99.6396 121.192 98.8956 119.68C98.1516 118.168 97.7796 116.314 97.7796 114.118C97.7796 111.982 98.1696 110.158 98.9496 108.646C99.7416 107.122 100.828 105.964 102.208 105.172C103.588 104.368 105.172 103.966 106.96 103.966C108.724 103.966 110.23 104.314 111.478 105.01C112.738 105.706 113.698 106.738 114.358 108.106C115.018 109.462 115.348 111.13 115.348 113.11C115.348 113.494 115.336 113.812 115.312 114.064C115.3 114.316 115.282 114.616 115.258 114.964H102.01C102.118 116.968 102.61 118.444 103.486 119.392C104.362 120.328 105.436 120.796 106.708 120.796C107.896 120.796 108.802 120.544 109.426 120.04C110.062 119.524 110.47 118.948 110.65 118.312H114.754C114.646 119.572 114.25 120.652 113.566 121.552C112.882 122.44 111.976 123.118 110.848 123.586C109.732 124.042 108.454 124.27 107.014 124.27ZM103.954 112.066H111.118C111.082 110.626 110.734 109.516 110.074 108.736C109.414 107.944 108.328 107.548 106.816 107.548C105.244 107.548 104.074 108.076 103.306 109.132C102.538 110.176 102.106 111.622 102.01 113.47C102.106 112.93 102.31 112.564 102.622 112.372C102.934 112.168 103.378 112.066 103.954 112.066ZM124.109 124.306C122.633 124.306 121.313 124.09 120.149 123.658C118.997 123.226 118.079 122.56 117.395 121.66C116.723 120.748 116.351 119.584 116.279 118.168H120.383C120.539 119.176 120.941 119.89 121.589 120.31C122.249 120.73 123.059 120.94 124.019 120.94C124.715 120.94 125.333 120.874 125.873 120.742C126.425 120.598 126.857 120.364 127.169 120.04C127.493 119.704 127.655 119.254 127.655 118.69C127.655 118.294 127.565 117.97 127.385 117.718C127.217 117.454 126.953 117.226 126.593 117.034C126.245 116.842 125.801 116.662 125.261 116.494C124.733 116.326 124.121 116.14 123.425 115.936C122.177 115.576 121.043 115.15 120.023 114.658C119.003 114.166 118.193 113.524 117.593 112.732C116.993 111.928 116.693 110.884 116.693 109.6C116.693 107.848 117.341 106.48 118.637 105.496C119.933 104.5 121.601 104.002 123.641 104.002C124.961 104.002 126.149 104.194 127.205 104.578C128.273 104.95 129.149 105.574 129.833 106.45C130.517 107.314 130.961 108.49 131.165 109.978L127.061 109.96C126.881 109.264 126.617 108.73 126.269 108.358C125.921 107.974 125.519 107.71 125.063 107.566C124.619 107.41 124.133 107.332 123.605 107.332C123.029 107.332 122.531 107.422 122.111 107.602C121.691 107.782 121.367 108.034 121.139 108.358C120.911 108.682 120.797 109.072 120.797 109.528C120.797 110.056 120.947 110.5 121.247 110.86C121.559 111.208 122.021 111.514 122.633 111.778C123.257 112.03 124.031 112.294 124.955 112.57C125.699 112.786 126.467 113.026 127.259 113.29C128.051 113.542 128.789 113.866 129.473 114.262C130.157 114.658 130.709 115.186 131.129 115.846C131.549 116.494 131.759 117.34 131.759 118.384C131.759 120.244 131.057 121.696 129.653 122.74C128.261 123.784 126.413 124.306 124.109 124.306ZM140.371 124.306C138.895 124.306 137.575 124.09 136.411 123.658C135.259 123.226 134.341 122.56 133.657 121.66C132.985 120.748 132.613 119.584 132.541 118.168H136.645C136.801 119.176 137.203 119.89 137.851 120.31C138.511 120.73 139.321 120.94 140.281 120.94C140.977 120.94 141.595 120.874 142.135 120.742C142.687 120.598 143.119 120.364 143.431 120.04C143.755 119.704 143.917 119.254 143.917 118.69C143.917 118.294 143.827 117.97 143.647 117.718C143.479 117.454 143.215 117.226 142.855 117.034C142.507 116.842 142.063 116.662 141.523 116.494C140.995 116.326 140.383 116.14 139.687 115.936C138.439 115.576 137.305 115.15 136.285 114.658C135.265 114.166 134.455 113.524 133.855 112.732C133.255 111.928 132.955 110.884 132.955 109.6C132.955 107.848 133.603 106.48 134.899 105.496C136.195 104.5 137.863 104.002 139.903 104.002C141.223 104.002 142.411 104.194 143.467 104.578C144.535 104.95 145.411 105.574 146.095 106.45C146.779 107.314 147.223 108.49 147.427 109.978L143.323 109.96C143.143 109.264 142.879 108.73 142.531 108.358C142.183 107.974 141.781 107.71 141.325 107.566C140.881 107.41 140.395 107.332 139.867 107.332C139.291 107.332 138.793 107.422 138.373 107.602C137.953 107.782 137.629 108.034 137.401 108.358C137.173 108.682 137.059 109.072 137.059 109.528C137.059 110.056 137.209 110.5 137.509 110.86C137.821 111.208 138.283 111.514 138.895 111.778C139.519 112.03 140.293 112.294 141.217 112.57C141.961 112.786 142.729 113.026 143.521 113.29C144.313 113.542 145.051 113.866 145.735 114.262C146.419 114.658 146.971 115.186 147.391 115.846C147.811 116.494 148.021 117.34 148.021 118.384C148.021 120.244 147.319 121.696 145.915 122.74C144.523 123.784 142.675 124.306 140.371 124.306ZM168.429 124L162.255 113.704H158.313L157.107 113.434L157.629 110.554V109.978H161.931C162.999 109.978 163.851 109.804 164.487 109.456C165.123 109.108 165.579 108.61 165.855 107.962C166.143 107.314 166.287 106.54 166.287 105.64C166.287 104.596 166.095 103.804 165.711 103.264C165.339 102.712 164.829 102.334 164.181 102.13C163.533 101.926 162.807 101.824 162.003 101.824L158.637 101.806L158.493 100.816L157.089 97.828C157.641 97.828 158.175 97.828 158.691 97.828C159.207 97.828 159.747 97.828 160.311 97.828C160.887 97.828 161.529 97.828 162.237 97.828C163.905 97.828 165.369 98.092 166.629 98.62C167.889 99.136 168.873 99.946 169.581 101.05C170.289 102.142 170.643 103.552 170.643 105.28C170.643 106.432 170.427 107.554 169.995 108.646C169.575 109.726 168.921 110.662 168.033 111.454C167.145 112.234 166.005 112.762 164.613 113.038L164.343 112.768C164.859 112.768 165.285 112.81 165.621 112.894C165.957 112.966 166.269 113.134 166.557 113.398C166.845 113.662 167.163 114.064 167.511 114.604L173.595 124H168.429ZM154.533 124V97.828H158.745V124H154.533ZM179.234 124.396C177.53 124.396 176.162 123.802 175.13 122.614C174.098 121.426 173.582 119.722 173.582 117.502V104.344H177.83V116.368C177.83 117.328 177.938 118.12 178.154 118.744C178.37 119.368 178.712 119.824 179.18 120.112C179.648 120.4 180.254 120.544 180.998 120.544C181.898 120.544 182.708 120.286 183.428 119.77C184.16 119.242 184.676 118.648 184.976 117.988V104.344H189.224V124H185.606L185.12 116.584L185.444 118.078C185.3 119.158 185.012 120.178 184.58 121.138C184.16 122.098 183.518 122.884 182.654 123.496C181.802 124.096 180.662 124.396 179.234 124.396ZM192.45 124V95.992H196.698V124H192.45ZM199.923 124V104.362H204.225L204.171 124H199.923ZM202.101 101.446C201.321 101.446 200.661 101.176 200.121 100.636C199.581 100.084 199.311 99.382 199.311 98.53C199.311 97.69 199.581 97.006 200.121 96.478C200.661 95.95 201.321 95.686 202.101 95.686C202.857 95.686 203.505 95.95 204.045 96.478C204.597 97.006 204.873 97.69 204.873 98.53C204.873 99.382 204.597 100.084 204.045 100.636C203.505 101.176 202.857 101.446 202.101 101.446ZM207.395 124V104.362H211.031L211.499 111.76L211.193 110.266C211.337 109.186 211.619 108.166 212.039 107.206C212.471 106.234 213.113 105.448 213.965 104.848C214.817 104.248 215.957 103.948 217.385 103.948C219.245 103.948 220.685 104.53 221.705 105.694C222.725 106.846 223.235 108.61 223.235 110.986V124H218.987V112.462C218.987 111.334 218.873 110.428 218.645 109.744C218.429 109.06 218.075 108.568 217.583 108.268C217.091 107.956 216.437 107.8 215.621 107.8C214.733 107.8 213.923 108.064 213.191 108.592C212.471 109.108 211.955 109.696 211.643 110.356V124H207.395ZM234.106 132.028C232.51 132.028 231.07 131.764 229.786 131.236C228.514 130.72 227.53 129.928 226.834 128.86C226.138 127.792 225.868 126.454 226.024 124.846H230.128C230.116 125.53 230.2 126.142 230.38 126.682C230.56 127.234 230.938 127.672 231.514 127.996C232.09 128.32 232.966 128.482 234.142 128.482C235.162 128.482 235.942 128.338 236.482 128.05C237.034 127.762 237.406 127.324 237.598 126.736C237.79 126.148 237.886 125.386 237.886 124.45V119.122C237.778 119.686 237.544 120.28 237.184 120.904C236.824 121.528 236.266 122.056 235.51 122.488C234.754 122.908 233.734 123.118 232.45 123.118C231.286 123.118 230.248 122.86 229.336 122.344C228.424 121.828 227.65 121.132 227.014 120.256C226.378 119.38 225.892 118.396 225.556 117.304C225.232 116.2 225.07 115.06 225.07 113.884C225.07 111.7 225.43 109.876 226.15 108.412C226.882 106.948 227.824 105.844 228.976 105.1C230.128 104.356 231.346 103.984 232.63 103.984C233.77 103.984 234.688 104.14 235.384 104.452C236.092 104.764 236.644 105.142 237.04 105.586C237.436 106.03 237.724 106.468 237.904 106.9L237.922 104.362H242.08V124.414C242.08 126.19 241.732 127.636 241.036 128.752C240.352 129.868 239.41 130.684 238.21 131.2C237.01 131.728 235.642 132.004 234.106 132.028ZM233.908 119.716C234.808 119.716 235.534 119.596 236.086 119.356C236.638 119.104 237.058 118.81 237.346 118.474C237.634 118.126 237.814 117.826 237.886 117.574V109.348C237.766 109.06 237.544 108.778 237.22 108.502C236.896 108.226 236.47 107.998 235.942 107.818C235.414 107.638 234.766 107.548 233.998 107.548C232.666 107.548 231.574 108.04 230.722 109.024C229.87 110.008 229.444 111.55 229.444 113.65C229.444 115.558 229.864 117.046 230.704 118.114C231.556 119.182 232.624 119.716 233.908 119.716ZM251.693 124.306C250.217 124.306 248.897 124.09 247.733 123.658C246.581 123.226 245.663 122.56 244.979 121.66C244.307 120.748 243.935 119.584 243.863 118.168H247.967C248.123 119.176 248.525 119.89 249.173 120.31C249.833 120.73 250.643 120.94 251.603 120.94C252.299 120.94 252.917 120.874 253.457 120.742C254.009 120.598 254.441 120.364 254.753 120.04C255.077 119.704 255.239 119.254 255.239 118.69C255.239 118.294 255.149 117.97 254.969 117.718C254.801 117.454 254.537 117.226 254.177 117.034C253.829 116.842 253.385 116.662 252.845 116.494C252.317 116.326 251.705 116.14 251.009 115.936C249.761 115.576 248.627 115.15 247.607 114.658C246.587 114.166 245.777 113.524 245.177 112.732C244.577 111.928 244.277 110.884 244.277 109.6C244.277 107.848 244.925 106.48 246.221 105.496C247.517 104.5 249.185 104.002 251.225 104.002C252.545 104.002 253.733 104.194 254.789 104.578C255.857 104.95 256.733 105.574 257.417 106.45C258.101 107.314 258.545 108.49 258.749 109.978L254.645 109.96C254.465 109.264 254.201 108.73 253.853 108.358C253.505 107.974 253.103 107.71 252.647 107.566C252.203 107.41 251.717 107.332 251.189 107.332C250.613 107.332 250.115 107.422 249.695 107.602C249.275 107.782 248.951 108.034 248.723 108.358C248.495 108.682 248.381 109.072 248.381 109.528C248.381 110.056 248.531 110.5 248.831 110.86C249.143 111.208 249.605 111.514 250.217 111.778C250.841 112.03 251.615 112.294 252.539 112.57C253.283 112.786 254.051 113.026 254.843 113.29C255.635 113.542 256.373 113.866 257.057 114.262C257.741 114.658 258.293 115.186 258.713 115.846C259.133 116.494 259.343 117.34 259.343 118.384C259.343 120.244 258.641 121.696 257.237 122.74C255.845 123.784 253.997 124.306 251.693 124.306Z" fill="#553448"/>
</g>
<defs>
<clipPath id="clip0_837_231">
<rect width="309" height="229" fill="white" transform="translate(-17 -71)"/>
</clipPath>
</defs>
</svg>
