<svg width="319" height="163" viewBox="0 0 319 163" fill="none" xmlns="http://www.w3.org/2000/svg">
<rect width="319" height="163" fill="#A7A7A7"/>
<rect y="-11" width="319" height="208" fill="#553448"/>
<rect y="84" width="319" height="113" fill="white"/>
<path d="M182.754 34.9911C179.642 35.1265 173.799 37.804 173.712 36.582C173.625 35.36 179.568 29.0479 182.679 28.9126C185.791 28.7773 191.463 35.2004 191.55 36.4224C191.637 37.6444 185.865 34.8558 182.754 34.9911Z" fill="#CD4E5E"/>
<rect x="125" y="32.9048" width="20" height="4.54365" fill="#F19723"/>
<path d="M99.384 68V41.816H105.216L105.84 51.68L105.504 49.688C105.696 48.248 106.072 46.888 106.632 45.608C107.192 44.312 108.032 43.264 109.152 42.464C110.288 41.664 111.784 41.264 113.64 41.264C116.072 41.264 117.992 42.04 119.4 43.592C120.808 45.128 121.512 47.48 121.512 50.648V68H114.888V53.048C114.888 51.464 114.736 50.232 114.432 49.352C114.144 48.456 113.704 47.824 113.112 47.456C112.536 47.088 111.8 46.904 110.904 46.904C109.816 46.904 108.832 47.24 107.952 47.912C107.088 48.584 106.448 49.36 106.032 50.24V68H99.384ZM131.649 68.288C130.113 68.288 128.729 68 127.497 67.424C126.281 66.848 125.321 66.016 124.617 64.928C123.929 63.84 123.585 62.552 123.585 61.064C123.585 59.496 123.889 58.208 124.497 57.2C125.105 56.176 125.953 55.368 127.041 54.776C128.129 54.168 129.385 53.72 130.809 53.432C131.801 53.224 132.825 53.056 133.881 52.928C134.953 52.784 135.953 52.672 136.881 52.592C137.809 52.512 138.561 52.448 139.137 52.4V51.512C139.137 49.8 138.825 48.56 138.201 47.792C137.577 47.008 136.505 46.616 134.985 46.616C134.009 46.616 133.185 46.744 132.513 47C131.857 47.256 131.361 47.72 131.025 48.392C130.689 49.064 130.521 50.032 130.521 51.296H124.329C124.153 49.008 124.497 47.128 125.361 45.656C126.241 44.184 127.529 43.096 129.225 42.392C130.937 41.672 132.945 41.312 135.249 41.312C136.609 41.312 137.905 41.464 139.137 41.768C140.385 42.056 141.489 42.56 142.449 43.28C143.425 43.984 144.193 44.952 144.753 46.184C145.329 47.416 145.617 48.976 145.617 50.864V68H139.089L139.137 62C138.849 63.76 138.113 65.248 136.929 66.464C135.745 67.68 133.985 68.288 131.649 68.288ZM133.665 63.656C134.481 63.656 135.273 63.512 136.041 63.224C136.825 62.92 137.497 62.504 138.057 61.976C138.633 61.448 138.993 60.84 139.137 60.152V55.712C138.497 55.808 137.801 55.92 137.049 56.048C136.297 56.176 135.641 56.304 135.081 56.432C133.385 56.784 132.193 57.272 131.505 57.896C130.833 58.504 130.497 59.36 130.497 60.464C130.497 61.12 130.625 61.688 130.881 62.168C131.153 62.648 131.529 63.016 132.009 63.272C132.505 63.528 133.057 63.656 133.665 63.656ZM157.715 68.312C155.571 68.312 153.747 67.744 152.243 66.608C150.755 65.456 149.627 63.864 148.859 61.832C148.091 59.8 147.707 57.448 147.707 54.776C147.707 51.88 148.171 49.432 149.099 47.432C150.027 45.432 151.275 43.912 152.843 42.872C154.411 41.832 156.155 41.312 158.075 41.312C159.579 41.312 160.819 41.568 161.795 42.08C162.771 42.576 163.523 43.208 164.051 43.976C164.579 44.744 164.923 45.504 165.083 46.256L166.331 47.648L164.771 49.52C164.627 49.008 164.363 48.552 163.979 48.152C163.611 47.736 163.107 47.408 162.467 47.168C161.843 46.928 161.059 46.808 160.115 46.808C158.371 46.808 156.979 47.456 155.939 48.752C154.899 50.048 154.379 52.096 154.379 54.896C154.379 57.488 154.867 59.472 155.843 60.848C156.819 62.208 158.163 62.888 159.875 62.888C160.851 62.888 161.683 62.736 162.371 62.432C163.075 62.112 163.627 61.744 164.027 61.328C164.443 60.896 164.691 60.512 164.771 60.176L165.059 60.728L164.771 61.976C164.627 62.712 164.395 63.456 164.075 64.208C163.755 64.96 163.323 65.648 162.779 66.272C162.235 66.88 161.547 67.376 160.715 67.76C159.899 68.128 158.899 68.312 157.715 68.312ZM164.795 68L164.771 30.656H171.371V68H164.795ZM175.119 68V41.816H180.951L181.575 51.992L181.095 50.504C181.239 49.272 181.479 48.104 181.815 47C182.167 45.896 182.639 44.912 183.231 44.048C183.839 43.184 184.583 42.504 185.463 42.008C186.359 41.512 187.407 41.264 188.607 41.264C188.927 41.264 189.247 41.28 189.567 41.312C189.903 41.344 190.199 41.4 190.455 41.48V48.44C189.911 48.28 189.359 48.176 188.799 48.128C188.255 48.064 187.727 48.032 187.215 48.032C186.463 48.032 185.727 48.136 185.007 48.344C184.287 48.536 183.647 48.84 183.087 49.256C182.527 49.656 182.087 50.16 181.767 50.768V68H175.119ZM198.196 68.288C196.66 68.288 195.276 68 194.044 67.424C192.828 66.848 191.868 66.016 191.164 64.928C190.476 63.84 190.132 62.552 190.132 61.064C190.132 59.496 190.436 58.208 191.044 57.2C191.652 56.176 192.5 55.368 193.588 54.776C194.676 54.168 195.932 53.72 197.356 53.432C198.348 53.224 199.372 53.056 200.428 52.928C201.5 52.784 202.5 52.672 203.428 52.592C204.356 52.512 205.108 52.448 205.684 52.4V51.512C205.684 49.8 205.372 48.56 204.748 47.792C204.124 47.008 203.052 46.616 201.532 46.616C200.556 46.616 199.732 46.744 199.06 47C198.404 47.256 197.908 47.72 197.572 48.392C197.236 49.064 197.068 50.032 197.068 51.296H190.876C190.7 49.008 191.044 47.128 191.908 45.656C192.788 44.184 194.076 43.096 195.772 42.392C197.484 41.672 199.492 41.312 201.796 41.312C203.156 41.312 204.452 41.464 205.684 41.768C206.932 42.056 208.036 42.56 208.996 43.28C209.972 43.984 210.74 44.952 211.3 46.184C211.876 47.416 212.164 48.976 212.164 50.864V68H205.636L205.684 62C205.396 63.76 204.66 65.248 203.476 66.464C202.292 67.68 200.532 68.288 198.196 68.288ZM200.212 63.656C201.028 63.656 201.82 63.512 202.588 63.224C203.372 62.92 204.044 62.504 204.604 61.976C205.18 61.448 205.54 60.84 205.684 60.152V55.712C205.044 55.808 204.348 55.92 203.596 56.048C202.844 56.176 202.188 56.304 201.628 56.432C199.932 56.784 198.74 57.272 198.052 57.896C197.38 58.504 197.044 59.36 197.044 60.464C197.044 61.12 197.172 61.688 197.428 62.168C197.7 62.648 198.076 63.016 198.556 63.272C199.052 63.528 199.604 63.656 200.212 63.656Z" fill="white"/>
<path d="M60.0459 133V111.19H67.3659C68.9559 111.19 70.2559 111.435 71.2659 111.925C72.2759 112.415 73.0209 113.07 73.5009 113.89C73.9909 114.7 74.2359 115.61 74.2359 116.62C74.2359 117.93 73.8659 118.99 73.1259 119.8C72.3959 120.6 71.3909 121.05 70.1109 121.15C71.1309 121.22 71.9959 121.445 72.7059 121.825C73.4259 122.195 73.9709 122.735 74.3409 123.445C74.7209 124.155 74.9109 125.055 74.9109 126.145C74.9109 127.705 74.5909 128.995 73.9509 130.015C73.3209 131.025 72.4509 131.775 71.3409 132.265C70.2309 132.755 68.9609 133 67.5309 133H60.0459ZM63.4959 129.745H66.8259C68.3059 129.745 69.4009 129.515 70.1109 129.055C70.8309 128.595 71.1909 127.68 71.1909 126.31C71.1909 125.28 70.9959 124.545 70.6059 124.105C70.2159 123.655 69.6909 123.375 69.0309 123.265C68.3709 123.145 67.6359 123.085 66.8259 123.085H63.4959V129.745ZM63.4959 120.205H66.7209C67.6909 120.205 68.4509 120.085 69.0009 119.845C69.5509 119.595 69.9359 119.23 70.1559 118.75C70.3859 118.27 70.5009 117.675 70.5009 116.965C70.5109 116.015 70.1609 115.355 69.4509 114.985C68.7509 114.605 67.8359 114.415 66.7059 114.415H63.4959V120.205ZM81.3623 133.33C79.9423 133.33 78.8023 132.835 77.9423 131.845C77.0823 130.855 76.6523 129.435 76.6523 127.585V116.62H80.1923V126.64C80.1923 127.44 80.2823 128.1 80.4623 128.62C80.6423 129.14 80.9273 129.52 81.3173 129.76C81.7073 130 82.2123 130.12 82.8323 130.12C83.5823 130.12 84.2573 129.905 84.8573 129.475C85.4673 129.035 85.8973 128.54 86.1473 127.99V116.62H89.6873V133H86.6723L86.2673 126.82L86.5373 128.065C86.4173 128.965 86.1773 129.815 85.8173 130.615C85.4673 131.415 84.9323 132.07 84.2123 132.58C83.5023 133.08 82.5523 133.33 81.3623 133.33ZM97.7045 133.255C96.4745 133.255 95.3745 133.075 94.4045 132.715C93.4445 132.355 92.6795 131.8 92.1095 131.05C91.5495 130.29 91.2395 129.32 91.1795 128.14H94.5995C94.7295 128.98 95.0645 129.575 95.6045 129.925C96.1545 130.275 96.8295 130.45 97.6295 130.45C98.2095 130.45 98.7245 130.395 99.1745 130.285C99.6345 130.165 99.9945 129.97 100.255 129.7C100.525 129.42 100.66 129.045 100.66 128.575C100.66 128.245 100.585 127.975 100.435 127.765C100.295 127.545 100.075 127.355 99.7745 127.195C99.4845 127.035 99.1145 126.885 98.6645 126.745C98.2245 126.605 97.7145 126.45 97.1345 126.28C96.0945 125.98 95.1495 125.625 94.2995 125.215C93.4495 124.805 92.7745 124.27 92.2745 123.61C91.7745 122.94 91.5245 122.07 91.5245 121C91.5245 119.54 92.0645 118.4 93.1445 117.58C94.2245 116.75 95.6145 116.335 97.3145 116.335C98.4145 116.335 99.4045 116.495 100.285 116.815C101.175 117.125 101.905 117.645 102.475 118.375C103.045 119.095 103.415 120.075 103.585 121.315L100.165 121.3C100.015 120.72 99.7945 120.275 99.5045 119.965C99.2145 119.645 98.8795 119.425 98.4995 119.305C98.1295 119.175 97.7245 119.11 97.2845 119.11C96.8045 119.11 96.3895 119.185 96.0395 119.335C95.6895 119.485 95.4195 119.695 95.2295 119.965C95.0395 120.235 94.9445 120.56 94.9445 120.94C94.9445 121.38 95.0695 121.75 95.3195 122.05C95.5795 122.34 95.9645 122.595 96.4745 122.815C96.9945 123.025 97.6395 123.245 98.4095 123.475C99.0295 123.655 99.6695 123.855 100.33 124.075C100.99 124.285 101.605 124.555 102.175 124.885C102.745 125.215 103.205 125.655 103.555 126.205C103.905 126.745 104.08 127.45 104.08 128.32C104.08 129.87 103.495 131.08 102.325 131.95C101.165 132.82 99.6245 133.255 97.7045 133.255ZM105.576 133V116.635H109.161L109.116 133H105.576ZM107.391 114.205C106.741 114.205 106.191 113.98 105.741 113.53C105.291 113.07 105.066 112.485 105.066 111.775C105.066 111.075 105.291 110.505 105.741 110.065C106.191 109.625 106.741 109.405 107.391 109.405C108.021 109.405 108.561 109.625 109.011 110.065C109.471 110.505 109.701 111.075 109.701 111.775C109.701 112.485 109.471 113.07 109.011 113.53C108.561 113.98 108.021 114.205 107.391 114.205ZM111.803 133V116.635H114.833L115.223 122.8L114.968 121.555C115.088 120.655 115.323 119.805 115.673 119.005C116.033 118.195 116.568 117.54 117.278 117.04C117.988 116.54 118.938 116.29 120.128 116.29C121.678 116.29 122.878 116.775 123.728 117.745C124.578 118.705 125.003 120.175 125.003 122.155V133H121.463V123.385C121.463 122.445 121.368 121.69 121.178 121.12C120.998 120.55 120.703 120.14 120.293 119.89C119.883 119.63 119.338 119.5 118.658 119.5C117.918 119.5 117.243 119.72 116.633 120.16C116.033 120.59 115.603 121.08 115.343 121.63V133H111.803ZM134.178 133.225C132.598 133.225 131.228 132.905 130.068 132.265C128.918 131.615 128.033 130.66 127.413 129.4C126.793 128.14 126.483 126.595 126.483 124.765C126.483 122.985 126.808 121.465 127.458 120.205C128.118 118.935 129.023 117.97 130.173 117.31C131.323 116.64 132.643 116.305 134.133 116.305C135.603 116.305 136.858 116.595 137.898 117.175C138.948 117.755 139.748 118.615 140.298 119.755C140.848 120.885 141.123 122.275 141.123 123.925C141.123 124.245 141.113 124.51 141.093 124.72C141.083 124.93 141.068 125.18 141.048 125.47H130.008C130.098 127.14 130.508 128.37 131.238 129.16C131.968 129.94 132.863 130.33 133.923 130.33C134.913 130.33 135.668 130.12 136.188 129.7C136.718 129.27 137.058 128.79 137.208 128.26H140.628C140.538 129.31 140.208 130.21 139.638 130.96C139.068 131.7 138.313 132.265 137.373 132.655C136.443 133.035 135.378 133.225 134.178 133.225ZM131.628 123.055H137.598C137.568 121.855 137.278 120.93 136.728 120.28C136.178 119.62 135.273 119.29 134.013 119.29C132.703 119.29 131.728 119.73 131.088 120.61C130.448 121.48 130.088 122.685 130.008 124.225C130.088 123.775 130.258 123.47 130.518 123.31C130.778 123.14 131.148 123.055 131.628 123.055ZM148.424 133.255C147.194 133.255 146.094 133.075 145.124 132.715C144.164 132.355 143.399 131.8 142.829 131.05C142.269 130.29 141.959 129.32 141.899 128.14H145.319C145.449 128.98 145.784 129.575 146.324 129.925C146.874 130.275 147.549 130.45 148.349 130.45C148.929 130.45 149.444 130.395 149.894 130.285C150.354 130.165 150.714 129.97 150.974 129.7C151.244 129.42 151.379 129.045 151.379 128.575C151.379 128.245 151.304 127.975 151.154 127.765C151.014 127.545 150.794 127.355 150.494 127.195C150.204 127.035 149.834 126.885 149.384 126.745C148.944 126.605 148.434 126.45 147.854 126.28C146.814 125.98 145.869 125.625 145.019 125.215C144.169 124.805 143.494 124.27 142.994 123.61C142.494 122.94 142.244 122.07 142.244 121C142.244 119.54 142.784 118.4 143.864 117.58C144.944 116.75 146.334 116.335 148.034 116.335C149.134 116.335 150.124 116.495 151.004 116.815C151.894 117.125 152.624 117.645 153.194 118.375C153.764 119.095 154.134 120.075 154.304 121.315L150.884 121.3C150.734 120.72 150.514 120.275 150.224 119.965C149.934 119.645 149.599 119.425 149.219 119.305C148.849 119.175 148.444 119.11 148.004 119.11C147.524 119.11 147.109 119.185 146.759 119.335C146.409 119.485 146.139 119.695 145.949 119.965C145.759 120.235 145.664 120.56 145.664 120.94C145.664 121.38 145.789 121.75 146.039 122.05C146.299 122.34 146.684 122.595 147.194 122.815C147.714 123.025 148.359 123.245 149.129 123.475C149.749 123.655 150.389 123.855 151.049 124.075C151.709 124.285 152.324 124.555 152.894 124.885C153.464 125.215 153.924 125.655 154.274 126.205C154.624 126.745 154.799 127.45 154.799 128.32C154.799 129.87 154.214 131.08 153.044 131.95C151.884 132.82 150.344 133.255 148.424 133.255ZM161.976 133.255C160.746 133.255 159.646 133.075 158.676 132.715C157.716 132.355 156.951 131.8 156.381 131.05C155.821 130.29 155.511 129.32 155.451 128.14H158.871C159.001 128.98 159.336 129.575 159.876 129.925C160.426 130.275 161.101 130.45 161.901 130.45C162.481 130.45 162.996 130.395 163.446 130.285C163.906 130.165 164.266 129.97 164.526 129.7C164.796 129.42 164.931 129.045 164.931 128.575C164.931 128.245 164.856 127.975 164.706 127.765C164.566 127.545 164.346 127.355 164.046 127.195C163.756 127.035 163.386 126.885 162.936 126.745C162.496 126.605 161.986 126.45 161.406 126.28C160.366 125.98 159.421 125.625 158.571 125.215C157.721 124.805 157.046 124.27 156.546 123.61C156.046 122.94 155.796 122.07 155.796 121C155.796 119.54 156.336 118.4 157.416 117.58C158.496 116.75 159.886 116.335 161.586 116.335C162.686 116.335 163.676 116.495 164.556 116.815C165.446 117.125 166.176 117.645 166.746 118.375C167.316 119.095 167.686 120.075 167.856 121.315L164.436 121.3C164.286 120.72 164.066 120.275 163.776 119.965C163.486 119.645 163.151 119.425 162.771 119.305C162.401 119.175 161.996 119.11 161.556 119.11C161.076 119.11 160.661 119.185 160.311 119.335C159.961 119.485 159.691 119.695 159.501 119.965C159.311 120.235 159.216 120.56 159.216 120.94C159.216 121.38 159.341 121.75 159.591 122.05C159.851 122.34 160.236 122.595 160.746 122.815C161.266 123.025 161.911 123.245 162.681 123.475C163.301 123.655 163.941 123.855 164.601 124.075C165.261 124.285 165.876 124.555 166.446 124.885C167.016 125.215 167.476 125.655 167.826 126.205C168.176 126.745 168.351 127.45 168.351 128.32C168.351 129.87 167.766 131.08 166.596 131.95C165.436 132.82 163.896 133.255 161.976 133.255ZM185.358 133L180.213 124.42H176.928L175.923 124.195L176.358 121.795V121.315H179.943C180.833 121.315 181.543 121.17 182.073 120.88C182.603 120.59 182.983 120.175 183.213 119.635C183.453 119.095 183.573 118.45 183.573 117.7C183.573 116.83 183.413 116.17 183.093 115.72C182.783 115.26 182.358 114.945 181.818 114.775C181.278 114.605 180.673 114.52 180.003 114.52L177.198 114.505L177.078 113.68L175.908 111.19C176.368 111.19 176.813 111.19 177.243 111.19C177.673 111.19 178.123 111.19 178.593 111.19C179.073 111.19 179.608 111.19 180.198 111.19C181.588 111.19 182.808 111.41 183.858 111.85C184.908 112.28 185.728 112.955 186.318 113.875C186.908 114.785 187.203 115.96 187.203 117.4C187.203 118.36 187.023 119.295 186.663 120.205C186.313 121.105 185.768 121.885 185.028 122.545C184.288 123.195 183.338 123.635 182.178 123.865L181.953 123.64C182.383 123.64 182.738 123.675 183.018 123.745C183.298 123.805 183.558 123.945 183.798 124.165C184.038 124.385 184.303 124.72 184.593 125.17L189.663 133H185.358ZM173.778 133V111.19H177.288V133H173.778ZM194.361 133.33C192.941 133.33 191.801 132.835 190.941 131.845C190.081 130.855 189.651 129.435 189.651 127.585V116.62H193.191V126.64C193.191 127.44 193.281 128.1 193.461 128.62C193.641 129.14 193.926 129.52 194.316 129.76C194.706 130 195.211 130.12 195.831 130.12C196.581 130.12 197.256 129.905 197.856 129.475C198.466 129.035 198.896 128.54 199.146 127.99V116.62H202.686V133H199.671L199.266 126.82L199.536 128.065C199.416 128.965 199.176 129.815 198.816 130.615C198.466 131.415 197.931 132.07 197.211 132.58C196.501 133.08 195.551 133.33 194.361 133.33ZM205.375 133V109.66H208.915V133H205.375ZM211.603 133V116.635H215.188L215.143 133H211.603ZM213.418 114.205C212.768 114.205 212.218 113.98 211.768 113.53C211.318 113.07 211.093 112.485 211.093 111.775C211.093 111.075 211.318 110.505 211.768 110.065C212.218 109.625 212.768 109.405 213.418 109.405C214.048 109.405 214.588 109.625 215.038 110.065C215.498 110.505 215.728 111.075 215.728 111.775C215.728 112.485 215.498 113.07 215.038 113.53C214.588 113.98 214.048 114.205 213.418 114.205ZM217.829 133V116.635H220.859L221.249 122.8L220.994 121.555C221.114 120.655 221.349 119.805 221.699 119.005C222.059 118.195 222.594 117.54 223.304 117.04C224.014 116.54 224.964 116.29 226.154 116.29C227.704 116.29 228.904 116.775 229.754 117.745C230.604 118.705 231.029 120.175 231.029 122.155V133H227.489V123.385C227.489 122.445 227.394 121.69 227.204 121.12C227.024 120.55 226.729 120.14 226.319 119.89C225.909 119.63 225.364 119.5 224.684 119.5C223.944 119.5 223.269 119.72 222.659 120.16C222.059 120.59 221.629 121.08 221.369 121.63V133H217.829ZM240.089 139.69C238.759 139.69 237.559 139.47 236.489 139.03C235.429 138.6 234.609 137.94 234.029 137.05C233.449 136.16 233.224 135.045 233.354 133.705H236.774C236.764 134.275 236.834 134.785 236.984 135.235C237.134 135.695 237.449 136.06 237.929 136.33C238.409 136.6 239.139 136.735 240.119 136.735C240.969 136.735 241.619 136.615 242.069 136.375C242.529 136.135 242.839 135.77 242.999 135.28C243.159 134.79 243.239 134.155 243.239 133.375V128.935C243.149 129.405 242.954 129.9 242.654 130.42C242.354 130.94 241.889 131.38 241.259 131.74C240.629 132.09 239.779 132.265 238.709 132.265C237.739 132.265 236.874 132.05 236.114 131.62C235.354 131.19 234.709 130.61 234.179 129.88C233.649 129.15 233.244 128.33 232.964 127.42C232.694 126.5 232.559 125.55 232.559 124.57C232.559 122.75 232.859 121.23 233.459 120.01C234.069 118.79 234.854 117.87 235.814 117.25C236.774 116.63 237.789 116.32 238.859 116.32C239.809 116.32 240.574 116.45 241.154 116.71C241.744 116.97 242.204 117.285 242.534 117.655C242.864 118.025 243.104 118.39 243.254 118.75L243.269 116.635H246.734V133.345C246.734 134.825 246.444 136.03 245.864 136.96C245.294 137.89 244.509 138.57 243.509 139C242.509 139.44 241.369 139.67 240.089 139.69ZM239.924 129.43C240.674 129.43 241.279 129.33 241.739 129.13C242.199 128.92 242.549 128.675 242.789 128.395C243.029 128.105 243.179 127.855 243.239 127.645V120.79C243.139 120.55 242.954 120.315 242.684 120.085C242.414 119.855 242.059 119.665 241.619 119.515C241.179 119.365 240.639 119.29 239.999 119.29C238.889 119.29 237.979 119.7 237.269 120.52C236.559 121.34 236.204 122.625 236.204 124.375C236.204 125.965 236.554 127.205 237.254 128.095C237.964 128.985 238.854 129.43 239.924 129.43ZM254.744 133.255C253.514 133.255 252.414 133.075 251.444 132.715C250.484 132.355 249.719 131.8 249.149 131.05C248.589 130.29 248.279 129.32 248.219 128.14H251.639C251.769 128.98 252.104 129.575 252.644 129.925C253.194 130.275 253.869 130.45 254.669 130.45C255.249 130.45 255.764 130.395 256.214 130.285C256.674 130.165 257.034 129.97 257.294 129.7C257.564 129.42 257.699 129.045 257.699 128.575C257.699 128.245 257.624 127.975 257.474 127.765C257.334 127.545 257.114 127.355 256.814 127.195C256.524 127.035 256.154 126.885 255.704 126.745C255.264 126.605 254.754 126.45 254.174 126.28C253.134 125.98 252.189 125.625 251.339 125.215C250.489 124.805 249.814 124.27 249.314 123.61C248.814 122.94 248.564 122.07 248.564 121C248.564 119.54 249.104 118.4 250.184 117.58C251.264 116.75 252.654 116.335 254.354 116.335C255.454 116.335 256.444 116.495 257.324 116.815C258.214 117.125 258.944 117.645 259.514 118.375C260.084 119.095 260.454 120.075 260.624 121.315L257.204 121.3C257.054 120.72 256.834 120.275 256.544 119.965C256.254 119.645 255.919 119.425 255.539 119.305C255.169 119.175 254.764 119.11 254.324 119.11C253.844 119.11 253.429 119.185 253.079 119.335C252.729 119.485 252.459 119.695 252.269 119.965C252.079 120.235 251.984 120.56 251.984 120.94C251.984 121.38 252.109 121.75 252.359 122.05C252.619 122.34 253.004 122.595 253.514 122.815C254.034 123.025 254.679 123.245 255.449 123.475C256.069 123.655 256.709 123.855 257.369 124.075C258.029 124.285 258.644 124.555 259.214 124.885C259.784 125.215 260.244 125.655 260.594 126.205C260.944 126.745 261.119 127.45 261.119 128.32C261.119 129.87 260.534 131.08 259.364 131.95C258.204 132.82 256.664 133.255 254.744 133.255Z" fill="#553448"/>
</svg>
