<svg width="257" height="161" viewBox="0 0 257 161" fill="none" xmlns="http://www.w3.org/2000/svg">
<g clip-path="url(#clip0_837_231)">
<rect width="309" height="229" transform="translate(-24 -62)" fill="#7343BE"/>
<path d="M150.754 39.9911C147.642 40.1265 141.799 42.804 141.712 41.582C141.625 40.36 147.568 34.0479 150.679 33.9126C153.791 33.7773 159.463 40.2004 159.55 41.4224C159.637 42.6444 153.865 39.8558 150.754 39.9911Z" fill="#CD4E5E"/>
<rect x="93" y="37.9048" width="20" height="4.54365" fill="#F19723"/>
<path d="M67.384 73V46.816H73.216L73.84 56.68L73.504 54.688C73.696 53.248 74.072 51.888 74.632 50.608C75.192 49.312 76.032 48.264 77.152 47.464C78.288 46.664 79.784 46.264 81.64 46.264C84.072 46.264 85.992 47.04 87.4 48.592C88.808 50.128 89.512 52.48 89.512 55.648V73H82.888V58.048C82.888 56.464 82.736 55.232 82.432 54.352C82.144 53.456 81.704 52.824 81.112 52.456C80.536 52.088 79.8 51.904 78.904 51.904C77.816 51.904 76.832 52.24 75.952 52.912C75.088 53.584 74.448 54.36 74.032 55.24V73H67.384ZM99.6486 73.288C98.1126 73.288 96.7286 73 95.4966 72.424C94.2806 71.848 93.3206 71.016 92.6166 69.928C91.9286 68.84 91.5846 67.552 91.5846 66.064C91.5846 64.496 91.8886 63.208 92.4966 62.2C93.1046 61.176 93.9526 60.368 95.0406 59.776C96.1286 59.168 97.3846 58.72 98.8086 58.432C99.8006 58.224 100.825 58.056 101.881 57.928C102.953 57.784 103.953 57.672 104.881 57.592C105.809 57.512 106.561 57.448 107.137 57.4V56.512C107.137 54.8 106.825 53.56 106.201 52.792C105.577 52.008 104.505 51.616 102.985 51.616C102.009 51.616 101.185 51.744 100.513 52C99.8566 52.256 99.3606 52.72 99.0246 53.392C98.6886 54.064 98.5206 55.032 98.5206 56.296H92.3286C92.1526 54.008 92.4966 52.128 93.3606 50.656C94.2406 49.184 95.5286 48.096 97.2246 47.392C98.9366 46.672 100.945 46.312 103.249 46.312C104.609 46.312 105.905 46.464 107.137 46.768C108.385 47.056 109.489 47.56 110.449 48.28C111.425 48.984 112.193 49.952 112.753 51.184C113.329 52.416 113.617 53.976 113.617 55.864V73H107.089L107.137 67C106.849 68.76 106.113 70.248 104.929 71.464C103.745 72.68 101.985 73.288 99.6486 73.288ZM101.665 68.656C102.481 68.656 103.273 68.512 104.041 68.224C104.825 67.92 105.497 67.504 106.057 66.976C106.633 66.448 106.993 65.84 107.137 65.152V60.712C106.497 60.808 105.801 60.92 105.049 61.048C104.297 61.176 103.641 61.304 103.081 61.432C101.385 61.784 100.193 62.272 99.5046 62.896C98.8326 63.504 98.4966 64.36 98.4966 65.464C98.4966 66.12 98.6246 66.688 98.8806 67.168C99.1526 67.648 99.5286 68.016 100.009 68.272C100.505 68.528 101.057 68.656 101.665 68.656ZM125.715 73.312C123.571 73.312 121.747 72.744 120.243 71.608C118.755 70.456 117.627 68.864 116.859 66.832C116.091 64.8 115.707 62.448 115.707 59.776C115.707 56.88 116.171 54.432 117.099 52.432C118.027 50.432 119.275 48.912 120.843 47.872C122.411 46.832 124.155 46.312 126.075 46.312C127.579 46.312 128.819 46.568 129.795 47.08C130.771 47.576 131.523 48.208 132.051 48.976C132.579 49.744 132.923 50.504 133.083 51.256L134.331 52.648L132.771 54.52C132.627 54.008 132.363 53.552 131.979 53.152C131.611 52.736 131.107 52.408 130.467 52.168C129.843 51.928 129.059 51.808 128.115 51.808C126.371 51.808 124.979 52.456 123.939 53.752C122.899 55.048 122.379 57.096 122.379 59.896C122.379 62.488 122.867 64.472 123.843 65.848C124.819 67.208 126.163 67.888 127.875 67.888C128.851 67.888 129.683 67.736 130.371 67.432C131.075 67.112 131.627 66.744 132.027 66.328C132.443 65.896 132.691 65.512 132.771 65.176L133.059 65.728L132.771 66.976C132.627 67.712 132.395 68.456 132.075 69.208C131.755 69.96 131.323 70.648 130.779 71.272C130.235 71.88 129.547 72.376 128.715 72.76C127.899 73.128 126.899 73.312 125.715 73.312ZM132.795 73L132.771 35.656H139.371V73H132.795ZM143.119 73V46.816H148.951L149.575 56.992L149.095 55.504C149.239 54.272 149.479 53.104 149.815 52C150.167 50.896 150.639 49.912 151.231 49.048C151.839 48.184 152.583 47.504 153.463 47.008C154.359 46.512 155.407 46.264 156.607 46.264C156.927 46.264 157.247 46.28 157.567 46.312C157.903 46.344 158.199 46.4 158.455 46.48V53.44C157.911 53.28 157.359 53.176 156.799 53.128C156.255 53.064 155.727 53.032 155.215 53.032C154.463 53.032 153.727 53.136 153.007 53.344C152.287 53.536 151.647 53.84 151.087 54.256C150.527 54.656 150.087 55.16 149.767 55.768V73H143.119ZM166.196 73.288C164.66 73.288 163.276 73 162.044 72.424C160.828 71.848 159.868 71.016 159.164 69.928C158.476 68.84 158.132 67.552 158.132 66.064C158.132 64.496 158.436 63.208 159.044 62.2C159.652 61.176 160.5 60.368 161.588 59.776C162.676 59.168 163.932 58.72 165.356 58.432C166.348 58.224 167.372 58.056 168.428 57.928C169.5 57.784 170.5 57.672 171.428 57.592C172.356 57.512 173.108 57.448 173.684 57.4V56.512C173.684 54.8 173.372 53.56 172.748 52.792C172.124 52.008 171.052 51.616 169.532 51.616C168.556 51.616 167.732 51.744 167.06 52C166.404 52.256 165.908 52.72 165.572 53.392C165.236 54.064 165.068 55.032 165.068 56.296H158.876C158.7 54.008 159.044 52.128 159.908 50.656C160.788 49.184 162.076 48.096 163.772 47.392C165.484 46.672 167.492 46.312 169.796 46.312C171.156 46.312 172.452 46.464 173.684 46.768C174.932 47.056 176.036 47.56 176.996 48.28C177.972 48.984 178.74 49.952 179.3 51.184C179.876 52.416 180.164 53.976 180.164 55.864V73H173.636L173.684 67C173.396 68.76 172.66 70.248 171.476 71.464C170.292 72.68 168.532 73.288 166.196 73.288ZM168.212 68.656C169.028 68.656 169.82 68.512 170.588 68.224C171.372 67.92 172.044 67.504 172.604 66.976C173.18 66.448 173.54 65.84 173.684 65.152V60.712C173.044 60.808 172.348 60.92 171.596 61.048C170.844 61.176 170.188 61.304 169.628 61.432C167.932 61.784 166.74 62.272 166.052 62.896C165.38 63.504 165.044 64.36 165.044 65.464C165.044 66.12 165.172 66.688 165.428 67.168C165.7 67.648 166.076 68.016 166.556 68.272C167.052 68.528 167.604 68.656 168.212 68.656Z" fill="white"/>
<rect x="-24" y="86" width="319" height="122" fill="white"/>
<path d="M45.6297 133V112.372C45.6297 111.94 45.7137 111.592 45.8817 111.328C46.0617 111.064 46.3137 110.884 46.6377 110.788H38.9517V106.828H56.6097V110.788H49.9497V133H45.6297ZM62.5328 133.27C60.6368 133.27 58.9928 132.886 57.6008 132.118C56.2208 131.338 55.1588 130.192 54.4148 128.68C53.6708 127.168 53.2988 125.314 53.2988 123.118C53.2988 120.982 53.6888 119.158 54.4688 117.646C55.2608 116.122 56.3468 114.964 57.7268 114.172C59.1068 113.368 60.6908 112.966 62.4788 112.966C64.2428 112.966 65.7488 113.314 66.9968 114.01C68.2568 114.706 69.2168 115.738 69.8768 117.106C70.5368 118.462 70.8668 120.13 70.8668 122.11C70.8668 122.494 70.8548 122.812 70.8308 123.064C70.8188 123.316 70.8008 123.616 70.7768 123.964H57.5288C57.6368 125.968 58.1288 127.444 59.0048 128.392C59.8808 129.328 60.9548 129.796 62.2268 129.796C63.4148 129.796 64.3208 129.544 64.9448 129.04C65.5808 128.524 65.9888 127.948 66.1688 127.312H70.2728C70.1648 128.572 69.7688 129.652 69.0848 130.552C68.4008 131.44 67.4948 132.118 66.3668 132.586C65.2508 133.042 63.9728 133.27 62.5328 133.27ZM59.4728 121.066H66.6368C66.6008 119.626 66.2528 118.516 65.5928 117.736C64.9328 116.944 63.8468 116.548 62.3348 116.548C60.7628 116.548 59.5928 117.076 58.8248 118.132C58.0568 119.176 57.6248 120.622 57.5288 122.47C57.6248 121.93 57.8288 121.564 58.1408 121.372C58.4528 121.168 58.8968 121.066 59.4728 121.066ZM72.5304 133V113.362H76.1664L76.6344 120.922L76.2564 119.878C76.3404 119.086 76.4964 118.282 76.7244 117.466C76.9644 116.65 77.3004 115.9 77.7324 115.216C78.1764 114.532 78.7404 113.986 79.4244 113.578C80.1204 113.158 80.9664 112.948 81.9624 112.948C82.2024 112.948 82.4424 112.96 82.6824 112.984C82.9224 113.008 83.1444 113.05 83.3484 113.11V117.646C82.9404 117.514 82.5024 117.43 82.0344 117.394C81.5784 117.346 81.1584 117.322 80.7744 117.322C80.3064 117.322 79.8024 117.418 79.2624 117.61C78.7224 117.79 78.2244 118.066 77.7684 118.438C77.3124 118.81 76.9824 119.272 76.7784 119.824V133H72.5304ZM84.3626 133V113.362H88.0166L88.4846 120.76L88.1786 119.266C88.3226 118.186 88.6046 117.166 89.0246 116.206C89.4446 115.234 90.0806 114.448 90.9326 113.848C91.7846 113.248 92.9186 112.948 94.3346 112.948C95.9066 112.948 97.1726 113.398 98.1326 114.298C99.1046 115.186 99.7046 116.554 99.9326 118.402L100.023 118.69V133H95.7566V121.462C95.7566 120.334 95.6486 119.428 95.4326 118.744C95.2166 118.06 94.8746 117.568 94.4066 117.268C93.9506 116.956 93.3446 116.8 92.5886 116.8C91.7006 116.8 90.8966 117.064 90.1766 117.592C89.4566 118.108 88.9406 118.696 88.6286 119.356V133H84.3626ZM107.151 133V121.462C107.151 120.334 107.043 119.428 106.827 118.744C106.611 118.06 106.269 117.568 105.801 117.268C105.345 116.956 104.739 116.8 103.983 116.8C103.095 116.8 102.291 117.064 101.571 117.592C100.851 118.108 100.335 118.696 100.023 119.356L99.9866 120.76L99.6986 119.59C99.8186 118.522 100.077 117.484 100.473 116.476C100.881 115.456 101.505 114.616 102.345 113.956C103.185 113.284 104.313 112.948 105.729 112.948C107.505 112.948 108.897 113.53 109.905 114.694C110.913 115.846 111.417 117.61 111.417 119.986V133H107.151ZM120.871 133.306C119.395 133.306 118.075 133.09 116.911 132.658C115.759 132.226 114.841 131.56 114.157 130.66C113.485 129.748 113.113 128.584 113.041 127.168H117.145C117.301 128.176 117.703 128.89 118.351 129.31C119.011 129.73 119.821 129.94 120.781 129.94C121.477 129.94 122.095 129.874 122.635 129.742C123.187 129.598 123.619 129.364 123.931 129.04C124.255 128.704 124.417 128.254 124.417 127.69C124.417 127.294 124.327 126.97 124.147 126.718C123.979 126.454 123.715 126.226 123.355 126.034C123.007 125.842 122.563 125.662 122.023 125.494C121.495 125.326 120.883 125.14 120.187 124.936C118.939 124.576 117.805 124.15 116.785 123.658C115.765 123.166 114.955 122.524 114.355 121.732C113.755 120.928 113.455 119.884 113.455 118.6C113.455 116.848 114.103 115.48 115.399 114.496C116.695 113.5 118.363 113.002 120.403 113.002C121.723 113.002 122.911 113.194 123.967 113.578C125.035 113.95 125.911 114.574 126.595 115.45C127.279 116.314 127.723 117.49 127.927 118.978L123.823 118.96C123.643 118.264 123.379 117.73 123.031 117.358C122.683 116.974 122.281 116.71 121.825 116.566C121.381 116.41 120.895 116.332 120.367 116.332C119.791 116.332 119.293 116.422 118.873 116.602C118.453 116.782 118.129 117.034 117.901 117.358C117.673 117.682 117.559 118.072 117.559 118.528C117.559 119.056 117.709 119.5 118.009 119.86C118.321 120.208 118.783 120.514 119.395 120.778C120.019 121.03 120.793 121.294 121.717 121.57C122.461 121.786 123.229 122.026 124.021 122.29C124.813 122.542 125.551 122.866 126.235 123.262C126.919 123.658 127.471 124.186 127.891 124.846C128.311 125.494 128.521 126.34 128.521 127.384C128.521 129.244 127.819 130.696 126.415 131.74C125.023 132.784 123.175 133.306 120.871 133.306ZM142.521 133.27C140.709 133.27 139.131 132.88 137.787 132.1C136.443 131.32 135.399 130.174 134.655 128.662C133.911 127.138 133.539 125.272 133.539 123.064C133.539 120.976 133.929 119.176 134.709 117.664C135.501 116.152 136.581 114.994 137.949 114.19C139.317 113.374 140.865 112.966 142.593 112.966C144.465 112.966 146.067 113.374 147.399 114.19C148.743 114.994 149.775 116.152 150.495 117.664C151.215 119.176 151.575 120.976 151.575 123.064C151.575 125.272 151.173 127.138 150.369 128.662C149.577 130.174 148.497 131.32 147.129 132.1C145.761 132.88 144.225 133.27 142.521 133.27ZM142.593 129.652C143.973 129.652 145.101 129.136 145.977 128.104C146.853 127.072 147.291 125.392 147.291 123.064C147.291 120.904 146.865 119.284 146.013 118.204C145.161 117.124 143.997 116.584 142.521 116.584C141.141 116.584 140.013 117.118 139.137 118.186C138.273 119.254 137.841 120.88 137.841 123.064C137.841 125.284 138.279 126.94 139.155 128.032C140.043 129.112 141.189 129.652 142.593 129.652ZM154.434 133V118.762C154.434 118.342 154.518 117.976 154.686 117.664C154.854 117.352 155.088 117.148 155.388 117.052L154.434 114.154V111.022C154.434 109.486 154.74 108.214 155.352 107.206C155.964 106.186 156.78 105.43 157.8 104.938C158.832 104.434 159.966 104.182 161.202 104.182C161.814 104.182 162.318 104.2 162.714 104.236C163.11 104.272 163.464 104.308 163.776 104.344L163.758 108.358C163.494 108.262 163.17 108.178 162.786 108.106C162.414 108.034 161.952 107.998 161.4 107.998C160.776 107.998 160.254 108.1 159.834 108.304C159.426 108.508 159.12 108.868 158.916 109.384C158.724 109.9 158.628 110.626 158.628 111.562V133H154.434ZM151.518 117.052V113.362H163.056V117.052H151.518ZM178.307 133.36C176.375 133.36 174.677 132.976 173.213 132.208C171.761 131.428 170.633 130.258 169.829 128.698C169.025 127.138 168.623 125.182 168.623 122.83V106.828H172.979V122.776C172.979 124.024 173.105 125.074 173.357 125.926C173.621 126.778 173.987 127.468 174.455 127.996C174.935 128.512 175.499 128.884 176.147 129.112C176.807 129.34 177.533 129.454 178.325 129.454C179.057 129.454 179.729 129.34 180.341 129.112C180.965 128.884 181.505 128.512 181.961 127.996C182.429 127.48 182.789 126.796 183.041 125.944C183.305 125.08 183.437 124.024 183.437 122.776V106.828H187.775V122.83C187.775 125.182 187.367 127.138 186.551 128.698C185.747 130.258 184.631 131.428 183.203 132.208C181.775 132.976 180.143 133.36 178.307 133.36ZM197.384 133.306C195.908 133.306 194.588 133.09 193.424 132.658C192.272 132.226 191.354 131.56 190.67 130.66C189.998 129.748 189.626 128.584 189.554 127.168H193.658C193.814 128.176 194.216 128.89 194.864 129.31C195.524 129.73 196.334 129.94 197.294 129.94C197.99 129.94 198.608 129.874 199.148 129.742C199.7 129.598 200.132 129.364 200.444 129.04C200.768 128.704 200.93 128.254 200.93 127.69C200.93 127.294 200.84 126.97 200.66 126.718C200.492 126.454 200.228 126.226 199.868 126.034C199.52 125.842 199.076 125.662 198.536 125.494C198.008 125.326 197.396 125.14 196.7 124.936C195.452 124.576 194.318 124.15 193.298 123.658C192.278 123.166 191.468 122.524 190.868 121.732C190.268 120.928 189.968 119.884 189.968 118.6C189.968 116.848 190.616 115.48 191.912 114.496C193.208 113.5 194.876 113.002 196.916 113.002C198.236 113.002 199.424 113.194 200.48 113.578C201.548 113.95 202.424 114.574 203.108 115.45C203.792 116.314 204.236 117.49 204.44 118.978L200.336 118.96C200.156 118.264 199.892 117.73 199.544 117.358C199.196 116.974 198.794 116.71 198.338 116.566C197.894 116.41 197.408 116.332 196.88 116.332C196.304 116.332 195.806 116.422 195.386 116.602C194.966 116.782 194.642 117.034 194.414 117.358C194.186 117.682 194.072 118.072 194.072 118.528C194.072 119.056 194.222 119.5 194.522 119.86C194.834 120.208 195.296 120.514 195.908 120.778C196.532 121.03 197.306 121.294 198.23 121.57C198.974 121.786 199.742 122.026 200.534 122.29C201.326 122.542 202.064 122.866 202.748 123.262C203.432 123.658 203.984 124.186 204.404 124.846C204.824 125.494 205.034 126.34 205.034 127.384C205.034 129.244 204.332 130.696 202.928 131.74C201.536 132.784 199.688 133.306 197.384 133.306ZM214.886 133.27C212.99 133.27 211.346 132.886 209.954 132.118C208.574 131.338 207.512 130.192 206.768 128.68C206.024 127.168 205.652 125.314 205.652 123.118C205.652 120.982 206.042 119.158 206.822 117.646C207.614 116.122 208.7 114.964 210.08 114.172C211.46 113.368 213.044 112.966 214.832 112.966C216.596 112.966 218.102 113.314 219.35 114.01C220.61 114.706 221.57 115.738 222.23 117.106C222.89 118.462 223.22 120.13 223.22 122.11C223.22 122.494 223.208 122.812 223.184 123.064C223.172 123.316 223.154 123.616 223.13 123.964H209.882C209.99 125.968 210.482 127.444 211.358 128.392C212.234 129.328 213.308 129.796 214.58 129.796C215.768 129.796 216.674 129.544 217.298 129.04C217.934 128.524 218.342 127.948 218.522 127.312H222.626C222.518 128.572 222.122 129.652 221.438 130.552C220.754 131.44 219.848 132.118 218.72 132.586C217.604 133.042 216.326 133.27 214.886 133.27ZM211.826 121.066H218.99C218.954 119.626 218.606 118.516 217.946 117.736C217.286 116.944 216.2 116.548 214.688 116.548C213.116 116.548 211.946 117.076 211.178 118.132C210.41 119.176 209.978 120.622 209.882 122.47C209.978 121.93 210.182 121.564 210.494 121.372C210.806 121.168 211.25 121.066 211.826 121.066Z" fill="#7343BE"/>
</g>
<defs>
<clipPath id="clip0_837_231">
<rect width="309" height="229" fill="white" transform="translate(-24 -62)"/>
</clipPath>
</defs>
</svg>
