<svg width="319" height="163" viewBox="0 0 319 163" fill="none" xmlns="http://www.w3.org/2000/svg">
<rect width="319" height="163" fill="#A7A7A7"/>
<rect y="-11" width="319" height="208" fill="#7343BE"/>
<rect y="84" width="319" height="113" fill="white"/>
<path d="M185.754 32.9911C182.642 33.1265 176.799 35.804 176.712 34.582C176.625 33.36 182.568 27.0479 185.679 26.9126C188.791 26.7773 194.463 33.2004 194.55 34.4224C194.637 35.6444 188.865 32.8558 185.754 32.9911Z" fill="#CD4E5E"/>
<rect x="128" y="30.9048" width="20" height="4.54365" fill="#F19723"/>
<path d="M102.384 66V39.816H108.216L108.84 49.68L108.504 47.688C108.696 46.248 109.072 44.888 109.632 43.608C110.192 42.312 111.032 41.264 112.152 40.464C113.288 39.664 114.784 39.264 116.64 39.264C119.072 39.264 120.992 40.04 122.4 41.592C123.808 43.128 124.512 45.48 124.512 48.648V66H117.888V51.048C117.888 49.464 117.736 48.232 117.432 47.352C117.144 46.456 116.704 45.824 116.112 45.456C115.536 45.088 114.8 44.904 113.904 44.904C112.816 44.904 111.832 45.24 110.952 45.912C110.088 46.584 109.448 47.36 109.032 48.24V66H102.384ZM134.649 66.288C133.113 66.288 131.729 66 130.497 65.424C129.281 64.848 128.321 64.016 127.617 62.928C126.929 61.84 126.585 60.552 126.585 59.064C126.585 57.496 126.889 56.208 127.497 55.2C128.105 54.176 128.953 53.368 130.041 52.776C131.129 52.168 132.385 51.72 133.809 51.432C134.801 51.224 135.825 51.056 136.881 50.928C137.953 50.784 138.953 50.672 139.881 50.592C140.809 50.512 141.561 50.448 142.137 50.4V49.512C142.137 47.8 141.825 46.56 141.201 45.792C140.577 45.008 139.505 44.616 137.985 44.616C137.009 44.616 136.185 44.744 135.513 45C134.857 45.256 134.361 45.72 134.025 46.392C133.689 47.064 133.521 48.032 133.521 49.296H127.329C127.153 47.008 127.497 45.128 128.361 43.656C129.241 42.184 130.529 41.096 132.225 40.392C133.937 39.672 135.945 39.312 138.249 39.312C139.609 39.312 140.905 39.464 142.137 39.768C143.385 40.056 144.489 40.56 145.449 41.28C146.425 41.984 147.193 42.952 147.753 44.184C148.329 45.416 148.617 46.976 148.617 48.864V66H142.089L142.137 60C141.849 61.76 141.113 63.248 139.929 64.464C138.745 65.68 136.985 66.288 134.649 66.288ZM136.665 61.656C137.481 61.656 138.273 61.512 139.041 61.224C139.825 60.92 140.497 60.504 141.057 59.976C141.633 59.448 141.993 58.84 142.137 58.152V53.712C141.497 53.808 140.801 53.92 140.049 54.048C139.297 54.176 138.641 54.304 138.081 54.432C136.385 54.784 135.193 55.272 134.505 55.896C133.833 56.504 133.497 57.36 133.497 58.464C133.497 59.12 133.625 59.688 133.881 60.168C134.153 60.648 134.529 61.016 135.009 61.272C135.505 61.528 136.057 61.656 136.665 61.656ZM160.715 66.312C158.571 66.312 156.747 65.744 155.243 64.608C153.755 63.456 152.627 61.864 151.859 59.832C151.091 57.8 150.707 55.448 150.707 52.776C150.707 49.88 151.171 47.432 152.099 45.432C153.027 43.432 154.275 41.912 155.843 40.872C157.411 39.832 159.155 39.312 161.075 39.312C162.579 39.312 163.819 39.568 164.795 40.08C165.771 40.576 166.523 41.208 167.051 41.976C167.579 42.744 167.923 43.504 168.083 44.256L169.331 45.648L167.771 47.52C167.627 47.008 167.363 46.552 166.979 46.152C166.611 45.736 166.107 45.408 165.467 45.168C164.843 44.928 164.059 44.808 163.115 44.808C161.371 44.808 159.979 45.456 158.939 46.752C157.899 48.048 157.379 50.096 157.379 52.896C157.379 55.488 157.867 57.472 158.843 58.848C159.819 60.208 161.163 60.888 162.875 60.888C163.851 60.888 164.683 60.736 165.371 60.432C166.075 60.112 166.627 59.744 167.027 59.328C167.443 58.896 167.691 58.512 167.771 58.176L168.059 58.728L167.771 59.976C167.627 60.712 167.395 61.456 167.075 62.208C166.755 62.96 166.323 63.648 165.779 64.272C165.235 64.88 164.547 65.376 163.715 65.76C162.899 66.128 161.899 66.312 160.715 66.312ZM167.795 66L167.771 28.656H174.371V66H167.795ZM178.119 66V39.816H183.951L184.575 49.992L184.095 48.504C184.239 47.272 184.479 46.104 184.815 45C185.167 43.896 185.639 42.912 186.231 42.048C186.839 41.184 187.583 40.504 188.463 40.008C189.359 39.512 190.407 39.264 191.607 39.264C191.927 39.264 192.247 39.28 192.567 39.312C192.903 39.344 193.199 39.4 193.455 39.48V46.44C192.911 46.28 192.359 46.176 191.799 46.128C191.255 46.064 190.727 46.032 190.215 46.032C189.463 46.032 188.727 46.136 188.007 46.344C187.287 46.536 186.647 46.84 186.087 47.256C185.527 47.656 185.087 48.16 184.767 48.768V66H178.119ZM201.196 66.288C199.66 66.288 198.276 66 197.044 65.424C195.828 64.848 194.868 64.016 194.164 62.928C193.476 61.84 193.132 60.552 193.132 59.064C193.132 57.496 193.436 56.208 194.044 55.2C194.652 54.176 195.5 53.368 196.588 52.776C197.676 52.168 198.932 51.72 200.356 51.432C201.348 51.224 202.372 51.056 203.428 50.928C204.5 50.784 205.5 50.672 206.428 50.592C207.356 50.512 208.108 50.448 208.684 50.4V49.512C208.684 47.8 208.372 46.56 207.748 45.792C207.124 45.008 206.052 44.616 204.532 44.616C203.556 44.616 202.732 44.744 202.06 45C201.404 45.256 200.908 45.72 200.572 46.392C200.236 47.064 200.068 48.032 200.068 49.296H193.876C193.7 47.008 194.044 45.128 194.908 43.656C195.788 42.184 197.076 41.096 198.772 40.392C200.484 39.672 202.492 39.312 204.796 39.312C206.156 39.312 207.452 39.464 208.684 39.768C209.932 40.056 211.036 40.56 211.996 41.28C212.972 41.984 213.74 42.952 214.3 44.184C214.876 45.416 215.164 46.976 215.164 48.864V66H208.636L208.684 60C208.396 61.76 207.66 63.248 206.476 64.464C205.292 65.68 203.532 66.288 201.196 66.288ZM203.212 61.656C204.028 61.656 204.82 61.512 205.588 61.224C206.372 60.92 207.044 60.504 207.604 59.976C208.18 59.448 208.54 58.84 208.684 58.152V53.712C208.044 53.808 207.348 53.92 206.596 54.048C205.844 54.176 205.188 54.304 204.628 54.432C202.932 54.784 201.74 55.272 201.052 55.896C200.38 56.504 200.044 57.36 200.044 58.464C200.044 59.12 200.172 59.688 200.428 60.168C200.7 60.648 201.076 61.016 201.556 61.272C202.052 61.528 202.604 61.656 203.212 61.656Z" fill="white"/>
<path d="M84.0102 125.56C83.7002 125.56 83.3902 125.45 83.0802 125.23C82.7702 125.01 82.6102 124.69 82.6002 124.27L81.5952 123.235L82.6452 122.395H86.4702C87.3502 122.395 88.0802 122.25 88.6602 121.96C89.2502 121.66 89.6902 121.205 89.9802 120.595C90.2802 119.985 90.4302 119.21 90.4302 118.27C90.4302 116.78 90.0552 115.77 89.3052 115.24C88.5652 114.7 87.5402 114.43 86.2302 114.43H82.5552L81.2652 111.19C81.7252 111.19 82.2702 111.19 82.9002 111.19C83.5402 111.19 84.1502 111.19 84.7302 111.19C85.3102 111.19 85.7452 111.19 86.0352 111.19C88.7052 111.19 90.7052 111.74 92.0352 112.84C93.3652 113.93 94.0302 115.71 94.0302 118.18C94.0302 119.12 93.8952 120.03 93.6252 120.91C93.3652 121.78 92.9352 122.565 92.3352 123.265C91.7352 123.965 90.9252 124.525 89.9052 124.945C88.8852 125.355 87.6252 125.56 86.1252 125.56H84.0102ZM79.1052 133V111.19H82.6452V133H79.1052ZM95.0413 133V116.635H98.0713L98.4613 122.935L98.1463 122.065C98.2163 121.405 98.3463 120.735 98.5363 120.055C98.7363 119.375 99.0163 118.75 99.3763 118.18C99.7463 117.61 100.216 117.155 100.786 116.815C101.366 116.465 102.071 116.29 102.901 116.29C103.101 116.29 103.301 116.3 103.501 116.32C103.701 116.34 103.886 116.375 104.056 116.425V120.205C103.716 120.095 103.351 120.025 102.961 119.995C102.581 119.955 102.231 119.935 101.911 119.935C101.521 119.935 101.101 120.015 100.651 120.175C100.201 120.325 99.7863 120.555 99.4063 120.865C99.0263 121.175 98.7513 121.56 98.5813 122.02V133H95.0413ZM104.902 133V116.635H108.487L108.442 133H104.902ZM106.717 114.205C106.067 114.205 105.517 113.98 105.067 113.53C104.617 113.07 104.392 112.485 104.392 111.775C104.392 111.075 104.617 110.505 105.067 110.065C105.517 109.625 106.067 109.405 106.717 109.405C107.347 109.405 107.887 109.625 108.337 110.065C108.797 110.505 109.027 111.075 109.027 111.775C109.027 112.485 108.797 113.07 108.337 113.53C107.887 113.98 107.347 114.205 106.717 114.205ZM114.943 133L109.243 116.635H113.263L115.363 124.225L116.788 129.52H116.923L118.348 124.24L120.448 116.635H124.468L118.768 133H114.943ZM129.155 133.18C128.155 133.18 127.27 132.995 126.5 132.625C125.73 132.245 125.125 131.72 124.685 131.05C124.255 130.38 124.04 129.605 124.04 128.725C124.04 127.755 124.215 126.955 124.565 126.325C124.915 125.695 125.42 125.195 126.08 124.825C126.75 124.445 127.535 124.155 128.435 123.955C129.075 123.815 129.75 123.7 130.46 123.61C131.18 123.52 131.845 123.45 132.455 123.4C133.065 123.34 133.535 123.3 133.865 123.28V122.62C133.865 121.51 133.64 120.68 133.19 120.13C132.75 119.57 132 119.29 130.94 119.29C130.26 119.29 129.69 119.375 129.23 119.545C128.77 119.705 128.42 120.015 128.18 120.475C127.95 120.925 127.825 121.585 127.805 122.455H124.58C124.47 121.045 124.67 119.89 125.18 118.99C125.7 118.08 126.47 117.41 127.49 116.98C128.52 116.54 129.735 116.32 131.135 116.32C131.965 116.32 132.745 116.415 133.475 116.605C134.215 116.785 134.87 117.1 135.44 117.55C136.01 117.99 136.46 118.595 136.79 119.365C137.12 120.135 137.285 121.11 137.285 122.29V133H133.82L133.865 129.325C133.675 130.435 133.195 131.355 132.425 132.085C131.655 132.815 130.565 133.18 129.155 133.18ZM130.1 130.51C130.62 130.51 131.145 130.42 131.675 130.24C132.215 130.06 132.685 129.8 133.085 129.46C133.495 129.12 133.755 128.72 133.865 128.26V125.26C133.465 125.3 132.99 125.37 132.44 125.47C131.9 125.57 131.435 125.66 131.045 125.74C129.925 125.97 129.115 126.275 128.615 126.655C128.125 127.025 127.88 127.595 127.88 128.365C127.88 128.805 127.98 129.19 128.18 129.52C128.39 129.84 128.665 130.085 129.005 130.255C129.345 130.425 129.71 130.51 130.1 130.51ZM146.488 133.285C144.868 133.285 143.478 132.93 142.318 132.22C141.158 131.5 140.268 130.5 139.648 129.22C139.038 127.94 138.733 126.455 138.733 124.765C138.733 122.985 139.048 121.465 139.678 120.205C140.308 118.945 141.183 117.985 142.303 117.325C143.423 116.655 144.713 116.32 146.173 116.32C147.623 116.32 148.838 116.59 149.818 117.13C150.808 117.66 151.548 118.375 152.038 119.275C152.528 120.165 152.753 121.16 152.713 122.26H149.308C149.298 121.82 149.228 121.42 149.098 121.06C148.968 120.69 148.773 120.38 148.513 120.13C148.263 119.87 147.943 119.67 147.553 119.53C147.163 119.39 146.708 119.32 146.188 119.32C144.788 119.31 143.793 119.79 143.203 120.76C142.623 121.73 142.333 123.04 142.333 124.69C142.333 126.57 142.683 127.975 143.383 128.905C144.093 129.825 145.198 130.29 146.698 130.3C147.048 130.3 147.428 130.2 147.838 130C148.258 129.79 148.613 129.495 148.903 129.115C149.203 128.725 149.348 128.26 149.338 127.72H152.713C152.753 128.87 152.478 129.86 151.888 130.69C151.308 131.52 150.538 132.16 149.578 132.61C148.618 133.06 147.588 133.285 146.488 133.285ZM153.888 139.465V136.165H155.178C155.898 136.165 156.453 136.1 156.843 135.97C157.243 135.84 157.538 135.645 157.728 135.385C157.928 135.125 158.073 134.81 158.163 134.44C158.273 134 158.393 133.67 158.523 133.45C158.663 133.24 158.828 133.09 159.018 133H157.848L152.508 116.635H156.438L158.313 124.105L159.828 129.52H159.963L161.328 124.12L163.203 116.635H167.103L161.838 133C161.518 133.99 161.173 134.885 160.803 135.685C160.433 136.485 160.003 137.165 159.513 137.725C159.023 138.285 158.423 138.715 157.713 139.015C157.013 139.315 156.168 139.465 155.178 139.465H153.888ZM176.602 125.56C176.292 125.56 175.982 125.45 175.672 125.23C175.362 125.01 175.202 124.69 175.192 124.27L174.187 123.235L175.237 122.395H179.062C179.942 122.395 180.672 122.25 181.252 121.96C181.842 121.66 182.282 121.205 182.572 120.595C182.872 119.985 183.022 119.21 183.022 118.27C183.022 116.78 182.647 115.77 181.897 115.24C181.157 114.7 180.132 114.43 178.822 114.43H175.147L173.857 111.19C174.317 111.19 174.862 111.19 175.492 111.19C176.132 111.19 176.742 111.19 177.322 111.19C177.902 111.19 178.337 111.19 178.627 111.19C181.297 111.19 183.297 111.74 184.627 112.84C185.957 113.93 186.622 115.71 186.622 118.18C186.622 119.12 186.487 120.03 186.217 120.91C185.957 121.78 185.527 122.565 184.927 123.265C184.327 123.965 183.517 124.525 182.497 124.945C181.477 125.355 180.217 125.56 178.717 125.56H176.602ZM171.697 133V111.19H175.237V133H171.697ZM194.038 133.225C192.528 133.225 191.213 132.9 190.093 132.25C188.973 131.6 188.103 130.645 187.483 129.385C186.863 128.115 186.553 126.56 186.553 124.72C186.553 122.98 186.878 121.48 187.528 120.22C188.188 118.96 189.088 117.995 190.228 117.325C191.368 116.645 192.658 116.305 194.098 116.305C195.658 116.305 196.993 116.645 198.103 117.325C199.223 117.995 200.083 118.96 200.683 120.22C201.283 121.48 201.583 122.98 201.583 124.72C201.583 126.56 201.248 128.115 200.578 129.385C199.918 130.645 199.018 131.6 197.878 132.25C196.738 132.9 195.458 133.225 194.038 133.225ZM194.098 130.21C195.248 130.21 196.188 129.78 196.918 128.92C197.648 128.06 198.013 126.66 198.013 124.72C198.013 122.92 197.658 121.57 196.948 120.67C196.238 119.77 195.268 119.32 194.038 119.32C192.888 119.32 191.948 119.765 191.218 120.655C190.498 121.545 190.138 122.9 190.138 124.72C190.138 126.57 190.503 127.95 191.233 128.86C191.973 129.76 192.928 130.21 194.098 130.21ZM203.149 133V109.66H206.689V133H203.149ZM209.376 133V116.635H212.961L212.916 133H209.376ZM211.191 114.205C210.541 114.205 209.991 113.98 209.541 113.53C209.091 113.07 208.866 112.485 208.866 111.775C208.866 111.075 209.091 110.505 209.541 110.065C209.991 109.625 210.541 109.405 211.191 109.405C211.821 109.405 212.361 109.625 212.811 110.065C213.271 110.505 213.501 111.075 213.501 111.775C213.501 112.485 213.271 113.07 212.811 113.53C212.361 113.98 211.821 114.205 211.191 114.205ZM222.277 133.285C220.657 133.285 219.267 132.93 218.107 132.22C216.947 131.5 216.057 130.5 215.437 129.22C214.827 127.94 214.522 126.455 214.522 124.765C214.522 122.985 214.837 121.465 215.467 120.205C216.097 118.945 216.972 117.985 218.092 117.325C219.212 116.655 220.502 116.32 221.962 116.32C223.412 116.32 224.627 116.59 225.607 117.13C226.597 117.66 227.337 118.375 227.827 119.275C228.317 120.165 228.542 121.16 228.502 122.26H225.097C225.087 121.82 225.017 121.42 224.887 121.06C224.757 120.69 224.562 120.38 224.302 120.13C224.052 119.87 223.732 119.67 223.342 119.53C222.952 119.39 222.497 119.32 221.977 119.32C220.577 119.31 219.582 119.79 218.992 120.76C218.412 121.73 218.122 123.04 218.122 124.69C218.122 126.57 218.472 127.975 219.172 128.905C219.882 129.825 220.987 130.29 222.487 130.3C222.837 130.3 223.217 130.2 223.627 130C224.047 129.79 224.402 129.495 224.692 129.115C224.992 128.725 225.137 128.26 225.127 127.72H228.502C228.542 128.87 228.267 129.86 227.677 130.69C227.097 131.52 226.327 132.16 225.367 132.61C224.407 133.06 223.377 133.285 222.277 133.285ZM229.677 139.465V136.165H230.967C231.687 136.165 232.242 136.1 232.632 135.97C233.032 135.84 233.327 135.645 233.517 135.385C233.717 135.125 233.862 134.81 233.952 134.44C234.062 134 234.182 133.67 234.312 133.45C234.452 133.24 234.617 133.09 234.807 133H233.637L228.297 116.635H232.227L234.102 124.105L235.617 129.52H235.752L237.117 124.12L238.992 116.635H242.892L237.627 133C237.307 133.99 236.962 134.885 236.592 135.685C236.222 136.485 235.792 137.165 235.302 137.725C234.812 138.285 234.212 138.715 233.502 139.015C232.802 139.315 231.957 139.465 230.967 139.465H229.677Z" fill="#7343BE"/>
</svg>
