<svg width="269" height="161" viewBox="0 0 269 161" fill="none" xmlns="http://www.w3.org/2000/svg">
<g clip-path="url(#clip0_837_231)">
<rect width="309" height="229" transform="translate(-12 -62)" fill="#302828"/>
<path d="M162.754 39.9911C159.642 40.1265 153.799 42.804 153.712 41.582C153.625 40.36 159.568 34.0479 162.679 33.9126C165.791 33.7773 171.463 40.2004 171.55 41.4224C171.637 42.6444 165.865 39.8558 162.754 39.9911Z" fill="#CD4E5E"/>
<rect x="105" y="37.9048" width="20" height="4.54365" fill="#F19723"/>
<path d="M79.384 73V46.816H85.216L85.84 56.68L85.504 54.688C85.696 53.248 86.072 51.888 86.632 50.608C87.192 49.312 88.032 48.264 89.152 47.464C90.288 46.664 91.784 46.264 93.64 46.264C96.072 46.264 97.992 47.04 99.4 48.592C100.808 50.128 101.512 52.48 101.512 55.648V73H94.888V58.048C94.888 56.464 94.736 55.232 94.432 54.352C94.144 53.456 93.704 52.824 93.112 52.456C92.536 52.088 91.8 51.904 90.904 51.904C89.816 51.904 88.832 52.24 87.952 52.912C87.088 53.584 86.448 54.36 86.032 55.24V73H79.384ZM111.649 73.288C110.113 73.288 108.729 73 107.497 72.424C106.281 71.848 105.321 71.016 104.617 69.928C103.929 68.84 103.585 67.552 103.585 66.064C103.585 64.496 103.889 63.208 104.497 62.2C105.105 61.176 105.953 60.368 107.041 59.776C108.129 59.168 109.385 58.72 110.809 58.432C111.801 58.224 112.825 58.056 113.881 57.928C114.953 57.784 115.953 57.672 116.881 57.592C117.809 57.512 118.561 57.448 119.137 57.4V56.512C119.137 54.8 118.825 53.56 118.201 52.792C117.577 52.008 116.505 51.616 114.985 51.616C114.009 51.616 113.185 51.744 112.513 52C111.857 52.256 111.361 52.72 111.025 53.392C110.689 54.064 110.521 55.032 110.521 56.296H104.329C104.153 54.008 104.497 52.128 105.361 50.656C106.241 49.184 107.529 48.096 109.225 47.392C110.937 46.672 112.945 46.312 115.249 46.312C116.609 46.312 117.905 46.464 119.137 46.768C120.385 47.056 121.489 47.56 122.449 48.28C123.425 48.984 124.193 49.952 124.753 51.184C125.329 52.416 125.617 53.976 125.617 55.864V73H119.089L119.137 67C118.849 68.76 118.113 70.248 116.929 71.464C115.745 72.68 113.985 73.288 111.649 73.288ZM113.665 68.656C114.481 68.656 115.273 68.512 116.041 68.224C116.825 67.92 117.497 67.504 118.057 66.976C118.633 66.448 118.993 65.84 119.137 65.152V60.712C118.497 60.808 117.801 60.92 117.049 61.048C116.297 61.176 115.641 61.304 115.081 61.432C113.385 61.784 112.193 62.272 111.505 62.896C110.833 63.504 110.497 64.36 110.497 65.464C110.497 66.12 110.625 66.688 110.881 67.168C111.153 67.648 111.529 68.016 112.009 68.272C112.505 68.528 113.057 68.656 113.665 68.656ZM137.715 73.312C135.571 73.312 133.747 72.744 132.243 71.608C130.755 70.456 129.627 68.864 128.859 66.832C128.091 64.8 127.707 62.448 127.707 59.776C127.707 56.88 128.171 54.432 129.099 52.432C130.027 50.432 131.275 48.912 132.843 47.872C134.411 46.832 136.155 46.312 138.075 46.312C139.579 46.312 140.819 46.568 141.795 47.08C142.771 47.576 143.523 48.208 144.051 48.976C144.579 49.744 144.923 50.504 145.083 51.256L146.331 52.648L144.771 54.52C144.627 54.008 144.363 53.552 143.979 53.152C143.611 52.736 143.107 52.408 142.467 52.168C141.843 51.928 141.059 51.808 140.115 51.808C138.371 51.808 136.979 52.456 135.939 53.752C134.899 55.048 134.379 57.096 134.379 59.896C134.379 62.488 134.867 64.472 135.843 65.848C136.819 67.208 138.163 67.888 139.875 67.888C140.851 67.888 141.683 67.736 142.371 67.432C143.075 67.112 143.627 66.744 144.027 66.328C144.443 65.896 144.691 65.512 144.771 65.176L145.059 65.728L144.771 66.976C144.627 67.712 144.395 68.456 144.075 69.208C143.755 69.96 143.323 70.648 142.779 71.272C142.235 71.88 141.547 72.376 140.715 72.76C139.899 73.128 138.899 73.312 137.715 73.312ZM144.795 73L144.771 35.656H151.371V73H144.795ZM155.119 73V46.816H160.951L161.575 56.992L161.095 55.504C161.239 54.272 161.479 53.104 161.815 52C162.167 50.896 162.639 49.912 163.231 49.048C163.839 48.184 164.583 47.504 165.463 47.008C166.359 46.512 167.407 46.264 168.607 46.264C168.927 46.264 169.247 46.28 169.567 46.312C169.903 46.344 170.199 46.4 170.455 46.48V53.44C169.911 53.28 169.359 53.176 168.799 53.128C168.255 53.064 167.727 53.032 167.215 53.032C166.463 53.032 165.727 53.136 165.007 53.344C164.287 53.536 163.647 53.84 163.087 54.256C162.527 54.656 162.087 55.16 161.767 55.768V73H155.119ZM178.196 73.288C176.66 73.288 175.276 73 174.044 72.424C172.828 71.848 171.868 71.016 171.164 69.928C170.476 68.84 170.132 67.552 170.132 66.064C170.132 64.496 170.436 63.208 171.044 62.2C171.652 61.176 172.5 60.368 173.588 59.776C174.676 59.168 175.932 58.72 177.356 58.432C178.348 58.224 179.372 58.056 180.428 57.928C181.5 57.784 182.5 57.672 183.428 57.592C184.356 57.512 185.108 57.448 185.684 57.4V56.512C185.684 54.8 185.372 53.56 184.748 52.792C184.124 52.008 183.052 51.616 181.532 51.616C180.556 51.616 179.732 51.744 179.06 52C178.404 52.256 177.908 52.72 177.572 53.392C177.236 54.064 177.068 55.032 177.068 56.296H170.876C170.7 54.008 171.044 52.128 171.908 50.656C172.788 49.184 174.076 48.096 175.772 47.392C177.484 46.672 179.492 46.312 181.796 46.312C183.156 46.312 184.452 46.464 185.684 46.768C186.932 47.056 188.036 47.56 188.996 48.28C189.972 48.984 190.74 49.952 191.3 51.184C191.876 52.416 192.164 53.976 192.164 55.864V73H185.636L185.684 67C185.396 68.76 184.66 70.248 183.476 71.464C182.292 72.68 180.532 73.288 178.196 73.288ZM180.212 68.656C181.028 68.656 181.82 68.512 182.588 68.224C183.372 67.92 184.044 67.504 184.604 66.976C185.18 66.448 185.54 65.84 185.684 65.152V60.712C185.044 60.808 184.348 60.92 183.596 61.048C182.844 61.176 182.188 61.304 181.628 61.432C179.932 61.784 178.74 62.272 178.052 62.896C177.38 63.504 177.044 64.36 177.044 65.464C177.044 66.12 177.172 66.688 177.428 67.168C177.7 67.648 178.076 68.016 178.556 68.272C179.052 68.528 179.604 68.656 180.212 68.656Z" fill="white"/>
<rect x="-12" y="86" width="319" height="122" fill="white"/>
<path d="M54.902 134V113.372C54.902 112.94 54.986 112.592 55.154 112.328C55.334 112.064 55.586 111.884 55.91 111.788H48.224V107.828H65.882V111.788H59.222V134H54.902ZM71.8051 134.27C69.9091 134.27 68.2651 133.886 66.8731 133.118C65.4931 132.338 64.4311 131.192 63.6871 129.68C62.9431 128.168 62.5711 126.314 62.5711 124.118C62.5711 121.982 62.9611 120.158 63.7411 118.646C64.5331 117.122 65.6191 115.964 66.9991 115.172C68.3791 114.368 69.9631 113.966 71.7511 113.966C73.5151 113.966 75.0211 114.314 76.2691 115.01C77.5291 115.706 78.4891 116.738 79.1491 118.106C79.8091 119.462 80.1391 121.13 80.1391 123.11C80.1391 123.494 80.1271 123.812 80.1031 124.064C80.0911 124.316 80.0731 124.616 80.0491 124.964H66.8011C66.9091 126.968 67.4011 128.444 68.2771 129.392C69.1531 130.328 70.2271 130.796 71.4991 130.796C72.6871 130.796 73.5931 130.544 74.2171 130.04C74.8531 129.524 75.2611 128.948 75.4411 128.312H79.5451C79.4371 129.572 79.0411 130.652 78.3571 131.552C77.6731 132.44 76.7671 133.118 75.6391 133.586C74.5231 134.042 73.2451 134.27 71.8051 134.27ZM68.7451 122.066H75.9091C75.8731 120.626 75.5251 119.516 74.8651 118.736C74.2051 117.944 73.1191 117.548 71.6071 117.548C70.0351 117.548 68.8651 118.076 68.0971 119.132C67.3291 120.176 66.8971 121.622 66.8011 123.47C66.8971 122.93 67.1011 122.564 67.4131 122.372C67.7251 122.168 68.1691 122.066 68.7451 122.066ZM81.8027 134V114.362H85.4387L85.9067 121.922L85.5287 120.878C85.6127 120.086 85.7687 119.282 85.9967 118.466C86.2367 117.65 86.5727 116.9 87.0047 116.216C87.4487 115.532 88.0127 114.986 88.6967 114.578C89.3927 114.158 90.2387 113.948 91.2347 113.948C91.4747 113.948 91.7147 113.96 91.9547 113.984C92.1947 114.008 92.4167 114.05 92.6207 114.11V118.646C92.2127 118.514 91.7747 118.43 91.3067 118.394C90.8507 118.346 90.4307 118.322 90.0467 118.322C89.5787 118.322 89.0747 118.418 88.5347 118.61C87.9947 118.79 87.4967 119.066 87.0407 119.438C86.5847 119.81 86.2547 120.272 86.0507 120.824V134H81.8027ZM93.6349 134V114.362H97.2889L97.7569 121.76L97.4509 120.266C97.5949 119.186 97.8769 118.166 98.2969 117.206C98.7169 116.234 99.3529 115.448 100.205 114.848C101.057 114.248 102.191 113.948 103.607 113.948C105.179 113.948 106.445 114.398 107.405 115.298C108.377 116.186 108.977 117.554 109.205 119.402L109.295 119.69V134H105.029V122.462C105.029 121.334 104.921 120.428 104.705 119.744C104.489 119.06 104.147 118.568 103.679 118.268C103.223 117.956 102.617 117.8 101.861 117.8C100.973 117.8 100.169 118.064 99.4489 118.592C98.7289 119.108 98.2129 119.696 97.9009 120.356V134H93.6349ZM116.423 134V122.462C116.423 121.334 116.315 120.428 116.099 119.744C115.883 119.06 115.541 118.568 115.073 118.268C114.617 117.956 114.011 117.8 113.255 117.8C112.367 117.8 111.563 118.064 110.843 118.592C110.123 119.108 109.607 119.696 109.295 120.356L109.259 121.76L108.971 120.59C109.091 119.522 109.349 118.484 109.745 117.476C110.153 116.456 110.777 115.616 111.617 114.956C112.457 114.284 113.585 113.948 115.001 113.948C116.777 113.948 118.169 114.53 119.177 115.694C120.185 116.846 120.689 118.61 120.689 120.986V134H116.423ZM130.143 134.306C128.667 134.306 127.347 134.09 126.183 133.658C125.031 133.226 124.113 132.56 123.429 131.66C122.757 130.748 122.385 129.584 122.313 128.168H126.417C126.573 129.176 126.975 129.89 127.623 130.31C128.283 130.73 129.093 130.94 130.053 130.94C130.749 130.94 131.367 130.874 131.907 130.742C132.459 130.598 132.891 130.364 133.203 130.04C133.527 129.704 133.689 129.254 133.689 128.69C133.689 128.294 133.599 127.97 133.419 127.718C133.251 127.454 132.987 127.226 132.627 127.034C132.279 126.842 131.835 126.662 131.295 126.494C130.767 126.326 130.155 126.14 129.459 125.936C128.211 125.576 127.077 125.15 126.057 124.658C125.037 124.166 124.227 123.524 123.627 122.732C123.027 121.928 122.727 120.884 122.727 119.6C122.727 117.848 123.375 116.48 124.671 115.496C125.967 114.5 127.635 114.002 129.675 114.002C130.995 114.002 132.183 114.194 133.239 114.578C134.307 114.95 135.183 115.574 135.867 116.45C136.551 117.314 136.995 118.49 137.199 119.978L133.095 119.96C132.915 119.264 132.651 118.73 132.303 118.358C131.955 117.974 131.553 117.71 131.097 117.566C130.653 117.41 130.167 117.332 129.639 117.332C129.063 117.332 128.565 117.422 128.145 117.602C127.725 117.782 127.401 118.034 127.173 118.358C126.945 118.682 126.831 119.072 126.831 119.528C126.831 120.056 126.981 120.5 127.281 120.86C127.593 121.208 128.055 121.514 128.667 121.778C129.291 122.03 130.065 122.294 130.989 122.57C131.733 122.786 132.501 123.026 133.293 123.29C134.085 123.542 134.823 123.866 135.507 124.262C136.191 124.658 136.743 125.186 137.163 125.846C137.583 126.494 137.793 127.34 137.793 128.384C137.793 130.244 137.091 131.696 135.687 132.74C134.295 133.784 132.447 134.306 130.143 134.306ZM151.793 134.27C149.981 134.27 148.403 133.88 147.059 133.1C145.715 132.32 144.671 131.174 143.927 129.662C143.183 128.138 142.811 126.272 142.811 124.064C142.811 121.976 143.201 120.176 143.981 118.664C144.773 117.152 145.853 115.994 147.221 115.19C148.589 114.374 150.137 113.966 151.865 113.966C153.737 113.966 155.339 114.374 156.671 115.19C158.015 115.994 159.047 117.152 159.767 118.664C160.487 120.176 160.847 121.976 160.847 124.064C160.847 126.272 160.445 128.138 159.641 129.662C158.849 131.174 157.769 132.32 156.401 133.1C155.033 133.88 153.497 134.27 151.793 134.27ZM151.865 130.652C153.245 130.652 154.373 130.136 155.249 129.104C156.125 128.072 156.563 126.392 156.563 124.064C156.563 121.904 156.137 120.284 155.285 119.204C154.433 118.124 153.269 117.584 151.793 117.584C150.413 117.584 149.285 118.118 148.409 119.186C147.545 120.254 147.113 121.88 147.113 124.064C147.113 126.284 147.551 127.94 148.427 129.032C149.315 130.112 150.461 130.652 151.865 130.652ZM163.707 134V119.762C163.707 119.342 163.791 118.976 163.959 118.664C164.127 118.352 164.361 118.148 164.661 118.052L163.707 115.154V112.022C163.707 110.486 164.013 109.214 164.625 108.206C165.237 107.186 166.053 106.43 167.073 105.938C168.105 105.434 169.239 105.182 170.475 105.182C171.087 105.182 171.591 105.2 171.987 105.236C172.383 105.272 172.737 105.308 173.049 105.344L173.031 109.358C172.767 109.262 172.443 109.178 172.059 109.106C171.687 109.034 171.225 108.998 170.673 108.998C170.049 108.998 169.527 109.1 169.107 109.304C168.699 109.508 168.393 109.868 168.189 110.384C167.997 110.9 167.901 111.626 167.901 112.562V134H163.707ZM160.791 118.052V114.362H172.329V118.052H160.791ZM187.579 134.36C185.647 134.36 183.949 133.976 182.485 133.208C181.033 132.428 179.905 131.258 179.101 129.698C178.297 128.138 177.895 126.182 177.895 123.83V107.828H182.251V123.776C182.251 125.024 182.377 126.074 182.629 126.926C182.893 127.778 183.259 128.468 183.727 128.996C184.207 129.512 184.771 129.884 185.419 130.112C186.079 130.34 186.805 130.454 187.597 130.454C188.329 130.454 189.001 130.34 189.613 130.112C190.237 129.884 190.777 129.512 191.233 128.996C191.701 128.48 192.061 127.796 192.313 126.944C192.577 126.08 192.709 125.024 192.709 123.776V107.828H197.047V123.83C197.047 126.182 196.639 128.138 195.823 129.698C195.019 131.258 193.903 132.428 192.475 133.208C191.047 133.976 189.415 134.36 187.579 134.36ZM206.656 134.306C205.18 134.306 203.86 134.09 202.696 133.658C201.544 133.226 200.626 132.56 199.942 131.66C199.27 130.748 198.898 129.584 198.826 128.168H202.93C203.086 129.176 203.488 129.89 204.136 130.31C204.796 130.73 205.606 130.94 206.566 130.94C207.262 130.94 207.88 130.874 208.42 130.742C208.972 130.598 209.404 130.364 209.716 130.04C210.04 129.704 210.202 129.254 210.202 128.69C210.202 128.294 210.112 127.97 209.932 127.718C209.764 127.454 209.5 127.226 209.14 127.034C208.792 126.842 208.348 126.662 207.808 126.494C207.28 126.326 206.668 126.14 205.972 125.936C204.724 125.576 203.59 125.15 202.57 124.658C201.55 124.166 200.74 123.524 200.14 122.732C199.54 121.928 199.24 120.884 199.24 119.6C199.24 117.848 199.888 116.48 201.184 115.496C202.48 114.5 204.148 114.002 206.188 114.002C207.508 114.002 208.696 114.194 209.752 114.578C210.82 114.95 211.696 115.574 212.38 116.45C213.064 117.314 213.508 118.49 213.712 119.978L209.608 119.96C209.428 119.264 209.164 118.73 208.816 118.358C208.468 117.974 208.066 117.71 207.61 117.566C207.166 117.41 206.68 117.332 206.152 117.332C205.576 117.332 205.078 117.422 204.658 117.602C204.238 117.782 203.914 118.034 203.686 118.358C203.458 118.682 203.344 119.072 203.344 119.528C203.344 120.056 203.494 120.5 203.794 120.86C204.106 121.208 204.568 121.514 205.18 121.778C205.804 122.03 206.578 122.294 207.502 122.57C208.246 122.786 209.014 123.026 209.806 123.29C210.598 123.542 211.336 123.866 212.02 124.262C212.704 124.658 213.256 125.186 213.676 125.846C214.096 126.494 214.306 127.34 214.306 128.384C214.306 130.244 213.604 131.696 212.2 132.74C210.808 133.784 208.96 134.306 206.656 134.306ZM224.158 134.27C222.262 134.27 220.618 133.886 219.226 133.118C217.846 132.338 216.784 131.192 216.04 129.68C215.296 128.168 214.924 126.314 214.924 124.118C214.924 121.982 215.314 120.158 216.094 118.646C216.886 117.122 217.972 115.964 219.352 115.172C220.732 114.368 222.316 113.966 224.104 113.966C225.868 113.966 227.374 114.314 228.622 115.01C229.882 115.706 230.842 116.738 231.502 118.106C232.162 119.462 232.492 121.13 232.492 123.11C232.492 123.494 232.48 123.812 232.456 124.064C232.444 124.316 232.426 124.616 232.402 124.964H219.154C219.262 126.968 219.754 128.444 220.63 129.392C221.506 130.328 222.58 130.796 223.852 130.796C225.04 130.796 225.946 130.544 226.57 130.04C227.206 129.524 227.614 128.948 227.794 128.312H231.898C231.79 129.572 231.394 130.652 230.71 131.552C230.026 132.44 229.12 133.118 227.992 133.586C226.876 134.042 225.598 134.27 224.158 134.27ZM221.098 122.066H228.262C228.226 120.626 227.878 119.516 227.218 118.736C226.558 117.944 225.472 117.548 223.96 117.548C222.388 117.548 221.218 118.076 220.45 119.132C219.682 120.176 219.25 121.622 219.154 123.47C219.25 122.93 219.454 122.564 219.766 122.372C220.078 122.168 220.522 122.066 221.098 122.066Z" fill="#302828"/>
</g>
<defs>
<clipPath id="clip0_837_231">
<rect width="309" height="229" fill="white" transform="translate(-12 -62)"/>
</clipPath>
</defs>
</svg>
