<svg width="319" height="175" viewBox="0 0 319 175" fill="none" xmlns="http://www.w3.org/2000/svg">
<rect width="319" height="175" fill="#A7A7A7"/>
<rect y="-11" width="319" height="208" fill="#553448"/>
<rect y="84" width="319" height="113" fill="white"/>
<path d="M185.754 32.9911C182.642 33.1265 176.799 35.804 176.712 34.582C176.625 33.36 182.568 27.0479 185.679 26.9126C188.791 26.7773 194.463 33.2004 194.55 34.4224C194.637 35.6444 188.865 32.8558 185.754 32.9911Z" fill="#CD4E5E"/>
<rect x="128" y="30.9048" width="20" height="4.54365" fill="#F19723"/>
<path d="M102.384 66V39.816H108.216L108.84 49.68L108.504 47.688C108.696 46.248 109.072 44.888 109.632 43.608C110.192 42.312 111.032 41.264 112.152 40.464C113.288 39.664 114.784 39.264 116.64 39.264C119.072 39.264 120.992 40.04 122.4 41.592C123.808 43.128 124.512 45.48 124.512 48.648V66H117.888V51.048C117.888 49.464 117.736 48.232 117.432 47.352C117.144 46.456 116.704 45.824 116.112 45.456C115.536 45.088 114.8 44.904 113.904 44.904C112.816 44.904 111.832 45.24 110.952 45.912C110.088 46.584 109.448 47.36 109.032 48.24V66H102.384ZM134.649 66.288C133.113 66.288 131.729 66 130.497 65.424C129.281 64.848 128.321 64.016 127.617 62.928C126.929 61.84 126.585 60.552 126.585 59.064C126.585 57.496 126.889 56.208 127.497 55.2C128.105 54.176 128.953 53.368 130.041 52.776C131.129 52.168 132.385 51.72 133.809 51.432C134.801 51.224 135.825 51.056 136.881 50.928C137.953 50.784 138.953 50.672 139.881 50.592C140.809 50.512 141.561 50.448 142.137 50.4V49.512C142.137 47.8 141.825 46.56 141.201 45.792C140.577 45.008 139.505 44.616 137.985 44.616C137.009 44.616 136.185 44.744 135.513 45C134.857 45.256 134.361 45.72 134.025 46.392C133.689 47.064 133.521 48.032 133.521 49.296H127.329C127.153 47.008 127.497 45.128 128.361 43.656C129.241 42.184 130.529 41.096 132.225 40.392C133.937 39.672 135.945 39.312 138.249 39.312C139.609 39.312 140.905 39.464 142.137 39.768C143.385 40.056 144.489 40.56 145.449 41.28C146.425 41.984 147.193 42.952 147.753 44.184C148.329 45.416 148.617 46.976 148.617 48.864V66H142.089L142.137 60C141.849 61.76 141.113 63.248 139.929 64.464C138.745 65.68 136.985 66.288 134.649 66.288ZM136.665 61.656C137.481 61.656 138.273 61.512 139.041 61.224C139.825 60.92 140.497 60.504 141.057 59.976C141.633 59.448 141.993 58.84 142.137 58.152V53.712C141.497 53.808 140.801 53.92 140.049 54.048C139.297 54.176 138.641 54.304 138.081 54.432C136.385 54.784 135.193 55.272 134.505 55.896C133.833 56.504 133.497 57.36 133.497 58.464C133.497 59.12 133.625 59.688 133.881 60.168C134.153 60.648 134.529 61.016 135.009 61.272C135.505 61.528 136.057 61.656 136.665 61.656ZM160.715 66.312C158.571 66.312 156.747 65.744 155.243 64.608C153.755 63.456 152.627 61.864 151.859 59.832C151.091 57.8 150.707 55.448 150.707 52.776C150.707 49.88 151.171 47.432 152.099 45.432C153.027 43.432 154.275 41.912 155.843 40.872C157.411 39.832 159.155 39.312 161.075 39.312C162.579 39.312 163.819 39.568 164.795 40.08C165.771 40.576 166.523 41.208 167.051 41.976C167.579 42.744 167.923 43.504 168.083 44.256L169.331 45.648L167.771 47.52C167.627 47.008 167.363 46.552 166.979 46.152C166.611 45.736 166.107 45.408 165.467 45.168C164.843 44.928 164.059 44.808 163.115 44.808C161.371 44.808 159.979 45.456 158.939 46.752C157.899 48.048 157.379 50.096 157.379 52.896C157.379 55.488 157.867 57.472 158.843 58.848C159.819 60.208 161.163 60.888 162.875 60.888C163.851 60.888 164.683 60.736 165.371 60.432C166.075 60.112 166.627 59.744 167.027 59.328C167.443 58.896 167.691 58.512 167.771 58.176L168.059 58.728L167.771 59.976C167.627 60.712 167.395 61.456 167.075 62.208C166.755 62.96 166.323 63.648 165.779 64.272C165.235 64.88 164.547 65.376 163.715 65.76C162.899 66.128 161.899 66.312 160.715 66.312ZM167.795 66L167.771 28.656H174.371V66H167.795ZM178.119 66V39.816H183.951L184.575 49.992L184.095 48.504C184.239 47.272 184.479 46.104 184.815 45C185.167 43.896 185.639 42.912 186.231 42.048C186.839 41.184 187.583 40.504 188.463 40.008C189.359 39.512 190.407 39.264 191.607 39.264C191.927 39.264 192.247 39.28 192.567 39.312C192.903 39.344 193.199 39.4 193.455 39.48V46.44C192.911 46.28 192.359 46.176 191.799 46.128C191.255 46.064 190.727 46.032 190.215 46.032C189.463 46.032 188.727 46.136 188.007 46.344C187.287 46.536 186.647 46.84 186.087 47.256C185.527 47.656 185.087 48.16 184.767 48.768V66H178.119ZM201.196 66.288C199.66 66.288 198.276 66 197.044 65.424C195.828 64.848 194.868 64.016 194.164 62.928C193.476 61.84 193.132 60.552 193.132 59.064C193.132 57.496 193.436 56.208 194.044 55.2C194.652 54.176 195.5 53.368 196.588 52.776C197.676 52.168 198.932 51.72 200.356 51.432C201.348 51.224 202.372 51.056 203.428 50.928C204.5 50.784 205.5 50.672 206.428 50.592C207.356 50.512 208.108 50.448 208.684 50.4V49.512C208.684 47.8 208.372 46.56 207.748 45.792C207.124 45.008 206.052 44.616 204.532 44.616C203.556 44.616 202.732 44.744 202.06 45C201.404 45.256 200.908 45.72 200.572 46.392C200.236 47.064 200.068 48.032 200.068 49.296H193.876C193.7 47.008 194.044 45.128 194.908 43.656C195.788 42.184 197.076 41.096 198.772 40.392C200.484 39.672 202.492 39.312 204.796 39.312C206.156 39.312 207.452 39.464 208.684 39.768C209.932 40.056 211.036 40.56 211.996 41.28C212.972 41.984 213.74 42.952 214.3 44.184C214.876 45.416 215.164 46.976 215.164 48.864V66H208.636L208.684 60C208.396 61.76 207.66 63.248 206.476 64.464C205.292 65.68 203.532 66.288 201.196 66.288ZM203.212 61.656C204.028 61.656 204.82 61.512 205.588 61.224C206.372 60.92 207.044 60.504 207.604 59.976C208.18 59.448 208.54 58.84 208.684 58.152V53.712C208.044 53.808 207.348 53.92 206.596 54.048C205.844 54.176 205.188 54.304 204.628 54.432C202.932 54.784 201.74 55.272 201.052 55.896C200.38 56.504 200.044 57.36 200.044 58.464C200.044 59.12 200.172 59.688 200.428 60.168C200.7 60.648 201.076 61.016 201.556 61.272C202.052 61.528 202.604 61.656 203.212 61.656Z" fill="white"/>
<path d="M42.737 139V114.282H51.033C52.835 114.282 54.3083 114.56 55.453 115.115C56.5977 115.67 57.442 116.413 57.986 117.342C58.5413 118.26 58.819 119.291 58.819 120.436C58.819 121.921 58.3997 123.122 57.561 124.04C56.7337 124.947 55.5947 125.457 54.144 125.57C55.3 125.649 56.2803 125.904 57.085 126.335C57.901 126.754 58.5187 127.366 58.938 128.171C59.3687 128.976 59.584 129.996 59.584 131.231C59.584 132.999 59.2213 134.461 58.496 135.617C57.782 136.762 56.796 137.612 55.538 138.167C54.28 138.722 52.8407 139 51.22 139H42.737ZM46.647 135.311H50.421C52.0983 135.311 53.3393 135.05 54.144 134.529C54.96 134.008 55.368 132.971 55.368 131.418C55.368 130.251 55.147 129.418 54.705 128.919C54.263 128.409 53.668 128.092 52.92 127.967C52.172 127.831 51.339 127.763 50.421 127.763H46.647V135.311ZM46.647 124.499H50.302C51.4013 124.499 52.2627 124.363 52.886 124.091C53.5093 123.808 53.9457 123.394 54.195 122.85C54.4557 122.306 54.586 121.632 54.586 120.827C54.5973 119.75 54.2007 119.002 53.396 118.583C52.6027 118.152 51.5657 117.937 50.285 117.937H46.647V124.499ZM66.8956 139.374C65.2863 139.374 63.9943 138.813 63.0196 137.691C62.0449 136.569 61.5576 134.96 61.5576 132.863V120.436H65.5696V131.792C65.5696 132.699 65.6716 133.447 65.8756 134.036C66.0796 134.625 66.4026 135.056 66.8446 135.328C67.2866 135.6 67.8589 135.736 68.5616 135.736C69.4116 135.736 70.1766 135.492 70.8566 135.005C71.5479 134.506 72.0353 133.945 72.3186 133.322V120.436H76.3306V139H72.9136L72.4546 131.996L72.7606 133.407C72.6246 134.427 72.3526 135.39 71.9446 136.297C71.5479 137.204 70.9416 137.946 70.1256 138.524C69.3209 139.091 68.2443 139.374 66.8956 139.374ZM85.4168 139.289C84.0228 139.289 82.7762 139.085 81.6768 138.677C80.5888 138.269 79.7218 137.64 79.0758 136.79C78.4412 135.929 78.0898 134.829 78.0218 133.492H81.8978C82.0452 134.444 82.4248 135.118 83.0368 135.515C83.6602 135.912 84.4252 136.11 85.3318 136.11C85.9892 136.11 86.5728 136.048 87.0828 135.923C87.6042 135.787 88.0122 135.566 88.3068 135.26C88.6128 134.943 88.7658 134.518 88.7658 133.985C88.7658 133.611 88.6808 133.305 88.5108 133.067C88.3522 132.818 88.1028 132.602 87.7628 132.421C87.4342 132.24 87.0148 132.07 86.5048 131.911C86.0062 131.752 85.4282 131.577 84.7708 131.384C83.5922 131.044 82.5212 130.642 81.5578 130.177C80.5945 129.712 79.8295 129.106 79.2628 128.358C78.6962 127.599 78.4128 126.613 78.4128 125.4C78.4128 123.745 79.0248 122.453 80.2488 121.524C81.4728 120.583 83.0482 120.113 84.9748 120.113C86.2215 120.113 87.3435 120.294 88.3408 120.657C89.3495 121.008 90.1768 121.598 90.8228 122.425C91.4688 123.241 91.8882 124.352 92.0808 125.757L88.2048 125.74C88.0348 125.083 87.7855 124.578 87.4568 124.227C87.1282 123.864 86.7485 123.615 86.3178 123.479C85.8985 123.332 85.4395 123.258 84.9408 123.258C84.3968 123.258 83.9265 123.343 83.5298 123.513C83.1332 123.683 82.8272 123.921 82.6118 124.227C82.3965 124.533 82.2888 124.901 82.2888 125.332C82.2888 125.831 82.4305 126.25 82.7138 126.59C83.0085 126.919 83.4448 127.208 84.0228 127.457C84.6122 127.695 85.3432 127.944 86.2158 128.205C86.9185 128.409 87.6438 128.636 88.3918 128.885C89.1398 129.123 89.8368 129.429 90.4828 129.803C91.1288 130.177 91.6502 130.676 92.0468 131.299C92.4435 131.911 92.6418 132.71 92.6418 133.696C92.6418 135.453 91.9788 136.824 90.6528 137.81C89.3382 138.796 87.5928 139.289 85.4168 139.289ZM94.3378 139V120.453H98.4008L98.3498 139H94.3378ZM96.3948 117.699C95.6582 117.699 95.0348 117.444 94.5248 116.934C94.0148 116.413 93.7598 115.75 93.7598 114.945C93.7598 114.152 94.0148 113.506 94.5248 113.007C95.0348 112.508 95.6582 112.259 96.3948 112.259C97.1088 112.259 97.7208 112.508 98.2308 113.007C98.7522 113.506 99.0128 114.152 99.0128 114.945C99.0128 115.75 98.7522 116.413 98.2308 116.934C97.7208 117.444 97.1088 117.699 96.3948 117.699ZM101.395 139V120.453H104.829L105.271 127.44L104.982 126.029C105.118 125.009 105.384 124.046 105.781 123.139C106.189 122.221 106.795 121.479 107.6 120.912C108.404 120.345 109.481 120.062 110.83 120.062C112.586 120.062 113.946 120.612 114.91 121.711C115.873 122.799 116.355 124.465 116.355 126.709V139H112.343V128.103C112.343 127.038 112.235 126.182 112.02 125.536C111.816 124.89 111.481 124.425 111.017 124.142C110.552 123.847 109.934 123.7 109.164 123.7C108.325 123.7 107.56 123.949 106.869 124.448C106.189 124.935 105.701 125.491 105.407 126.114V139H101.395ZM126.753 139.255C124.963 139.255 123.41 138.892 122.095 138.167C120.792 137.43 119.789 136.348 119.086 134.92C118.384 133.492 118.032 131.741 118.032 129.667C118.032 127.65 118.401 125.927 119.137 124.499C119.885 123.06 120.911 121.966 122.214 121.218C123.518 120.459 125.014 120.079 126.702 120.079C128.368 120.079 129.791 120.408 130.969 121.065C132.159 121.722 133.066 122.697 133.689 123.989C134.313 125.27 134.624 126.845 134.624 128.715C134.624 129.078 134.613 129.378 134.59 129.616C134.579 129.854 134.562 130.137 134.539 130.466H122.027C122.129 132.359 122.594 133.753 123.421 134.648C124.249 135.532 125.263 135.974 126.464 135.974C127.586 135.974 128.442 135.736 129.031 135.26C129.632 134.773 130.017 134.229 130.187 133.628H134.063C133.961 134.818 133.587 135.838 132.941 136.688C132.295 137.527 131.44 138.167 130.374 138.609C129.32 139.04 128.113 139.255 126.753 139.255ZM123.863 127.729H130.629C130.595 126.369 130.267 125.321 129.643 124.584C129.02 123.836 127.994 123.462 126.566 123.462C125.082 123.462 123.977 123.961 123.251 124.958C122.526 125.944 122.118 127.31 122.027 129.055C122.118 128.545 122.311 128.199 122.605 128.018C122.9 127.825 123.319 127.729 123.863 127.729ZM142.899 139.289C141.505 139.289 140.259 139.085 139.159 138.677C138.071 138.269 137.204 137.64 136.558 136.79C135.924 135.929 135.572 134.829 135.504 133.492H139.38C139.528 134.444 139.907 135.118 140.519 135.515C141.143 135.912 141.908 136.11 142.814 136.11C143.472 136.11 144.055 136.048 144.565 135.923C145.087 135.787 145.495 135.566 145.789 135.26C146.095 134.943 146.248 134.518 146.248 133.985C146.248 133.611 146.163 133.305 145.993 133.067C145.835 132.818 145.585 132.602 145.245 132.421C144.917 132.24 144.497 132.07 143.987 131.911C143.489 131.752 142.911 131.577 142.253 131.384C141.075 131.044 140.004 130.642 139.04 130.177C138.077 129.712 137.312 129.106 136.745 128.358C136.179 127.599 135.895 126.613 135.895 125.4C135.895 123.745 136.507 122.453 137.731 121.524C138.955 120.583 140.531 120.113 142.457 120.113C143.704 120.113 144.826 120.294 145.823 120.657C146.832 121.008 147.659 121.598 148.305 122.425C148.951 123.241 149.371 124.352 149.563 125.757L145.687 125.74C145.517 125.083 145.268 124.578 144.939 124.227C144.611 123.864 144.231 123.615 143.8 123.479C143.381 123.332 142.922 123.258 142.423 123.258C141.879 123.258 141.409 123.343 141.012 123.513C140.616 123.683 140.31 123.921 140.094 124.227C139.879 124.533 139.771 124.901 139.771 125.332C139.771 125.831 139.913 126.25 140.196 126.59C140.491 126.919 140.927 127.208 141.505 127.457C142.095 127.695 142.826 127.944 143.698 128.205C144.401 128.409 145.126 128.636 145.874 128.885C146.622 129.123 147.319 129.429 147.965 129.803C148.611 130.177 149.133 130.676 149.529 131.299C149.926 131.911 150.124 132.71 150.124 133.696C150.124 135.453 149.461 136.824 148.135 137.81C146.821 138.796 145.075 139.289 142.899 139.289ZM158.258 139.289C156.864 139.289 155.617 139.085 154.518 138.677C153.43 138.269 152.563 137.64 151.917 136.79C151.282 135.929 150.931 134.829 150.863 133.492H154.739C154.886 134.444 155.266 135.118 155.878 135.515C156.501 135.912 157.266 136.11 158.173 136.11C158.83 136.11 159.414 136.048 159.924 135.923C160.445 135.787 160.853 135.566 161.148 135.26C161.454 134.943 161.607 134.518 161.607 133.985C161.607 133.611 161.522 133.305 161.352 133.067C161.193 132.818 160.944 132.602 160.604 132.421C160.275 132.24 159.856 132.07 159.346 131.911C158.847 131.752 158.269 131.577 157.612 131.384C156.433 131.044 155.362 130.642 154.399 130.177C153.436 129.712 152.671 129.106 152.104 128.358C151.537 127.599 151.254 126.613 151.254 125.4C151.254 123.745 151.866 122.453 153.09 121.524C154.314 120.583 155.889 120.113 157.816 120.113C159.063 120.113 160.185 120.294 161.182 120.657C162.191 121.008 163.018 121.598 163.664 122.425C164.31 123.241 164.729 124.352 164.922 125.757L161.046 125.74C160.876 125.083 160.627 124.578 160.298 124.227C159.969 123.864 159.59 123.615 159.159 123.479C158.74 123.332 158.281 123.258 157.782 123.258C157.238 123.258 156.768 123.343 156.371 123.513C155.974 123.683 155.668 123.921 155.453 124.227C155.238 124.533 155.13 124.901 155.13 125.332C155.13 125.831 155.272 126.25 155.555 126.59C155.85 126.919 156.286 127.208 156.864 127.457C157.453 127.695 158.184 127.944 159.057 128.205C159.76 128.409 160.485 128.636 161.233 128.885C161.981 129.123 162.678 129.429 163.324 129.803C163.97 130.177 164.491 130.676 164.888 131.299C165.285 131.911 165.483 132.71 165.483 133.696C165.483 135.453 164.82 136.824 163.494 137.81C162.179 138.796 160.434 139.289 158.258 139.289ZM184.757 139L178.926 129.276H175.203L174.064 129.021L174.557 126.301V125.757H178.62C179.629 125.757 180.433 125.593 181.034 125.264C181.635 124.935 182.065 124.465 182.326 123.853C182.598 123.241 182.734 122.51 182.734 121.66C182.734 120.674 182.553 119.926 182.19 119.416C181.839 118.895 181.357 118.538 180.745 118.345C180.133 118.152 179.447 118.056 178.688 118.056L175.509 118.039L175.373 117.104L174.047 114.282C174.568 114.282 175.073 114.282 175.56 114.282C176.047 114.282 176.557 114.282 177.09 114.282C177.634 114.282 178.24 114.282 178.909 114.282C180.484 114.282 181.867 114.531 183.057 115.03C184.247 115.517 185.176 116.282 185.845 117.325C186.514 118.356 186.848 119.688 186.848 121.32C186.848 122.408 186.644 123.468 186.236 124.499C185.839 125.519 185.222 126.403 184.383 127.151C183.544 127.888 182.468 128.386 181.153 128.647L180.898 128.392C181.385 128.392 181.788 128.432 182.105 128.511C182.422 128.579 182.717 128.738 182.989 128.987C183.261 129.236 183.561 129.616 183.89 130.126L189.636 139H184.757ZM171.633 139V114.282H175.611V139H171.633ZM194.961 139.374C193.352 139.374 192.06 138.813 191.085 137.691C190.111 136.569 189.623 134.96 189.623 132.863V120.436H193.635V131.792C193.635 132.699 193.737 133.447 193.941 134.036C194.145 134.625 194.468 135.056 194.91 135.328C195.352 135.6 195.925 135.736 196.627 135.736C197.477 135.736 198.242 135.492 198.922 135.005C199.614 134.506 200.101 133.945 200.384 133.322V120.436H204.396V139H200.979L200.52 131.996L200.826 133.407C200.69 134.427 200.418 135.39 200.01 136.297C199.614 137.204 199.007 137.946 198.191 138.524C197.387 139.091 196.31 139.374 194.961 139.374ZM207.444 139V112.548H211.456V139H207.444ZM214.501 139V120.453H218.564L218.513 139H214.501ZM216.558 117.699C215.822 117.699 215.198 117.444 214.688 116.934C214.178 116.413 213.923 115.75 213.923 114.945C213.923 114.152 214.178 113.506 214.688 113.007C215.198 112.508 215.822 112.259 216.558 112.259C217.272 112.259 217.884 112.508 218.394 113.007C218.916 113.506 219.176 114.152 219.176 114.945C219.176 115.75 218.916 116.413 218.394 116.934C217.884 117.444 217.272 117.699 216.558 117.699ZM221.558 139V120.453H224.992L225.434 127.44L225.145 126.029C225.281 125.009 225.547 124.046 225.944 123.139C226.352 122.221 226.958 121.479 227.763 120.912C228.568 120.345 229.644 120.062 230.993 120.062C232.75 120.062 234.11 120.612 235.073 121.711C236.036 122.799 236.518 124.465 236.518 126.709V139H232.506V128.103C232.506 127.038 232.398 126.182 232.183 125.536C231.979 124.89 231.645 124.425 231.18 124.142C230.715 123.847 230.098 123.7 229.327 123.7C228.488 123.7 227.723 123.949 227.032 124.448C226.352 124.935 225.865 125.491 225.57 126.114V139H221.558ZM246.786 146.582C245.278 146.582 243.918 146.333 242.706 145.834C241.504 145.347 240.575 144.599 239.918 143.59C239.26 142.581 239.005 141.318 239.153 139.799H243.029C243.017 140.445 243.097 141.023 243.267 141.533C243.437 142.054 243.794 142.468 244.338 142.774C244.882 143.08 245.709 143.233 246.82 143.233C247.783 143.233 248.52 143.097 249.03 142.825C249.551 142.553 249.902 142.139 250.084 141.584C250.265 141.029 250.356 140.309 250.356 139.425V134.393C250.254 134.926 250.033 135.487 249.693 136.076C249.353 136.665 248.826 137.164 248.112 137.572C247.398 137.969 246.434 138.167 245.222 138.167C244.122 138.167 243.142 137.923 242.281 137.436C241.419 136.949 240.688 136.291 240.088 135.464C239.487 134.637 239.028 133.707 238.711 132.676C238.405 131.633 238.252 130.557 238.252 129.446C238.252 127.383 238.592 125.661 239.272 124.278C239.963 122.895 240.853 121.853 241.941 121.15C243.029 120.447 244.179 120.096 245.392 120.096C246.468 120.096 247.335 120.243 247.993 120.538C248.661 120.833 249.183 121.19 249.557 121.609C249.931 122.028 250.203 122.442 250.373 122.85L250.39 120.453H254.317V139.391C254.317 141.068 253.988 142.434 253.331 143.488C252.685 144.542 251.795 145.313 250.662 145.8C249.528 146.299 248.236 146.559 246.786 146.582ZM246.599 134.954C247.449 134.954 248.134 134.841 248.656 134.614C249.177 134.376 249.574 134.098 249.846 133.781C250.118 133.452 250.288 133.169 250.356 132.931V125.162C250.242 124.89 250.033 124.624 249.727 124.363C249.421 124.102 249.018 123.887 248.52 123.717C248.021 123.547 247.409 123.462 246.684 123.462C245.426 123.462 244.394 123.927 243.59 124.856C242.785 125.785 242.383 127.242 242.383 129.225C242.383 131.027 242.779 132.432 243.573 133.441C244.377 134.45 245.386 134.954 246.599 134.954ZM263.395 139.289C262.001 139.289 260.754 139.085 259.655 138.677C258.567 138.269 257.7 137.64 257.054 136.79C256.419 135.929 256.068 134.829 256 133.492H259.876C260.023 134.444 260.403 135.118 261.015 135.515C261.638 135.912 262.403 136.11 263.31 136.11C263.967 136.11 264.551 136.048 265.061 135.923C265.582 135.787 265.99 135.566 266.285 135.26C266.591 134.943 266.744 134.518 266.744 133.985C266.744 133.611 266.659 133.305 266.489 133.067C266.33 132.818 266.081 132.602 265.741 132.421C265.412 132.24 264.993 132.07 264.483 131.911C263.984 131.752 263.406 131.577 262.749 131.384C261.57 131.044 260.499 130.642 259.536 130.177C258.573 129.712 257.808 129.106 257.241 128.358C256.674 127.599 256.391 126.613 256.391 125.4C256.391 123.745 257.003 122.453 258.227 121.524C259.451 120.583 261.026 120.113 262.953 120.113C264.2 120.113 265.322 120.294 266.319 120.657C267.328 121.008 268.155 121.598 268.801 122.425C269.447 123.241 269.866 124.352 270.059 125.757L266.183 125.74C266.013 125.083 265.764 124.578 265.435 124.227C265.106 123.864 264.727 123.615 264.296 123.479C263.877 123.332 263.418 123.258 262.919 123.258C262.375 123.258 261.905 123.343 261.508 123.513C261.111 123.683 260.805 123.921 260.59 124.227C260.375 124.533 260.267 124.901 260.267 125.332C260.267 125.831 260.409 126.25 260.692 126.59C260.987 126.919 261.423 127.208 262.001 127.457C262.59 127.695 263.321 127.944 264.194 128.205C264.897 128.409 265.622 128.636 266.37 128.885C267.118 129.123 267.815 129.429 268.461 129.803C269.107 130.177 269.628 130.676 270.025 131.299C270.422 131.911 270.62 132.71 270.62 133.696C270.62 135.453 269.957 136.824 268.631 137.81C267.316 138.796 265.571 139.289 263.395 139.289Z" fill="#553448"/>
</svg>
